<?xml version="1.0" standalone="no"?>
<!DOCTYPE svg PUBLIC "-//W3C//DTD SVG 1.1//EN" "http://www.w3.org/Graphics/SVG/1.1/DTD/svg11.dtd" >
<svg>
<metadata>
Created by FontForge 20090622 at Fri Mar 11 10:48:07 2016
 By ffonts
&#194;&#169; 2012 Microsoft Corporation. All Rights Reserved.
</metadata>
<defs>
<font id="SegoeMonoBoot" horiz-adv-x="1229" >
  <font-face 
    font-family="Segoe Mono Boot"
    font-weight="400"
    font-stretch="normal"
    units-per-em="2048"
    panose-1="2 11 5 9 4 2 4 2 2 3"
    ascent="1638"
    descent="-410"
    x-height="1024"
    cap-height="1434"
    bbox="-265 -486 1368 2130"
    underline-thickness="119"
    underline-position="-119"
    unicode-range="U+000D-U+2321"
  />
<missing-glyph 
d="M119 0v1398h990v-1398h-990zM267 148h694v1102h-694v-1102z" />
    <glyph glyph-name=".notdef" 
d="M119 0v1398h990v-1398h-990zM267 148h694v1102h-694v-1102z" />
    <glyph glyph-name="uni000D" unicode="&#xd;" horiz-adv-x="0" 
 />
    <glyph glyph-name="glyph2" 
 />
    <glyph glyph-name="space" unicode=" " 
 />
    <glyph glyph-name="exclam" unicode="!" 
d="M728 1434l-59 -1030h-115l-58 1030h232zM614 -19q-55 0 -94 38.5t-39 93.5t39 94t94 39q54 0 93.5 -39t39.5 -94t-39.5 -93.5t-93.5 -38.5z" />
    <glyph glyph-name="quotedbl" unicode="&#x22;" 
d="M516 1434l-40 -487h-135l-40 487h215zM928 1434l-40 -487h-135l-40 487h215z" />
    <glyph glyph-name="numbersign" unicode="#" 
d="M1181 1032l-23 -106h-261l-63 -300h281l-27 -106h-275l-88 -397h-126l86 397h-250l-84 -397h-125l84 397h-262l20 106h265l61 300h-277l21 106h277l84 402h126l-84 -402h252l86 402h123l-84 -402h263zM773 926h-252l-66 -300h254z" />
    <glyph glyph-name="dollar" unicode="$" 
d="M661 8v-217h-104v209q-250 0 -406 86v174q68 -51 186 -85.5t220 -34.5v512q-258 106 -334 195.5t-76 211.5q0 145 116 250.5t294 126.5v180h104v-176q239 -6 331 -56v-170q-125 80 -331 86v-522q243 -99 332 -187.5t89 -220.5q0 -142 -111.5 -238.5t-309.5 -123.5z
M557 828v466q-112 -17 -177 -74.5t-65 -139.5q0 -86 53 -141t189 -111zM661 606v-458q253 42 253 219q0 140 -253 239z" />
    <glyph glyph-name="percent" unicode="%" 
d="M305 795q-137 0 -218.5 87t-81.5 232q0 159 86 250.5t232 91.5q142 0 220 -84.5t78 -238.5q0 -153 -87.5 -245.5t-228.5 -92.5zM317 1346q-83 0 -131 -59.5t-48 -163.5q0 -103 47.5 -160t128.5 -57q82 0 128.5 59t46.5 164q0 103 -46 160t-126 57zM1139 1434l-920 -1444
h-143l919 1444h144zM909 -22q-137 0 -218.5 87.5t-81.5 231.5q0 159 87 251.5t231 92.5q141 0 219.5 -85.5t78.5 -240.5q0 -152 -87.5 -244.5t-228.5 -92.5zM921 528q-84 0 -131.5 -59t-47.5 -164q0 -101 47.5 -158t128.5 -57q82 0 128.5 59.5t46.5 163.5q0 103 -46 159
t-126 56z" />
    <glyph glyph-name="ampersand" unicode="&#x26;" 
d="M1267 0h-229l-154 158q-181 -183 -439 -183q-207 0 -323 122q-101 107 -101 265q0 253 307 420q-135 168 -135 330q0 154 97 250t249 96q146 0 232 -90q81 -84 81 -209q0 -137 -80 -230q-58 -75 -226 -173q190 -217 357 -379q44 61 76 160q38 115 39 221h151
q-2 -272 -172 -486zM692 1145q0 79 -45 132q-44 50 -106 50q-87 0 -139 -61q-47 -57 -47 -155q0 -129 113 -257q224 122 224 291zM790 256l-389 426q-103 -65 -153 -130q-59 -76 -59 -183q0 -115 69.5 -184.5t190.5 -69.5q187 0 341 141z" />
    <glyph glyph-name="quotesingle" unicode="'" 
d="M721 1434l-40 -487h-135l-40 487h215z" />
    <glyph glyph-name="parenleft" unicode="(" 
d="M961 -326h-146q-430 354 -430 873q0 521 430 887h148q-434 -380 -434 -885q0 -501 432 -875z" />
    <glyph glyph-name="parenright" unicode=")" 
d="M412 -326h-146q432 374 432 875q0 505 -434 885h148q432 -366 432 -887q0 -519 -432 -873z" />
    <glyph glyph-name="asterisk" unicode="*" 
d="M1046 1064l-354 -56l250 -293l-120 -86l-206 325l-208 -325l-120 86l250 293l-356 56l35 135l352 -109l-33 344h158l-33 -344l353 109z" />
    <glyph glyph-name="plus" unicode="+" 
d="M1084 530h-404v-403h-133v403h-403v134h403v403h133v-403h404v-134z" />
    <glyph glyph-name="comma" unicode="," 
d="M772 228l-179 -492h-128l77 492h230z" />
    <glyph glyph-name="hyphen" unicode="-" 
d="M887 506h-546v129h546v-129z" />
    <glyph glyph-name="period" unicode="." 
d="M613 -24q-55 0 -94 40t-39 95t39 95t94 40q56 0 95.5 -40t39.5 -95t-39.5 -95t-95.5 -40z" />
    <glyph glyph-name="slash" unicode="/" 
d="M1135 1434l-878 -1672h-163l876 1672h165z" />
    <glyph glyph-name="zero" unicode="0" 
d="M599 -24q-213 0 -332.5 183t-119.5 529q0 380 124.5 575t359.5 195q450 0 450 -735q0 -364 -127 -555.5t-355 -191.5zM622 1319q-307 0 -307 -623q0 -582 301 -582q297 0 297 592q0 613 -291 613z" />
    <glyph glyph-name="one" unicode="1" 
d="M1051 0h-811v144h324v1114l-332 -99v156l496 151v-1322h323v-144z" />
    <glyph glyph-name="two" unicode="2" 
d="M1061 0h-924v146l418 419q160 160 228.5 266.5t68.5 227.5q0 124 -71 192t-202 68q-192 0 -368 -164v172q168 131 391 131q192 0 302 -104t110 -279q0 -138 -76 -269.5t-273 -326.5l-331 -327v-4h727v-148z" />
    <glyph glyph-name="three" unicode="3" 
d="M129 53v177q169 -116 382 -116q173 0 276 75t103 202q0 281 -476 281h-142v139h137q431 0 431 264q0 244 -320 244q-178 0 -336 -103v160q157 82 371 82q206 0 329.5 -96t123.5 -246q0 -283 -288 -364v-4q155 -15 246.5 -108.5t91.5 -233.5q0 -193 -155 -311.5
t-410 -118.5q-228 0 -364 77z" />
    <glyph glyph-name="four" unicode="4" 
d="M1124 381h-184v-381h-162v381h-674v107l638 946h198v-920h184v-133zM778 514v620q0 66 4 148h-4q-14 -36 -55 -110l-441 -658h496z" />
    <glyph glyph-name="five" unicode="5" 
d="M172 35v174q165 -95 337 -95q171 0 275.5 86t104.5 228q0 141 -108 220t-309 79q-68 0 -255 -12v719h774v-148h-619v-420q75 4 138 4q261 0 403.5 -115.5t142.5 -316.5q0 -208 -149 -335t-408 -127q-219 0 -327 59z" />
    <glyph glyph-name="six" unicode="6" 
d="M1012 1417v-155q-121 57 -256 57q-208 0 -333 -170t-125 -455h4q108 203 355 203q203 0 323 -120.5t120 -322.5q0 -211 -135.5 -344.5t-344.5 -133.5q-230 0 -361 172t-131 483q0 377 172.5 602t456.5 225q161 0 255 -41zM624 758q-140 0 -227.5 -86t-87.5 -203
q0 -147 87 -251t231 -104q137 0 221 90.5t84 229.5q0 152 -81 238t-227 86z" />
    <glyph glyph-name="seven" unicode="7" 
d="M1099 1382l-598 -1382h-170l567 1286h-783v148h984v-52z" />
    <glyph glyph-name="eight" unicode="8" 
d="M441 752v4q-268 120 -268 348q0 155 124.5 254.5t329.5 99.5q185 0 308.5 -93t123.5 -239q0 -238 -276 -370v-4q324 -112 324 -388q0 -178 -129.5 -283t-377.5 -105q-220 0 -349.5 104t-129.5 270q0 276 320 402zM891 1106q0 99 -72.5 156t-197.5 57q-117 0 -198.5 -59.5
t-81.5 -151.5q0 -187 273 -282q277 98 277 280zM601 674q-312 -109 -312 -316q0 -107 90.5 -175.5t239.5 -68.5q141 0 230.5 67.5t89.5 170.5q0 216 -338 322z" />
    <glyph glyph-name="nine" unicode="9" 
d="M216 24v158q130 -68 274 -68q209 0 325.5 157t116.5 446q-2 -1 -4 0q-100 -185 -346 -185q-199 0 -326.5 125t-127.5 322q0 210 138.5 344.5t353.5 134.5q227 0 353.5 -167.5t126.5 -487.5q0 -397 -163.5 -612t-454.5 -215q-153 0 -266 48zM602 1319q-131 0 -218.5 -89.5
t-87.5 -227.5q0 -151 86 -237.5t232 -86.5q128 0 216.5 79t88.5 193q0 163 -88 266t-229 103z" />
    <glyph glyph-name="colon" unicode=":" 
d="M613 781q-55 0 -94 39.5t-39 94.5t39 93.5t94 38.5q56 0 95.5 -38.5t39.5 -93.5t-39.5 -94.5t-95.5 -39.5zM613 -24q-55 0 -94 40t-39 95t39 95t94 40q56 0 95.5 -40t39.5 -95t-39.5 -95t-95.5 -40z" />
    <glyph glyph-name="semicolon" unicode=";" 
d="M652 781q-56 0 -95 39.5t-39 94.5t39 93.5t95 38.5q55 0 94.5 -38.5t39.5 -93.5t-39.5 -94.5t-94.5 -39.5zM772 228l-180 -492h-127l77 492h230z" />
    <glyph glyph-name="less" unicode="&#x3c;" 
d="M1044 127l-860 432v59l860 482v-150l-642 -356v-4l642 -314v-149z" />
    <glyph glyph-name="equal" unicode="=" 
d="M1084 744h-940v132h940v-132zM1084 318h-940v132h940v-132z" />
    <glyph glyph-name="greater" unicode="&#x3e;" 
d="M1044 559l-860 -432v149l644 312v6l-644 356v150l860 -482v-59z" />
    <glyph glyph-name="question" unicode="?" 
d="M475 398q-9 25 -16 65t-7 80q0 62 27 112t71.5 93.5t97.5 83.5t100.5 84t77.5 92.5t30 106.5q0 49 -23.5 87.5t-64 64.5t-93.5 39t-104 13q-190 0 -380 -124v167q165 96 382 96q91 0 172 -20.5t141.5 -61.5t95.5 -102t35 -142q0 -76 -30 -136t-75.5 -110t-98.5 -93.5
l-100 -82.5t-78.5 -83t-31.5 -91q0 -43 11 -78.5t22 -59.5h-161zM565 -29q-53 0 -94 38q-39 39 -39 94q0 56 39 93q40 40 94 40t94 -40q39 -37 39 -93q0 -55 -39 -94q-41 -38 -94 -38z" />
    <glyph glyph-name="at" unicode="@" 
d="M757 420h-2q-57 -238 -225 -238q-107 0 -172 101t-65 272q0 226 91.5 375.5t240.5 149.5q57 0 101.5 -37t57.5 -93h3q2 28 10 115h125q-47 -551 -47 -561q0 -207 63 -207q58 0 96 117t38 303q0 275 -118.5 449t-329.5 174q-201 0 -333.5 -208t-132.5 -520
q0 -307 129.5 -495.5t348.5 -188.5q174 0 297 82v-124q-126 -74 -314 -74q-265 0 -426.5 219.5t-161.5 574.5q0 366 169 607t431 241q247 0 408 -202t161 -527q0 -238 -83.5 -390.5t-203.5 -152.5q-155 0 -156 238zM631 964q-88 0 -143 -118t-55 -293q0 -118 37 -186t98 -68
q89 0 141 123.5t52 327.5q0 214 -130 214z" />
    <glyph glyph-name="A" unicode="A" 
d="M1213 0h-186l-134 402h-558l-131 -402h-187l510 1434h174zM842 553l-207 615q-11 30 -22 96h-4q-10 -61 -23 -96l-202 -615h458z" />
    <glyph glyph-name="B" unicode="B" 
d="M193 0v1434h448q186 0 295 -91t109 -237q0 -122 -66 -212t-182 -128v-4q145 -17 232 -109.5t87 -240.5q0 -184 -132 -298t-333 -114h-458zM361 1282v-463h212q138 0 217 66.5t79 187.5q0 209 -275 209h-233zM361 668v-516h268q148 0 229.5 70t81.5 192q0 254 -346 254
h-233z" />
    <glyph glyph-name="C" unicode="C" 
d="M1085 60q-140 -84 -348 -84q-269 0 -430.5 197t-161.5 517q0 344 182 556t461 212q179 0 297 -59v-179q-132 86 -291 86q-211 0 -342 -165t-131 -441q0 -262 122.5 -417.5t321.5 -155.5q185 0 320 96v-163z" />
    <glyph glyph-name="D" unicode="D" 
d="M165 0v1434h220q758 0 758 -699q0 -332 -210.5 -533.5t-563.5 -201.5h-204zM333 1282v-1130h38q282 0 439 151t157 428q0 551 -586 551h-48z" />
    <glyph glyph-name="E" unicode="E" 
d="M1054 0h-840v1434h808v-152h-640v-477h598v-151h-598v-502h672v-152z" />
    <glyph glyph-name="F" unicode="F" 
d="M1028 1282h-630v-496h588v-151h-588v-635h-168v1434h798v-152z" />
    <glyph glyph-name="G" unicode="G" 
d="M1113 98q-184 -122 -408 -122q-262 0 -423 198t-161 524q0 333 178.5 546.5t451.5 213.5q198 0 333 -76v-186q-142 110 -337 110q-198 0 -324 -166t-126 -430q0 -272 112.5 -427.5t305.5 -155.5q133 0 230 57v412h-314v152h482v-650z" />
    <glyph glyph-name="H" unicode="H" 
d="M1063 0h-168v654h-562v-654h-168v1434h168v-629h562v629h168v-1434z" />
    <glyph glyph-name="I" unicode="I" 
d="M1008 1434v-144h-310v-1146h310v-144h-788v144h310v1146h-310v144h788z" />
    <glyph glyph-name="J" unicode="J" 
d="M946 514q0 -255 -156 -396.5t-418 -141.5q-121 0 -199 24v166q89 -39 231 -39q374 0 374 385v922h168v-920z" />
    <glyph glyph-name="K" unicode="K" 
d="M1202 0h-234l-554 656q-31 37 -38 50h-4v-706h-168v1434h168v-674h4q14 22 38 49l536 625h209l-615 -688z" />
    <glyph glyph-name="L" unicode="L" 
d="M1066 0h-824v1434h168v-1282h656v-152z" />
    <glyph glyph-name="M" unicode="M" 
d="M1136 0h-157v912q0 164 14 329h-4q-24 -97 -43 -189l-260 -1052h-142l-259 1044l-43 197h-4q8 -151 8 -331v-910h-152v1434h242l210 -841q42 -184 66 -331h6q26 147 69 335l219 837h230v-1434z" />
    <glyph glyph-name="N" unicode="N" 
d="M1092 0h-196l-548 1073l-46 120h-6q8 -46 8 -197v-996h-168v1434h208l528 -1038q45 -107 58 -143h4q-10 62 -10 211v970h168v-1434z" />
    <glyph glyph-name="O" unicode="O" 
d="M611 -24q-258 0 -391 201t-133 523q0 346 136 552t408 206q249 0 380.5 -200t131.5 -523q0 -351 -134.5 -555t-397.5 -204zM618 1306q-187 0 -271 -163t-84 -428t81 -426.5t266 -161.5q197 0 277 154t80 431q0 284 -78.5 439t-270.5 155z" />
    <glyph glyph-name="P" unicode="P" 
d="M385 542v-542h-168v1434h394q230 0 356.5 -112t126.5 -316t-140.5 -334t-379.5 -130h-189zM385 1282v-588h176q174 0 265.5 79.5t91.5 224.5q0 284 -336 284h-197z" />
    <glyph glyph-name="Q" unicode="Q" 
d="M602 -24q-55 0 -111.5 12.5t-103 38t-88.5 63t-77 87.5q-134 200 -134 523q0 347 135 552q136 206 411 206q246 0 377 -200q132 -200 132 -523q0 -137 -23.5 -258t-70.5 -219t-118.5 -166t-169.5 -97q44 -55 83 -97t77.5 -70.5t80.5 -43.5t92 -15q14 0 30 1.5t33 5t32 8
t28 10.5v-162q-14 -5 -30.5 -8.5t-34 -6t-34.5 -4t-31 -1.5q-81 0 -145.5 28.5t-121 78t-109 115.5zM618 1306q-187 0 -271 -163t-84 -428q0 -264 81 -427q81 -161 266 -161q197 0 277 154t80 431q0 285 -79 439q-78 155 -270 155z" />
    <glyph glyph-name="R" unicode="R" 
d="M1228 0h-200l-240 402q-33 56 -64 95.5t-63.5 64.5t-70 36.5t-84.5 11.5h-138v-610h-168v1434h428q94 0 173.5 -23.5t138 -71.5t91.5 -119.5t33 -167.5q0 -75 -22.5 -137.5t-64 -111.5t-100 -83.5t-131.5 -53.5v-4q36 -16 62.5 -36.5t50.5 -48.5t47.5 -63.5l52.5 -82.5z
M368 1282v-520h228q63 0 116.5 19t92.5 54.5t61 87t22 115.5q0 115 -74.5 179.5t-215.5 64.5h-230z" />
    <glyph glyph-name="S" unicode="S" 
d="M151 58v198q37 -30 88.5 -54t108.5 -40.5t114.5 -25.5t106.5 -9q169 0 252 57.5t83 165.5q0 58 -27.5 101t-76.5 78.5t-116 68l-144 68.5q-82 38 -152.5 77t-122.5 86t-82 106.5t-30 139.5q0 98 46 170.5t121.5 119.5t171.5 70t196 23q206 0 332 -57v-183
q-139 88 -357 88q-60 0 -120.5 -11.5t-107.5 -37.5t-76.5 -67t-29.5 -100q0 -55 22.5 -95t66 -73t105.5 -64t144 -68q84 -38 159 -80t131.5 -93t89.5 -113t33 -142q0 -106 -44.5 -179.5t-119.5 -119.5t-173.5 -66.5t-207.5 -20.5q-37 0 -90 5.5t-109 16t-105.5 26
t-79.5 34.5z" />
    <glyph glyph-name="T" unicode="T" 
d="M1142 1282h-444v-1282h-168v1282h-443v152h1055v-152z" />
    <glyph glyph-name="U" unicode="U" 
d="M1093 580q0 -604 -489 -604q-468 0 -468 581v877h168v-866q0 -441 316 -441q305 0 305 426v881h168v-854z" />
    <glyph glyph-name="V" unicode="V" 
d="M1193 1434l-491 -1434h-185l-480 1434h187l357 -1129q19 -66 29 -135h4q8 63 33 137l365 1127h181z" />
    <glyph glyph-name="W" unicode="W" 
d="M1246 1434l-225 -1434h-187l-180 997q-19 127 -23 206h-4q-6 -74 -26 -204l-192 -999h-185l-240 1434h155l155 -1040q19 -129 24 -204h5q8 78 31 204l197 1040h161l184 -1048q16 -117 24 -194h4q8 76 27 198l143 1044h152z" />
    <glyph glyph-name="X" unicode="X" 
d="M1190 0h-205l-330 549q-15 25 -33 71h-4q-10 -23 -34 -71l-340 -549h-206l480 721l-442 713h206l293 -504q29 -50 51 -100h4q32 66 56 104l305 500h193l-451 -711z" />
    <glyph glyph-name="Y" unicode="Y" 
d="M1205 1434l-513 -904v-530h-168v526l-501 908h191l361 -668q20 -36 35 -88h3q10 41 38 88l376 668h178z" />
    <glyph glyph-name="Z" unicode="Z" 
d="M1160 1394l-840 -1242h820v-152h-1071v47l833 1235h-766v152h1024v-40z" />
    <glyph glyph-name="bracketleft" unicode="[" 
d="M938 -326h-508v1760h508v-119h-362v-1522h362v-119z" />
    <glyph glyph-name="backslash" unicode="\" 
d="M1126 -240h-161l-863 1674h165z" />
    <glyph glyph-name="bracketright" unicode="]" 
d="M798 -326h-507v119h361v1522h-361v119h507v-1760z" />
    <glyph glyph-name="asciicircum" unicode="^" 
d="M1086 624h-150l-332 619h-6l-309 -619h-147l422 834h65z" />
    <glyph glyph-name="underscore" unicode="_" 
d="M1240 -297h-1250v119h1250v-119z" />
    <glyph glyph-name="grave" unicode="`" 
d="M701 1218h-127l-302 328h208z" />
    <glyph glyph-name="a" unicode="a" 
d="M1025 0h-164v160h-4q-121 -184 -355 -184q-172 0 -269 81t-97 215q0 287 380 334l345 43q0 261 -242 261q-212 0 -383 -126v168q168 96 387 96q402 0 402 -382v-666zM861 518l-288 -34q-134 -16 -201.5 -56.5t-67.5 -143.5q0 -75 62.5 -122.5t166.5 -47.5q142 0 235 85.5
t93 216.5v102z" />
    <glyph glyph-name="b" unicode="b" 
d="M331 148h-4v-148h-164v1516h164v-672h4q121 204 354 204q197 0 308.5 -137.5t111.5 -368.5q0 -257 -125 -411.5t-342 -154.5q-203 0 -307 172zM327 561v-143q0 -127 82.5 -215.5t209.5 -88.5q149 0 233.5 114t84.5 317q0 171 -79 268t-214 97q-143 0 -230 -99.5
t-87 -249.5z" />
    <glyph glyph-name="c" unicode="c" 
d="M1030 47q-130 -71 -309 -71q-242 0 -390.5 142.5t-148.5 369.5q0 253 160 406.5t427 153.5q149 0 263 -50v-168q-129 80 -276 80q-178 0 -292 -112.5t-114 -295.5q0 -180 107 -284t287 -104q152 0 286 89v-156z" />
    <glyph glyph-name="d" unicode="d" 
d="M1066 0h-164v174h-4q-114 -198 -352 -198q-193 0 -308.5 137.5t-115.5 374.5q0 254 128 407t341 153q211 0 307 -166h4v634h164v-1516zM902 463v151q0 124 -82 210t-208 86q-150 0 -236 -110t-86 -304q0 -177 82.5 -279.5t221.5 -102.5q137 0 222.5 99t85.5 250z" />
    <glyph glyph-name="e" unicode="e" 
d="M1091 471h-783q4 -171 100.5 -264t264.5 -93q189 0 347 114v-154q-145 -98 -383 -98q-233 0 -366 139.5t-133 392.5q0 239 144.5 389.5t359.5 150.5q214 0 331.5 -130t117.5 -361v-86zM923 610q-1 142 -76 221t-208 79q-128 0 -218 -83t-111 -217h613z" />
    <glyph glyph-name="f" unicode="f" 
d="M1055 1372q-85 27 -192 27q-239 0 -239 -264v-111h390v-140h-390v-884h-163v884h-285v140h285v116q0 184 111.5 291t311.5 107q108 0 171 -18v-148z" />
    <glyph glyph-name="g" unicode="g" 
d="M1066 82q0 -564 -540 -564q-190 0 -332 72v164q173 -96 330 -96q378 0 378 402v112h-4q-117 -196 -352 -196q-191 0 -307.5 136.5t-116.5 366.5q0 261 125.5 415t343.5 154q207 0 307 -166h4v142h164v-942zM902 463v151q0 122 -82.5 209t-205.5 87q-152 0 -238 -110.5
t-86 -309.5q0 -171 82.5 -273.5t218.5 -102.5q138 0 224.5 98t86.5 251z" />
    <glyph glyph-name="h" unicode="h" 
d="M1059 0h-164v590q0 320 -256 320q-129 0 -217.5 -92.5t-88.5 -237.5v-580h-164v1516h164v-662h4q125 194 356 194q366 0 366 -417v-631z" />
    <glyph glyph-name="i" unicode="i" 
d="M675 1263q-53 0 -90 36t-37 91t37 91.5t90 36.5q54 0 91.5 -36.5t37.5 -91.5q0 -53 -37.5 -90t-91.5 -37zM610 0v884h-374v140h538v-1024h-164z" />
    <glyph glyph-name="j" unicode="j" 
d="M679 16v868h-375v140h539v-981q0 -252 -133 -388.5t-380 -136.5q-92 0 -178 32v153q107 -45 203 -45q324 0 324 358zM733 1263q-53 0 -90 36t-37 91t37 91.5t90 36.5q54 0 91.5 -36.5t37.5 -91.5q0 -53 -37.5 -90t-91.5 -37z" />
    <glyph glyph-name="k" unicode="k" 
d="M1155 0h-230l-532 492h-4v-492h-164v1516h164v-961h4l510 469h215l-545 -494z" />
    <glyph glyph-name="l" unicode="l" 
d="M608 0v1376h-374v140h538v-1516h-164z" />
    <glyph glyph-name="m" unicode="m" 
d="M1162 0h-164v588q0 170 -33 246t-110 76q-66 0 -112 -96t-46 -230v-584h-164v608q0 302 -145 302q-69 0 -112.5 -90.5t-43.5 -235.5v-584h-164v1024h164v-162h4q78 186 229 186q76 0 132 -58.5t77 -153.5q81 212 244 212q244 0 244 -417v-631z" />
    <glyph glyph-name="n" unicode="n" 
d="M1059 0h-164v584q0 326 -256 326q-133 0 -219.5 -92.5t-86.5 -233.5v-584h-164v1024h164v-170h4q123 194 356 194q178 0 272 -108.5t94 -313.5v-626z" />
    <glyph glyph-name="o" unicode="o" 
d="M608 -24q-227 0 -362.5 143.5t-135.5 380.5q0 258 141 403t381 145q229 0 357.5 -141t128.5 -391q0 -245 -138.5 -392.5t-371.5 -147.5zM620 910q-158 0 -250 -107.5t-92 -296.5q0 -182 93 -287t249 -105q159 0 244.5 103t85.5 293q0 192 -85.5 296t-244.5 104z" />
    <glyph glyph-name="p" unicode="p" 
d="M331 148h-4v-619h-164v1495h164v-180h4q121 204 354 204q198 0 309 -137.5t111 -368.5q0 -257 -125 -411.5t-342 -154.5q-199 0 -307 172zM327 561v-143q0 -127 82.5 -215.5t209.5 -88.5q149 0 233.5 114t84.5 317q0 171 -79 268t-214 97q-143 0 -230 -99.5t-87 -249.5z
" />
    <glyph glyph-name="q" unicode="q" 
d="M1066 -471h-164v647h-4q-107 -200 -350 -200q-193 0 -309.5 137.5t-116.5 374.5q0 255 128 407.5t344 152.5q210 0 304 -166h4v142h164v-1495zM902 461v149q0 126 -82.5 213t-209.5 87q-148 0 -234 -109.5t-86 -308.5q0 -177 83 -277.5t214 -100.5q144 0 229.5 98.5
t85.5 248.5z" />
    <glyph glyph-name="r" unicode="r" 
d="M1045 858q-70 33 -202 33q-172 0 -287 -99t-115 -270v-522h-164v1024h164v-211h4q57 108 175 168.5t264 60.5q105 0 161 -14v-170z" />
    <glyph glyph-name="s" unicode="s" 
d="M225 37v176q160 -99 353 -99q258 0 258 144q0 41 -22 69.5t-60 50.5t-88.5 39.5l-109.5 36.5q-81 27 -143 54.5t-103 62t-62 78.5t-21 103q0 72 34.5 127.5t93 93t132.5 56.5t153 19q179 0 321 -48v-166q-137 74 -316 74q-56 0 -101 -10.5t-77.5 -29.5t-50 -45t-17.5 -58
q0 -40 17.5 -67t51 -48t81 -38l108.5 -37q82 -26 146.5 -53.5t110 -61.5t68 -79t22.5 -107q0 -76 -34.5 -132t-91.5 -93t-132.5 -55t-158.5 -18q-209 0 -362 61z" />
    <glyph glyph-name="t" unicode="t" 
d="M1009 10q-85 -32 -223 -32q-393 0 -393 388v518h-203v140h203v250l164 53v-303h449v-140h-449v-538q0 -124 61.5 -177t203.5 -53q108 0 187 34v-140z" />
    <glyph glyph-name="u" unicode="u" 
d="M1059 0h-164v162h-4q-108 -186 -335 -186q-387 0 -387 436v612h164v-586q0 -324 266 -324q129 0 212.5 88.5t83.5 231.5v590h164v-1024z" />
    <glyph glyph-name="v" unicode="v" 
d="M1133 1024l-448 -1024h-161l-428 1024h180l300 -754q29 -72 36 -133h4q10 70 32 129l312 758h173z" />
    <glyph glyph-name="w" unicode="w" 
d="M1231 1024l-247 -1024h-170l-171 733q-13 61 -16 95h-4q-7 -35 -21 -93l-189 -735h-164l-250 1024h162l162 -740q10 -65 14 -122h8q3 44 18 124l196 738h150l172 -752q10 -57 15 -112h8q2 39 17 112l158 752h152z" />
    <glyph glyph-name="x" unicode="x" 
d="M1088 1024l-374 -518l368 -506h-191l-231 332q-21 33 -45 78h-4q-7 -15 -47 -78l-235 -332h-189l379 502l-364 522h191l228 -350l43 -80h4l286 430h181z" />
    <glyph glyph-name="y" unicode="y" 
d="M1128 1024l-483 -1147q-41 -97 -88 -165t-99 -111t-109 -63t-117 -20q-74 0 -120 13v147q63 -18 116 -18q33 0 64 9.5t61 32.5t59.5 62t57.5 98l65 134l-434 1028h182l307 -788q11 -31 21 -78h6q9 42 24 81l317 785h170z" />
    <glyph glyph-name="z" unicode="z" 
d="M1053 977l-646 -837h640v-140h-881v51l646 833h-589v140h830v-47z" />
    <glyph glyph-name="braceleft" unicode="{" 
d="M946 -326q-407 4 -407 310v300q0 202 -256 212v116q256 10 256 216v292q0 310 407 314v-128q-259 -4 -259 -198v-293q0 -210 -150 -258v-4q150 -45 150 -256v-289q0 -111 58 -158.5t201 -49.5v-126z" />
    <glyph glyph-name="bar" unicode="|" 
d="M688 -482h-148v2048h148v-2048z" />
    <glyph glyph-name="braceright" unicode="}" 
d="M945 496q-256 -10 -256 -212v-300q0 -306 -406 -310v126q141 2 200.5 50t59.5 158v289q0 211 149 256v4q-149 48 -149 258v293q0 194 -260 198v128q406 -4 406 -314v-292q0 -206 256 -216v-116z" />
    <glyph glyph-name="asciitilde" unicode="~" 
d="M1107 750q-7 -148 -80.5 -229t-199.5 -81q-109 0 -265 109q-97 67 -159 67q-140 0 -146 -176h-135q5 143 79.5 226.5t201.5 83.5q106 0 235 -88q132 -90 197 -90q61 0 98 49t39 129h135z" />
    <glyph glyph-name="uni00A0" unicode="&#xa0;" 
 />
    <glyph glyph-name="exclamdown" unicode="&#xa1;" 
d="M500 -407l59 1030h115l58 -1030h-232zM614 1046q55 0 94 -38.5t39 -93.5t-39 -94t-94 -39q-54 0 -93.5 39t-39.5 94t39.5 93.5t93.5 38.5z" />
    <glyph glyph-name="cent" unicode="&#xa2;" 
d="M1033 239q-121 -66 -283 -71v-197h-125v203q-175 24 -292 136q-148 143 -148 370q0 253 160 406q113 109 280 141v206h125v-194q11 1 22 1q149 0 263 -50v-168q-129 80 -276 80h-9v-796q150 1 283 89v-156zM467 989q-114 -112 -114 -295q0 -180 107 -284q68 -66 165 -90
v763q-90 -27 -158 -94z" />
    <glyph glyph-name="sterling" unicode="&#xa3;" 
d="M1121 0h-980v135q218 69 218 313v187h-197v141h197v254q0 188 123.5 308t319.5 120q132 0 241 -41v-155q-118 57 -249 57q-271 0 -271 -307v-236h342v-141h-342v-156q0 -242 -193 -339h791v-140z" />
    <glyph glyph-name="currency" unicode="&#xa4;" 
d="M1083 354l-92 -96l-137 138q-105 -76 -239 -76q-136 0 -240 76l-138 -138l-92 96l138 134q-76 113 -76 237q0 129 76 237l-138 136l92 96l138 -137q110 77 240 77q129 0 237 -77l139 137l92 -96l-137 -136q78 -112 78 -237q0 -121 -78 -237zM615 1002q-116 0 -195.5 -81
t-79.5 -194t80.5 -194t194.5 -81q113 0 194.5 81t81.5 194t-83 194t-193 81z" />
    <glyph glyph-name="yen" unicode="&#xa5;" 
d="M1101 1434l-356 -656h285v-139h-334v-207h334v-139h-334v-293h-164v293h-344v139h344v207h-344v139h291l-352 656h192l250 -514q28 -58 47 -111h4q13 42 49 117l252 508h180z" />
    <glyph glyph-name="brokenbar" unicode="&#xa6;" 
d="M688 715h-148v851h148v-851zM688 -482h-148v852h148v-852z" />
    <glyph glyph-name="section" unicode="&#xa7;" 
d="M803 416q90 -74 90 -186q0 -132 -100 -214t-255 -82q-131 0 -239 56v158q130 -74 250 -74q84 0 130 39.5t46 99.5q0 53 -35.5 89.5t-180.5 113.5q-233 122 -233 317q0 163 147 244q-106 83 -106 223q0 127 93.5 209t246.5 82q130 0 219 -43v-158q-101 62 -223 62
q-168 0 -168 -144q0 -55 40.5 -100t203.5 -123q223 -107 223 -293q0 -170 -149 -276zM543 905q-101 -51 -101 -159q0 -72 56.5 -126.5t197.5 -117.5q88 68 88 172q0 72 -52.5 122.5t-188.5 108.5z" />
    <glyph glyph-name="dieresis" unicode="&#xa8;" 
d="M847 1198q-48 0 -83 33.5t-35 85.5q0 50 33.5 84t81.5 34q51 0 85.5 -34.5t34.5 -83.5t-33.5 -84t-83.5 -35zM386 1198q-51 0 -86 35.5t-35 83.5q0 50 34 84t83 34t85 -34.5t36 -83.5t-34.5 -84t-82.5 -35z" />
    <glyph glyph-name="copyright" unicode="&#xa9;" 
d="M886 266q-99 -69 -234 -69q-181 0 -303.5 141.5t-122.5 353.5q0 247 125.5 394t325.5 147q115 0 205 -53v-150q-80 72 -213 72q-130 0 -215 -106.5t-85 -286.5q0 -174 86.5 -279.5t221.5 -105.5q122 0 209 78v-136zM615 -33q-305 0 -447.5 219.5t-142.5 530.5
t142.5 530.5t447.5 219.5q304 0 446.5 -219.5t142.5 -530.5t-142.5 -530.5t-446.5 -219.5zM611 1379q-269 0 -387 -194t-118 -468t118 -467.5t387 -193.5q270 0 387.5 193.5t117.5 467.5t-117.5 468t-387.5 194z" />
    <glyph glyph-name="ordfeminine" unicode="&#xaa;" 
d="M937 717h-129v100h-4q-86 -119 -251 -119q-118 0 -190 59.5t-72 152.5q0 202 269 235l248 31q0 168 -166 168q-149 0 -279 -86v128q119 70 286 70q135 0 211.5 -72t76.5 -202v-465zM808 1075l-201 -25q-187 -23 -187 -134q0 -51 43 -83t114 -32q92 0 161.5 61t69.5 146
v67z" />
    <glyph glyph-name="guillemotleft" unicode="&#xab;" 
d="M1040 200h-168l-299 336l299 344h170l-307 -344zM651 200h-166l-299 336l299 344h166l-303 -344z" />
    <glyph glyph-name="logicalnot" unicode="&#xac;" 
d="M1084 254h-132v430h-808v133h940v-563z" />
    <glyph glyph-name="uni00AD" unicode="&#xad;" 
d="M887 506h-546v129h546v-129z" />
    <glyph glyph-name="registered" unicode="&#xae;" 
d="M615 -33q-305 0 -447.5 219.5t-142.5 530.5t142.5 530.5t447.5 219.5q304 0 446.5 -219.5t142.5 -530.5t-142.5 -530.5t-446.5 -219.5zM611 1379q-269 0 -387 -194t-118 -468t118 -467.5t387 -193.5q270 0 387.5 193.5t117.5 467.5t-117.5 468t-387.5 194zM959 248h-162
l-104 229q-79 172 -170 172h-58v-401h-133v954h238q167 0 257.5 -70t90.5 -190q0 -98 -63.5 -167t-177.5 -93v-4q79 -17 157 -176zM465 1088v-326h113q197 0 197 164q0 88 -53 125t-168 37h-89z" />
    <glyph glyph-name="macron" unicode="&#xaf;" 
d="M1248 1396h-1268v120h1268v-120z" />
    <glyph glyph-name="degree" unicode="&#xb0;" 
d="M614 897q-115 0 -196 81.5t-81 197.5q0 115 80 194.5t195 79.5q116 0 197.5 -80t81.5 -194q0 -116 -81 -197.5t-196 -81.5zM614 1333q-65 0 -111 -46t-46 -111q0 -67 45 -114.5t110 -47.5t112 48t47 114t-46 111.5t-111 45.5z" />
    <glyph glyph-name="plusminus" unicode="&#xb1;" 
d="M1084 652h-404v-404h-131v404h-405v132h405v404h131v-404h404v-132zM1084 0h-940v133h940v-133z" />
    <glyph glyph-name="uni00B2" unicode="&#xb2;" 
d="M886 884h-554v114l240 236q104 102 132 156.5t28 109.5q0 58 -38 94.5t-100 36.5q-118 0 -216 -102v149q84 76 235 76q118 0 187 -66t69 -174q0 -153 -205 -348l-164 -156v-4h386v-122z" />
    <glyph glyph-name="uni00B3" unicode="&#xb3;" 
d="M349 916v142q103 -76 217 -76q80 0 126 37.5t46 101.5q0 141 -219 141h-84v118h80q197 0 197 134q0 119 -144 119q-94 0 -186 -69v139q87 51 213 51q113 0 180 -59.5t67 -155.5q0 -151 -145 -205v-4q177 -42 177 -202q0 -117 -85 -191t-227 -74q-137 0 -213 53z" />
    <glyph glyph-name="acute" unicode="&#xb4;" 
d="M940 1546l-302 -328h-127l223 328h206z" />
    <glyph glyph-name="uni00B5" unicode="&#xb5;" 
d="M1093 0h-170q-23 72 -23 168h-5q-91 -191 -301 -191q-181 0 -258 123h-4v-496h-163v1420h163v-626q0 -127 74.5 -202t194.5 -75q131 0 212.5 86t81.5 231v586h166v-759q0 -188 32 -265z" />
    <glyph glyph-name="paragraph" unicode="&#xb6;" 
d="M999 1331h-128v-1331h-106v1331h-218v-1331h-108v903q-108 0 -179 76t-71 191q0 117 74.5 190.5t181.5 73.5h554v-103z" />
    <glyph glyph-name="periodcentered" unicode="&#xb7;" 
d="M613 487q-55 0 -94 40t-39 95q0 56 39 95.5t94 39.5q56 0 95.5 -39.5t39.5 -95.5q0 -55 -39.5 -95t-95.5 -40z" />
    <glyph glyph-name="cedilla" unicode="&#xb8;" 
d="M784 -256q0 -176 -275 -176q-38 0 -65 2v90q43 -6 70 -6q141 0 141 90q0 78 -129 78q-10 0 -41 -4v182h108v-104q88 0 139.5 -40t51.5 -112z" />
    <glyph glyph-name="uni00B9" unicode="&#xb9;" 
d="M894 884h-504v112h185v594l-193 -55v125l323 96v-760h189v-112z" />
    <glyph glyph-name="ordmasculine" unicode="&#xba;" 
d="M610 696q-167 0 -262.5 100.5t-95.5 272.5q0 181 102.5 283t271.5 102q163 0 257 -99.5t94 -270.5q0 -178 -99.5 -283t-267.5 -105zM618 1344q-106 0 -168.5 -72t-62.5 -199q0 -124 59.5 -194t169.5 -70q105 0 166.5 71.5t61.5 194.5q0 126 -60.5 197.5t-165.5 71.5z" />
    <glyph glyph-name="guillemotright" unicode="&#xbb;" 
d="M1043 538l-301 -338h-165l302 338l-302 342h165zM654 538l-299 -338h-170l308 338l-308 342h170z" />
    <glyph glyph-name="onequarter" unicode="&#xbc;" 
d="M48 584v96h147v643l-161 -57v104l270 88v-778h145v-96h-401zM1139 1434l-858 -1434h-124l859 1434h123zM1126 219v-217h-107v217h-311v78l295 555h123v-541h88v-92h-88zM1017 721l-16.5 -39.5t-18.5 -36.5l-174 -334h211v334q0 5 0.5 15.5t0.5 21.5t0.5 22t0.5 17h-4z
" />
    <glyph glyph-name="onehalf" unicode="&#xbd;" 
d="M64 584v96h147v643l-161 -57v104l270 88v-778h145v-96h-401zM1105 1434l-858 -1434h-124l859 1434h123zM725 2v98l186 246q88 116 108.5 173.5t20.5 100.5q0 66 -30 108t-82 42q-89 0 -172 -92v116q86 78 192 78q95 0 153 -65t58 -172q0 -73 -35 -145t-145 -214
l-131 -170v-4h317v-100h-440z" />
    <glyph glyph-name="threequarters" unicode="&#xbe;" 
d="M53 612v111q81 -66 160 -66q68 0 105 45.5t37 120.5q0 69 -44.5 110.5t-128.5 41.5h-65v94h57q76 0 116 42.5t40 111.5q0 135 -117 135q-63 0 -137 -58v105q74 49 160 49q96 0 151.5 -58.5t55.5 -154.5q0 -153 -125 -207v-4q70 -20 109.5 -78t39.5 -131
q0 -111 -67 -184.5t-179 -73.5q-93 0 -168 49zM1127 1434l-858 -1434h-124l859 1434h123zM1080 219v-217h-107v217h-311v78l295 555h123v-541h88v-92h-88zM971 721l-16.5 -39.5t-18.5 -36.5l-174 -334h211v334q0 5 0.5 15.5t0.5 21.5t0.5 22t0.5 17h-4z" />
    <glyph glyph-name="questiondown" unicode="&#xbf;" 
d="M753 630q9 -25 16 -65t7 -80q0 -62 -27 -112t-71.5 -93.5t-97.5 -83.5t-100.5 -84t-77.5 -92.5t-30 -106.5q0 -49 23.5 -87.5t64 -64.5t93.5 -39t104 -13q190 0 380 124v-167q-165 -96 -382 -96q-91 0 -172 20.5t-141.5 61.5t-95.5 102t-35 142q0 76 30 136t75.5 110
t98.5 93.5l100 82.5t78.5 83t31.5 91q0 43 -11 78.5t-22 59.5h161zM663 1057q53 0 94 -38q39 -39 39 -94q0 -56 -39 -94q-40 -39 -94 -39t-94 39q-39 38 -39 94q0 55 39 94q41 38 94 38z" />
    <glyph glyph-name="Agrave" unicode="&#xc0;" 
d="M1213 0h-186l-134 402h-558l-131 -402h-187l510 1434h174zM842 553l-207 615q-11 30 -22 96h-4q-10 -61 -23 -96l-202 -615h458zM701 1566h-127l-302 328h208z" />
    <glyph glyph-name="Aacute" unicode="&#xc1;" 
d="M1213 0h-186l-134 402h-558l-131 -402h-187l510 1434h174zM842 553l-207 615q-11 30 -22 96h-4q-10 -61 -23 -96l-202 -615h458zM940 1894l-302 -328h-127l223 328h206z" />
    <glyph glyph-name="Acircumflex" unicode="&#xc2;" 
d="M1213 0h-186l-134 402h-558l-131 -402h-187l510 1434h174zM842 553l-207 615q-11 30 -22 96h-4q-10 -61 -23 -96l-202 -615h458zM916 1566h-142l-164 210l-165 -210h-133l215 332h173z" />
    <glyph glyph-name="Atilde" unicode="&#xc3;" 
d="M1213 0h-186l-134 402h-558l-131 -402h-187l510 1434h174zM842 553l-207 615q-11 30 -22 96h-4q-10 -61 -23 -96l-202 -615h458zM935 1806q0 -105 -48 -171.5t-130 -66.5q-71 0 -162 52q-77 43 -119 43q-88 0 -88 -113h-94q0 107 48 171.5t134 64.5q65 0 149 -52
q74 -44 128 -44q84 0 84 116h98z" />
    <glyph glyph-name="Adieresis" unicode="&#xc4;" 
d="M1213 0h-186l-134 402h-558l-131 -402h-187l510 1434h174zM842 553l-207 615q-11 30 -22 96h-4q-10 -61 -23 -96l-202 -615h458zM847 1546q-48 0 -83 33.5t-35 85.5q0 50 33.5 84t81.5 34q51 0 85.5 -34.5t34.5 -83.5t-33.5 -84t-83.5 -35zM386 1546q-51 0 -86 35.5
t-35 83.5q0 50 34 84t83 34t85 -34.5t36 -83.5t-34.5 -84t-82.5 -35z" />
    <glyph glyph-name="Aring" unicode="&#xc5;" 
d="M1213 0h-186l-134 402h-558l-131 -402h-187l510 1434h174zM842 553l-207 615q-11 30 -22 96h-4q-10 -61 -23 -96l-202 -615h458zM610 1524q-87 0 -144.5 52.5t-57.5 137.5q0 90 59 144t150 54q89 0 146 -54t57 -138t-61 -140t-149 -56zM610 1831q-48 0 -80 -32.5
t-32 -80.5q0 -112 112 -112q50 0 83 32t33 80q0 49 -33 81t-83 32z" />
    <glyph glyph-name="AE" unicode="&#xc6;" 
d="M1224 0h-605v402h-324l-109 -402h-186l421 1434h770v-152h-405v-477h365v-151h-365v-502h438v-152zM619 553v729h-91l-191 -729h282z" />
    <glyph glyph-name="Ccedilla" unicode="&#xc7;" 
d="M1085 60q-140 -84 -348 -84q-269 0 -430.5 197t-161.5 517q0 344 182 556t461 212q179 0 297 -59v-179q-132 86 -291 86q-211 0 -342 -165t-131 -441q0 -262 122.5 -417.5t321.5 -155.5q185 0 320 96v-163zM914 -256q0 -176 -275 -176q-38 0 -65 2v90q43 -6 70 -6
q141 0 141 90q0 78 -129 78q-10 0 -41 -4v182h108v-104q88 0 139.5 -40t51.5 -112z" />
    <glyph glyph-name="Egrave" unicode="&#xc8;" 
d="M1054 0h-840v1434h808v-152h-640v-477h598v-151h-598v-502h672v-152zM701 1566h-127l-302 328h208z" />
    <glyph glyph-name="Eacute" unicode="&#xc9;" 
d="M1054 0h-840v1434h808v-152h-640v-477h598v-151h-598v-502h672v-152zM940 1893l-302 -328h-127l223 328h206z" />
    <glyph glyph-name="Ecircumflex" unicode="&#xca;" 
d="M1054 0h-840v1434h808v-152h-640v-477h598v-151h-598v-502h672v-152zM916 1567h-142l-164 210l-165 -210h-133l215 332h173z" />
    <glyph glyph-name="Edieresis" unicode="&#xcb;" 
d="M1054 0h-840v1434h808v-152h-640v-477h598v-151h-598v-502h672v-152zM847 1546q-48 0 -83 33.5t-35 85.5q0 50 33.5 84t81.5 34q51 0 85.5 -34.5t34.5 -83.5t-33.5 -84t-83.5 -35zM386 1546q-51 0 -86 35.5t-35 83.5q0 50 34 84t83 34t85 -34.5t36 -83.5t-34.5 -84
t-82.5 -35z" />
    <glyph glyph-name="Igrave" unicode="&#xcc;" 
d="M1008 1434v-144h-310v-1146h310v-144h-788v144h310v1146h-310v144h788zM701 1566h-127l-302 328h208z" />
    <glyph glyph-name="Iacute" unicode="&#xcd;" 
d="M1008 1434v-144h-310v-1146h310v-144h-788v144h310v1146h-310v144h788zM940 1894l-302 -328h-127l223 328h206z" />
    <glyph glyph-name="Icircumflex" unicode="&#xce;" 
d="M1008 1434v-144h-310v-1146h310v-144h-788v144h310v1146h-310v144h788zM916 1567h-142l-164 210l-165 -210h-133l215 332h173z" />
    <glyph glyph-name="Idieresis" unicode="&#xcf;" 
d="M1008 1434v-144h-310v-1146h310v-144h-788v144h310v1146h-310v144h788zM847 1546q-48 0 -83 33.5t-35 85.5q0 50 33.5 84t81.5 34q51 0 85.5 -34.5t34.5 -83.5t-33.5 -84t-83.5 -35zM386 1546q-51 0 -86 35.5t-35 83.5q0 50 34 84t83 34t85 -34.5t36 -83.5t-34.5 -84
t-82.5 -35z" />
    <glyph glyph-name="Eth" unicode="&#xd0;" 
d="M165 0v641h-121v155h121v638h220q758 0 758 -699q0 -332 -210.5 -533.5t-563.5 -201.5h-204zM333 1282v-486h289v-155h-289v-489h38q282 0 439 151t157 428q0 551 -586 551h-48z" />
    <glyph glyph-name="Ntilde" unicode="&#xd1;" 
d="M1092 0h-196l-548 1073l-46 120h-6q8 -46 8 -197v-996h-168v1434h208l528 -1038q45 -107 58 -143h4q-10 62 -10 211v970h168v-1434zM935 1803q0 -105 -48 -171.5t-130 -66.5q-71 0 -162 52q-77 43 -119 43q-88 0 -88 -113h-94q0 107 48 171.5t134 64.5q65 0 149 -52
q74 -44 128 -44q84 0 84 116h98z" />
    <glyph glyph-name="Ograve" unicode="&#xd2;" 
d="M611 -24q-258 0 -391 201t-133 523q0 346 136 552t408 206q249 0 380.5 -200t131.5 -523q0 -351 -134.5 -555t-397.5 -204zM618 1306q-187 0 -271 -163t-84 -428t81 -426.5t266 -161.5q197 0 277 154t80 431q0 284 -78.5 439t-270.5 155zM701 1566h-127l-302 328h208z
" />
    <glyph glyph-name="Oacute" unicode="&#xd3;" 
d="M611 -24q-258 0 -391 201t-133 523q0 346 136 552t408 206q249 0 380.5 -200t131.5 -523q0 -351 -134.5 -555t-397.5 -204zM618 1306q-187 0 -271 -163t-84 -428t81 -426.5t266 -161.5q197 0 277 154t80 431q0 284 -78.5 439t-270.5 155zM940 1894l-302 -328h-127
l223 328h206z" />
    <glyph glyph-name="Ocircumflex" unicode="&#xd4;" 
d="M611 -24q-258 0 -391 201t-133 523q0 346 136 552t408 206q249 0 380.5 -200t131.5 -523q0 -351 -134.5 -555t-397.5 -204zM618 1306q-187 0 -271 -163t-84 -428t81 -426.5t266 -161.5q197 0 277 154t80 431q0 284 -78.5 439t-270.5 155zM916 1566h-142l-164 210
l-165 -210h-133l215 332h173z" />
    <glyph glyph-name="Otilde" unicode="&#xd5;" 
d="M611 -24q-258 0 -391 201t-133 523q0 346 136 552t408 206q249 0 380.5 -200t131.5 -523q0 -351 -134.5 -555t-397.5 -204zM618 1306q-187 0 -271 -163t-84 -428t81 -426.5t266 -161.5q197 0 277 154t80 431q0 284 -78.5 439t-270.5 155zM935 1802q0 -105 -48 -171.5
t-130 -66.5q-71 0 -162 52q-77 43 -119 43q-88 0 -88 -113h-94q0 107 48 171.5t134 64.5q65 0 149 -52q74 -44 128 -44q84 0 84 116h98z" />
    <glyph glyph-name="Odieresis" unicode="&#xd6;" 
d="M611 -24q-258 0 -391 201t-133 523q0 346 136 552t408 206q249 0 380.5 -200t131.5 -523q0 -351 -134.5 -555t-397.5 -204zM618 1306q-187 0 -271 -163t-84 -428t81 -426.5t266 -161.5q197 0 277 154t80 431q0 284 -78.5 439t-270.5 155zM847 1543q-48 0 -83 33.5
t-35 85.5q0 50 33.5 84t81.5 34q51 0 85.5 -34.5t34.5 -83.5t-33.5 -84t-83.5 -35zM386 1543q-51 0 -86 35.5t-35 83.5q0 50 34 84t83 34t85 -34.5t36 -83.5t-34.5 -84t-82.5 -35z" />
    <glyph glyph-name="multiply" unicode="&#xd7;" 
d="M1047 258l-94 -94l-340 340l-338 -340l-94 94l340 338l-340 340l94 94l338 -340l340 340l94 -94l-340 -340z" />
    <glyph glyph-name="Oslash" unicode="&#xd8;" 
d="M611 -24q-238 0 -369 170l-152 -197l-93 70l180 233q-90 183 -90 448q0 346 136 552t408 206q224 0 353 -162l151 195l93 -68l-179 -231q94 -185 94 -457q0 -351 -134.5 -555t-397.5 -204zM610 127q197 0 277 154t80 431q0 193 -37 326l-583 -756q81 -155 263 -155z
M618 1306q-187 0 -271 -163t-84 -428q0 -176 35 -306l584 754q-80 143 -264 143z" />
    <glyph glyph-name="Ugrave" unicode="&#xd9;" 
d="M1093 580q0 -604 -489 -604q-468 0 -468 581v877h168v-866q0 -441 316 -441q305 0 305 426v881h168v-854zM701 1566h-127l-302 328h208z" />
    <glyph glyph-name="Uacute" unicode="&#xda;" 
d="M1093 580q0 -604 -489 -604q-468 0 -468 581v877h168v-866q0 -441 316 -441q305 0 305 426v881h168v-854zM940 1893l-302 -328h-127l223 328h206z" />
    <glyph glyph-name="Ucircumflex" unicode="&#xdb;" 
d="M1093 580q0 -604 -489 -604q-468 0 -468 581v877h168v-866q0 -441 316 -441q305 0 305 426v881h168v-854zM916 1567h-142l-164 210l-165 -210h-133l215 332h173z" />
    <glyph glyph-name="Udieresis" unicode="&#xdc;" 
d="M1093 580q0 -604 -489 -604q-468 0 -468 581v877h168v-866q0 -441 316 -441q305 0 305 426v881h168v-854zM847 1547q-48 0 -83 33.5t-35 85.5q0 50 33.5 84t81.5 34q51 0 85.5 -34.5t34.5 -83.5t-33.5 -84t-83.5 -35zM386 1547q-51 0 -86 35.5t-35 83.5q0 50 34 84t83 34
t85 -34.5t36 -83.5t-34.5 -84t-82.5 -35z" />
    <glyph glyph-name="Yacute" unicode="&#xdd;" 
d="M1205 1434l-513 -904v-530h-168v526l-501 908h191l361 -668q20 -36 35 -88h3q10 41 38 88l376 668h178zM940 1894l-302 -328h-127l223 328h206z" />
    <glyph glyph-name="Thorn" unicode="&#xde;" 
d="M385 318v-318h-168v1434h168v-226h226q232 0 357.5 -111.5t125.5 -316.5q0 -204 -141.5 -333t-381.5 -129h-186zM385 1057v-588h176q173 0 265 78t92 223q0 287 -336 287h-197z" />
    <glyph glyph-name="germandbls" unicode="&#xdf;" 
d="M495 2v160q80 -48 182 -48q117 0 190 73.5t73 197.5q0 150 -108 243.5t-300 113.5v130q131 20 215.5 103t84.5 197q0 108 -62.5 167.5t-172.5 59.5q-263 0 -263 -309v-1090h-164v1114q0 192 118.5 308t319.5 116q179 0 285.5 -95t106.5 -251q0 -127 -75 -228t-195 -140
v-5q378 -75 378 -426q0 -177 -116.5 -297t-309.5 -120q-106 0 -187 26z" />
    <glyph glyph-name="agrave" unicode="&#xe0;" 
d="M1025 0h-164v160h-4q-121 -184 -355 -184q-172 0 -269 81t-97 215q0 287 380 334l345 43q0 261 -242 261q-212 0 -383 -126v168q168 96 387 96q402 0 402 -382v-666zM861 518l-288 -34q-134 -16 -201.5 -56.5t-67.5 -143.5q0 -75 62.5 -122.5t166.5 -47.5q142 0 235 85.5
t93 216.5v102zM701 1218h-127l-302 328h208z" />
    <glyph glyph-name="aacute" unicode="&#xe1;" 
d="M1025 0h-164v160h-4q-121 -184 -355 -184q-172 0 -269 81t-97 215q0 287 380 334l345 43q0 261 -242 261q-212 0 -383 -126v168q168 96 387 96q402 0 402 -382v-666zM861 518l-288 -34q-134 -16 -201.5 -56.5t-67.5 -143.5q0 -75 62.5 -122.5t166.5 -47.5q142 0 235 85.5
t93 216.5v102zM940 1546l-302 -328h-127l223 328h206z" />
    <glyph glyph-name="acircumflex" unicode="&#xe2;" 
d="M1025 0h-164v160h-4q-121 -184 -355 -184q-172 0 -269 81t-97 215q0 287 380 334l345 43q0 261 -242 261q-212 0 -383 -126v168q168 96 387 96q402 0 402 -382v-666zM861 518l-288 -34q-134 -16 -201.5 -56.5t-67.5 -143.5q0 -75 62.5 -122.5t166.5 -47.5q142 0 235 85.5
t93 216.5v102zM916 1218h-142l-164 210l-165 -210h-133l215 332h173z" />
    <glyph glyph-name="atilde" unicode="&#xe3;" 
d="M1025 0h-164v160h-4q-121 -184 -355 -184q-172 0 -269 81t-97 215q0 287 380 334l345 43q0 261 -242 261q-212 0 -383 -126v168q168 96 387 96q402 0 402 -382v-666zM861 518l-288 -34q-134 -16 -201.5 -56.5t-67.5 -143.5q0 -75 62.5 -122.5t166.5 -47.5q142 0 235 85.5
t93 216.5v102zM935 1458q0 -105 -48 -171.5t-130 -66.5q-71 0 -162 52q-77 43 -119 43q-88 0 -88 -113h-94q0 107 48 171.5t134 64.5q65 0 149 -52q74 -44 128 -44q84 0 84 116h98z" />
    <glyph glyph-name="adieresis" unicode="&#xe4;" 
d="M1025 0h-164v160h-4q-121 -184 -355 -184q-172 0 -269 81t-97 215q0 287 380 334l345 43q0 261 -242 261q-212 0 -383 -126v168q168 96 387 96q402 0 402 -382v-666zM861 518l-288 -34q-134 -16 -201.5 -56.5t-67.5 -143.5q0 -75 62.5 -122.5t166.5 -47.5q142 0 235 85.5
t93 216.5v102zM847 1198q-48 0 -83 33.5t-35 85.5q0 50 33.5 84t81.5 34q51 0 85.5 -34.5t34.5 -83.5t-33.5 -84t-83.5 -35zM386 1198q-51 0 -86 35.5t-35 83.5q0 50 34 84t83 34t85 -34.5t36 -83.5t-34.5 -84t-82.5 -35z" />
    <glyph glyph-name="aring" unicode="&#xe5;" 
d="M1025 0h-164v160h-4q-121 -184 -355 -184q-172 0 -269 81t-97 215q0 287 380 334l345 43q0 261 -242 261q-212 0 -383 -126v168q168 96 387 96q402 0 402 -382v-666zM861 518l-288 -34q-134 -16 -201.5 -56.5t-67.5 -143.5q0 -75 62.5 -122.5t166.5 -47.5q142 0 235 85.5
t93 216.5v102zM610 1176q-87 0 -144.5 52.5t-57.5 137.5q0 90 59 144t150 54q89 0 146 -54t57 -138t-61 -140t-149 -56zM610 1483q-48 0 -80 -32.5t-32 -80.5q0 -112 112 -112q50 0 83 32t33 80q0 49 -33 81t-83 32z" />
    <glyph glyph-name="ae" unicode="&#xe6;" 
d="M1199 471h-497q2 -171 66 -264t176 -93q129 0 234 114v-154q-101 -98 -274 -98q-207 0 -294 226h-3q-118 -229 -315 -229q-117 0 -188 80.5t-71 218.5q0 300 306 324l201 16q0 298 -172 298q-140 0 -263 -122v164q123 96 289 96q193 0 250 -200h3q82 200 252 200
q143 0 221.5 -130.5t78.5 -362.5v-84zM1031 610q-1 144 -40.5 222t-109.5 78q-68 0 -117 -82t-60 -218h327zM540 410v63l-145 -12q-99 -8 -148 -49t-49 -136q0 -73 38 -117.5t102 -44.5q85 0 143.5 84.5t58.5 211.5z" />
    <glyph glyph-name="ccedilla" unicode="&#xe7;" 
d="M1030 47q-130 -71 -309 -71q-242 0 -390.5 142.5t-148.5 369.5q0 253 160 406.5t427 153.5q149 0 263 -50v-168q-129 80 -276 80q-178 0 -292 -112.5t-114 -295.5q0 -180 107 -284t287 -104q152 0 286 89v-156zM879 -256q0 -176 -275 -176q-38 0 -65 2v90q43 -6 70 -6
q141 0 141 90q0 78 -129 78q-10 0 -41 -4v182h108v-104q88 0 139.5 -40t51.5 -112z" />
    <glyph glyph-name="egrave" unicode="&#xe8;" 
d="M1091 471h-783q4 -171 100.5 -264t264.5 -93q189 0 347 114v-154q-145 -98 -383 -98q-233 0 -366 139.5t-133 392.5q0 239 144.5 389.5t359.5 150.5q214 0 331.5 -130t117.5 -361v-86zM923 610q-1 142 -76 221t-208 79q-128 0 -218 -83t-111 -217h613zM701 1218h-127
l-302 328h208z" />
    <glyph glyph-name="eacute" unicode="&#xe9;" 
d="M1091 471h-783q4 -171 100.5 -264t264.5 -93q189 0 347 114v-154q-145 -98 -383 -98q-233 0 -366 139.5t-133 392.5q0 239 144.5 389.5t359.5 150.5q214 0 331.5 -130t117.5 -361v-86zM923 610q-1 142 -76 221t-208 79q-128 0 -218 -83t-111 -217h613zM940 1546
l-302 -328h-127l223 328h206z" />
    <glyph glyph-name="ecircumflex" unicode="&#xea;" 
d="M1091 471h-783q4 -171 100.5 -264t264.5 -93q189 0 347 114v-154q-145 -98 -383 -98q-233 0 -366 139.5t-133 392.5q0 239 144.5 389.5t359.5 150.5q214 0 331.5 -130t117.5 -361v-86zM923 610q-1 142 -76 221t-208 79q-128 0 -218 -83t-111 -217h613zM916 1218h-142
l-164 210l-165 -210h-133l215 332h173z" />
    <glyph glyph-name="edieresis" unicode="&#xeb;" 
d="M1091 471h-783q4 -171 100.5 -264t264.5 -93q189 0 347 114v-154q-145 -98 -383 -98q-233 0 -366 139.5t-133 392.5q0 239 144.5 389.5t359.5 150.5q214 0 331.5 -130t117.5 -361v-86zM923 610q-1 142 -76 221t-208 79q-128 0 -218 -83t-111 -217h613zM847 1198
q-48 0 -83 33.5t-35 85.5q0 50 33.5 84t81.5 34q51 0 85.5 -34.5t34.5 -83.5t-33.5 -84t-83.5 -35zM386 1198q-51 0 -86 35.5t-35 83.5q0 50 34 84t83 34t85 -34.5t36 -83.5t-34.5 -84t-82.5 -35z" />
    <glyph glyph-name="igrave" unicode="&#xec;" 
d="M610 0v884h-374v140h538v-1024h-164zM747 1218h-127l-302 328h208z" />
    <glyph glyph-name="iacute" unicode="&#xed;" 
d="M610 0v884h-374v140h538v-1024h-164zM1037 1546l-302 -328h-127l223 328h206z" />
    <glyph glyph-name="icircumflex" unicode="&#xee;" 
d="M610 0v884h-374v140h538v-1024h-164zM916 1218h-142l-164 210l-165 -210h-133l215 332h173z" />
    <glyph glyph-name="idieresis" unicode="&#xef;" 
d="M610 0v884h-374v140h538v-1024h-164zM847 1198q-48 0 -83 33.5t-35 85.5q0 50 33.5 84t81.5 34q51 0 85.5 -34.5t34.5 -83.5t-33.5 -84t-83.5 -35zM386 1198q-51 0 -86 35.5t-35 83.5q0 50 34 84t83 34t85 -34.5t36 -83.5t-34.5 -84t-82.5 -35z" />
    <glyph glyph-name="eth" unicode="&#xf0;" 
d="M841 968l4 3q-95 162 -210 266l-316 -151l-54 98l285 131q-124 105 -270 201h225q79 -52 182 -136l306 144l47 -95l-268 -129q346 -307 346 -774q0 -240 -136.5 -394t-371.5 -154t-367.5 140t-132.5 382q0 243 137.5 394.5t370.5 151.5q130 0 223 -78zM625 910
q-162 0 -254.5 -108.5t-92.5 -295.5q0 -181 90.5 -286.5t252.5 -105.5q151 0 240 108t89 288q0 400 -325 400z" />
    <glyph glyph-name="ntilde" unicode="&#xf1;" 
d="M1059 0h-164v584q0 326 -256 326q-133 0 -219.5 -92.5t-86.5 -233.5v-584h-164v1024h164v-170h4q123 194 356 194q178 0 272 -108.5t94 -313.5v-626zM935 1458q0 -105 -48 -171.5t-130 -66.5q-71 0 -162 52q-77 43 -119 43q-88 0 -88 -113h-94q0 107 48 171.5t134 64.5
q65 0 149 -52q74 -44 128 -44q84 0 84 116h98z" />
    <glyph glyph-name="ograve" unicode="&#xf2;" 
d="M608 -24q-227 0 -362.5 143.5t-135.5 380.5q0 258 141 403t381 145q229 0 357.5 -141t128.5 -391q0 -245 -138.5 -392.5t-371.5 -147.5zM620 910q-158 0 -250 -107.5t-92 -296.5q0 -182 93 -287t249 -105q159 0 244.5 103t85.5 293q0 192 -85.5 296t-244.5 104zM701 1218
h-127l-302 328h208z" />
    <glyph glyph-name="oacute" unicode="&#xf3;" 
d="M608 -24q-227 0 -362.5 143.5t-135.5 380.5q0 258 141 403t381 145q229 0 357.5 -141t128.5 -391q0 -245 -138.5 -392.5t-371.5 -147.5zM620 910q-158 0 -250 -107.5t-92 -296.5q0 -182 93 -287t249 -105q159 0 244.5 103t85.5 293q0 192 -85.5 296t-244.5 104zM940 1546
l-302 -328h-127l223 328h206z" />
    <glyph glyph-name="ocircumflex" unicode="&#xf4;" 
d="M608 -24q-227 0 -362.5 143.5t-135.5 380.5q0 258 141 403t381 145q229 0 357.5 -141t128.5 -391q0 -245 -138.5 -392.5t-371.5 -147.5zM620 910q-158 0 -250 -107.5t-92 -296.5q0 -182 93 -287t249 -105q159 0 244.5 103t85.5 293q0 192 -85.5 296t-244.5 104zM916 1218
h-142l-164 210l-165 -210h-133l215 332h173z" />
    <glyph glyph-name="otilde" unicode="&#xf5;" 
d="M608 -24q-227 0 -362.5 143.5t-135.5 380.5q0 258 141 403t381 145q229 0 357.5 -141t128.5 -391q0 -245 -138.5 -392.5t-371.5 -147.5zM620 910q-158 0 -250 -107.5t-92 -296.5q0 -182 93 -287t249 -105q159 0 244.5 103t85.5 293q0 192 -85.5 296t-244.5 104zM935 1458
q0 -105 -48 -171.5t-130 -66.5q-71 0 -162 52q-77 43 -119 43q-88 0 -88 -113h-94q0 107 48 171.5t134 64.5q65 0 149 -52q74 -44 128 -44q84 0 84 116h98z" />
    <glyph glyph-name="odieresis" unicode="&#xf6;" 
d="M608 -24q-227 0 -362.5 143.5t-135.5 380.5q0 258 141 403t381 145q229 0 357.5 -141t128.5 -391q0 -245 -138.5 -392.5t-371.5 -147.5zM620 910q-158 0 -250 -107.5t-92 -296.5q0 -182 93 -287t249 -105q159 0 244.5 103t85.5 293q0 192 -85.5 296t-244.5 104zM847 1198
q-48 0 -83 33.5t-35 85.5q0 50 33.5 84t81.5 34q51 0 85.5 -34.5t34.5 -83.5t-33.5 -84t-83.5 -35zM386 1198q-51 0 -86 35.5t-35 83.5q0 50 34 84t83 34t85 -34.5t36 -83.5t-34.5 -84t-82.5 -35z" />
    <glyph glyph-name="divide" unicode="&#xf7;" 
d="M620 868q-44 0 -74 30.5t-30 74.5q0 45 29 77t75 32q103 0 103 -107q0 -47 -30.5 -77t-72.5 -30zM1084 530h-940v134h940v-134zM616 112q-44 0 -75 30t-31 73q0 45 30 78t76 33q101 0 101 -109q0 -45 -29 -75t-72 -30z" />
    <glyph glyph-name="oslash" unicode="&#xf8;" 
d="M608 -24q-195 0 -323 106l-151 -164l-82 78l155 169q-97 134 -97 335q0 258 141 403t381 145q185 0 304 -92l157 170l84 -78l-161 -174q102 -136 102 -358q0 -245 -138.5 -392.5t-371.5 -147.5zM620 114q159 0 244.5 103t85.5 293q0 145 -49 239l-509 -552
q89 -83 228 -83zM620 910q-158 0 -250 -107.5t-92 -296.5q0 -127 45 -216l507 551q-81 69 -210 69z" />
    <glyph glyph-name="ugrave" unicode="&#xf9;" 
d="M1059 0h-164v162h-4q-108 -186 -335 -186q-387 0 -387 436v612h164v-586q0 -324 266 -324q129 0 212.5 88.5t83.5 231.5v590h164v-1024zM701 1218h-127l-302 328h208z" />
    <glyph glyph-name="uacute" unicode="&#xfa;" 
d="M1059 0h-164v162h-4q-108 -186 -335 -186q-387 0 -387 436v612h164v-586q0 -324 266 -324q129 0 212.5 88.5t83.5 231.5v590h164v-1024zM940 1546l-302 -328h-127l223 328h206z" />
    <glyph glyph-name="ucircumflex" unicode="&#xfb;" 
d="M1059 0h-164v162h-4q-108 -186 -335 -186q-387 0 -387 436v612h164v-586q0 -324 266 -324q129 0 212.5 88.5t83.5 231.5v590h164v-1024zM916 1218h-142l-164 210l-165 -210h-133l215 332h173z" />
    <glyph glyph-name="udieresis" unicode="&#xfc;" 
d="M1059 0h-164v162h-4q-108 -186 -335 -186q-387 0 -387 436v612h164v-586q0 -324 266 -324q129 0 212.5 88.5t83.5 231.5v590h164v-1024zM847 1198q-48 0 -83 33.5t-35 85.5q0 50 33.5 84t81.5 34q51 0 85.5 -34.5t34.5 -83.5t-33.5 -84t-83.5 -35zM386 1198
q-51 0 -86 35.5t-35 83.5q0 50 34 84t83 34t85 -34.5t36 -83.5t-34.5 -84t-82.5 -35z" />
    <glyph glyph-name="yacute" unicode="&#xfd;" 
d="M1128 1024l-483 -1147q-41 -97 -88 -165t-99 -111t-109 -63t-117 -20q-74 0 -120 13v147q63 -18 116 -18q33 0 64 9.5t61 32.5t59.5 62t57.5 98l65 134l-434 1028h182l307 -788q11 -31 21 -78h6q9 42 24 81l317 785h170zM940 1546l-302 -328h-127l223 328h206z" />
    <glyph glyph-name="thorn" unicode="&#xfe;" 
d="M331 148h-4v-619h-164v1987h164v-672h4q121 204 354 204q198 0 309 -137.5t111 -368.5q0 -257 -125 -411.5t-342 -154.5q-199 0 -307 172zM327 561v-143q0 -127 82.5 -215.5t209.5 -88.5q149 0 233.5 114t84.5 317q0 171 -79 268t-214 97q-143 0 -230 -99.5t-87 -249.5z
" />
    <glyph glyph-name="ydieresis" unicode="&#xff;" 
d="M1128 1024l-483 -1147q-41 -97 -88 -165t-99 -111t-109 -63t-117 -20q-74 0 -120 13v147q63 -18 116 -18q33 0 64 9.5t61 32.5t59.5 62t57.5 98l65 134l-434 1028h182l307 -788q11 -31 21 -78h6q9 42 24 81l317 785h170zM847 1198q-48 0 -83 33.5t-35 85.5q0 50 33.5 84
t81.5 34q51 0 85.5 -34.5t34.5 -83.5t-33.5 -84t-83.5 -35zM386 1198q-51 0 -86 35.5t-35 83.5q0 50 34 84t83 34t85 -34.5t36 -83.5t-34.5 -84t-82.5 -35z" />
    <glyph glyph-name="Amacron" unicode="&#x100;" 
d="M1213 0h-186l-134 402h-558l-131 -402h-187l510 1434h174zM842 553l-207 615q-11 30 -22 96h-4q-10 -61 -23 -96l-202 -615h458zM868 1567h-508v109h508v-109z" />
    <glyph glyph-name="amacron" unicode="&#x101;" 
d="M1025 0h-164v160h-4q-121 -184 -355 -184q-172 0 -269 81t-97 215q0 287 380 334l345 43q0 261 -242 261q-212 0 -383 -126v168q168 96 387 96q402 0 402 -382v-666zM861 518l-288 -34q-134 -16 -201.5 -56.5t-67.5 -143.5q0 -75 62.5 -122.5t166.5 -47.5q142 0 235 85.5
t93 216.5v102zM868 1218h-508v109h508v-109z" />
    <glyph glyph-name="Abreve" unicode="&#x102;" 
d="M1213 0h-186l-134 402h-558l-131 -402h-187l510 1434h174zM842 553l-207 615q-11 30 -22 96h-4q-10 -61 -23 -96l-202 -615h458zM899 1819q-10 -113 -91.5 -182.5t-197.5 -69.5q-121 0 -198 69t-82 183h120q11 -135 162 -135q64 0 110 36.5t55 98.5h122z" />
    <glyph glyph-name="abreve" unicode="&#x103;" 
d="M1025 0h-164v160h-4q-121 -184 -355 -184q-172 0 -269 81t-97 215q0 287 380 334l345 43q0 261 -242 261q-212 0 -383 -126v168q168 96 387 96q402 0 402 -382v-666zM861 518l-288 -34q-134 -16 -201.5 -56.5t-67.5 -143.5q0 -75 62.5 -122.5t166.5 -47.5q142 0 235 85.5
t93 216.5v102zM899 1470q-10 -113 -91.5 -182.5t-197.5 -69.5q-121 0 -198 69t-82 183h120q11 -135 162 -135q64 0 110 36.5t55 98.5h122z" />
    <glyph glyph-name="Aogonek" unicode="&#x104;" 
d="M1213 0h-186l-134 402h-558l-131 -402h-187l510 1434h174zM842 553l-207 615q-11 30 -22 96h-4q-10 -61 -23 -96l-202 -615h458zM1147 0q-150 -141 -150 -223q0 -70 105 -70q47 0 87 13v-107q-38 -13 -104 -13q-97 0 -155.5 40t-58.5 110q0 122 157 250h119z" />
    <glyph glyph-name="aogonek" unicode="&#x105;" 
d="M1025 0h-164v160h-4q-121 -184 -355 -184q-172 0 -269 81t-97 215q0 287 380 334l345 43q0 261 -242 261q-212 0 -383 -126v168q168 96 387 96q402 0 402 -382v-666zM861 518l-288 -34q-134 -16 -201.5 -56.5t-67.5 -143.5q0 -75 62.5 -122.5t166.5 -47.5q142 0 235 85.5
t93 216.5v102zM981 0q-150 -141 -150 -223q0 -70 105 -70q47 0 87 13v-107q-38 -13 -104 -13q-97 0 -155.5 40t-58.5 110q0 122 157 250h119z" />
    <glyph glyph-name="Cacute" unicode="&#x106;" 
d="M1085 60q-140 -84 -348 -84q-269 0 -430.5 197t-161.5 517q0 344 182 556t461 212q179 0 297 -59v-179q-132 86 -291 86q-211 0 -342 -165t-131 -441q0 -262 122.5 -417.5t321.5 -155.5q185 0 320 96v-163zM1065 1894l-302 -328h-127l223 328h206z" />
    <glyph glyph-name="cacute" unicode="&#x107;" 
d="M1030 47q-130 -71 -309 -71q-242 0 -390.5 142.5t-148.5 369.5q0 253 160 406.5t427 153.5q149 0 263 -50v-168q-129 80 -276 80q-178 0 -292 -112.5t-114 -295.5q0 -180 107 -284t287 -104q152 0 286 89v-156zM1048 1546l-302 -328h-127l223 328h206z" />
    <glyph glyph-name="Ccircumflex" unicode="&#x108;" 
d="M1085 60q-140 -84 -348 -84q-269 0 -430.5 197t-161.5 517q0 344 182 556t461 212q179 0 297 -59v-179q-132 86 -291 86q-211 0 -342 -165t-131 -441q0 -262 122.5 -417.5t321.5 -155.5q185 0 320 96v-163zM1016 1568h-142l-164 210l-165 -210h-133l215 332h173z" />
    <glyph glyph-name="ccircumflex" unicode="&#x109;" 
d="M1030 47q-130 -71 -309 -71q-242 0 -390.5 142.5t-148.5 369.5q0 253 160 406.5t427 153.5q149 0 263 -50v-168q-129 80 -276 80q-178 0 -292 -112.5t-114 -295.5q0 -180 107 -284t287 -104q152 0 286 89v-156zM1008 1218h-142l-164 210l-165 -210h-133l215 332h173z" />
    <glyph glyph-name="Cdotaccent" unicode="&#x10a;" 
d="M1085 60q-140 -84 -348 -84q-269 0 -430.5 197t-161.5 517q0 344 182 556t461 212q179 0 297 -59v-179q-132 86 -291 86q-211 0 -342 -165t-131 -441q0 -262 122.5 -417.5t321.5 -155.5q185 0 320 96v-163zM760 1612q-53 0 -90 36t-37 91t37 91.5t90 36.5
q54 0 91.5 -36.5t37.5 -91.5q0 -53 -37.5 -90t-91.5 -37z" />
    <glyph glyph-name="cdotaccent" unicode="&#x10b;" 
d="M1030 47q-130 -71 -309 -71q-242 0 -390.5 142.5t-148.5 369.5q0 253 160 406.5t427 153.5q149 0 263 -50v-168q-129 80 -276 80q-178 0 -292 -112.5t-114 -295.5q0 -180 107 -284t287 -104q152 0 286 89v-156zM689 1263q-53 0 -90 36t-37 91t37 91.5t90 36.5
q54 0 91.5 -36.5t37.5 -91.5q0 -53 -37.5 -90t-91.5 -37z" />
    <glyph glyph-name="Ccaron" unicode="&#x10c;" 
d="M1085 60q-140 -84 -348 -84q-269 0 -430.5 197t-161.5 517q0 344 182 556t461 212q179 0 297 -59v-179q-132 86 -291 86q-211 0 -342 -165t-131 -441q0 -262 122.5 -417.5t321.5 -155.5q185 0 320 96v-163zM1056 1896l-234 -330h-132l-236 330h135l164 -209l164 209h139z
" />
    <glyph glyph-name="ccaron" unicode="&#x10d;" 
d="M1030 47q-130 -71 -309 -71q-242 0 -390.5 142.5t-148.5 369.5q0 253 160 406.5t427 153.5q149 0 263 -50v-168q-129 80 -276 80q-178 0 -292 -112.5t-114 -295.5q0 -180 107 -284t287 -104q152 0 286 89v-156zM1006 1548l-234 -330h-132l-236 330h135l164 -209l164 209
h139z" />
    <glyph glyph-name="Dcaron" unicode="&#x10e;" 
d="M165 0v1434h220q758 0 758 -699q0 -332 -210.5 -533.5t-563.5 -201.5h-204zM333 1282v-1130h38q282 0 439 151t157 428q0 551 -586 551h-48zM915 1896l-234 -330h-132l-236 330h135l164 -209l164 209h139z" />
    <glyph glyph-name="dcaron" unicode="&#x10f;" 
d="M1017 0h-164v174h-4q-114 -198 -352 -198q-193 0 -308.5 137.5t-115.5 374.5q0 254 128 407t341 153q211 0 307 -166h4v634h164v-1516zM853 463v151q0 124 -82 210t-208 86q-150 0 -236 -110t-86 -304q0 -177 82.5 -279.5t221.5 -102.5q137 0 222.5 99t85.5 250z
M1368 1516l-166 -290h-123l87 290h202z" />
    <glyph glyph-name="Dcroat" unicode="&#x110;" 
d="M165 0v641h-121v155h121v638h220q758 0 758 -699q0 -332 -210.5 -533.5t-563.5 -201.5h-204zM333 1282v-486h289v-155h-289v-489h38q282 0 439 151t157 428q0 551 -586 551h-48z" />
    <glyph glyph-name="dcroat" unicode="&#x111;" 
d="M1066 0h-164v174h-4q-114 -198 -352 -198q-193 0 -308.5 137.5t-115.5 374.5q0 254 128 407t341 153q208 0 307 -166h4v320h-331v134h331v180h164v-180h136v-134h-136v-1202zM902 463v151q0 124 -82 210t-208 86q-150 0 -236 -110t-86 -304q0 -177 82.5 -279.5
t221.5 -102.5q136 0 222 99t86 250z" />
    <glyph glyph-name="Emacron" unicode="&#x112;" 
d="M1054 0h-840v1434h808v-152h-640v-477h598v-151h-598v-502h672v-152zM868 1566h-508v109h508v-109z" />
    <glyph glyph-name="emacron" unicode="&#x113;" 
d="M1091 471h-783q4 -171 100.5 -264t264.5 -93q189 0 347 114v-154q-145 -98 -383 -98q-233 0 -366 139.5t-133 392.5q0 239 144.5 389.5t359.5 150.5q214 0 331.5 -130t117.5 -361v-86zM923 610q-1 142 -76 221t-208 79q-128 0 -218 -83t-111 -217h613zM868 1218h-508v109
h508v-109z" />
    <glyph glyph-name="Ebreve" unicode="&#x114;" 
d="M1054 0h-840v1434h808v-152h-640v-477h598v-151h-598v-502h672v-152zM899 1820q-10 -113 -91.5 -182.5t-197.5 -69.5q-121 0 -198 69t-82 183h120q11 -135 162 -135q64 0 110 36.5t55 98.5h122z" />
    <glyph glyph-name="ebreve" unicode="&#x115;" 
d="M1091 471h-783q4 -171 100.5 -264t264.5 -93q189 0 347 114v-154q-145 -98 -383 -98q-233 0 -366 139.5t-133 392.5q0 239 144.5 389.5t359.5 150.5q214 0 331.5 -130t117.5 -361v-86zM923 610q-1 142 -76 221t-208 79q-128 0 -218 -83t-111 -217h613zM899 1470
q-10 -113 -91.5 -182.5t-197.5 -69.5q-121 0 -198 69t-82 183h120q11 -135 162 -135q64 0 110 36.5t55 98.5h122z" />
    <glyph glyph-name="Edotaccent" unicode="&#x116;" 
d="M1054 0h-840v1434h808v-152h-640v-477h598v-151h-598v-502h672v-152zM613 1612q-53 0 -90 36t-37 91t37 91.5t90 36.5q54 0 91.5 -36.5t37.5 -91.5q0 -53 -37.5 -90t-91.5 -37z" />
    <glyph glyph-name="edotaccent" unicode="&#x117;" 
d="M1091 471h-783q4 -171 100.5 -264t264.5 -93q189 0 347 114v-154q-145 -98 -383 -98q-233 0 -366 139.5t-133 392.5q0 239 144.5 389.5t359.5 150.5q214 0 331.5 -130t117.5 -361v-86zM923 610q-1 142 -76 221t-208 79q-128 0 -218 -83t-111 -217h613zM613 1263
q-53 0 -90 36t-37 91t37 91.5t90 36.5q54 0 91.5 -36.5t37.5 -91.5q0 -53 -37.5 -90t-91.5 -37z" />
    <glyph glyph-name="Eogonek" unicode="&#x118;" 
d="M1054 0h-840v1434h808v-152h-640v-477h598v-151h-598v-502h672v-152zM982 0q-150 -141 -150 -223q0 -70 105 -70q47 0 87 13v-107q-38 -13 -104 -13q-97 0 -155.5 40t-58.5 110q0 122 157 250h119z" />
    <glyph glyph-name="eogonek" unicode="&#x119;" 
d="M1091 471h-783q4 -171 100.5 -264t264.5 -93q189 0 347 114v-154q-145 -98 -383 -98q-233 0 -366 139.5t-133 392.5q0 239 144.5 389.5t359.5 150.5q214 0 331.5 -130t117.5 -361v-86zM923 610q-1 142 -76 221t-208 79q-128 0 -218 -83t-111 -217h613zM923 24
q-150 -141 -150 -223q0 -70 105 -70q47 0 87 13v-107q-38 -13 -104 -13q-97 0 -155.5 40t-58.5 110q0 122 157 250h119z" />
    <glyph glyph-name="Ecaron" unicode="&#x11a;" 
d="M1054 0h-840v1434h808v-152h-640v-477h598v-151h-598v-502h672v-152zM915 1896l-234 -330h-132l-236 330h135l164 -209l164 209h139z" />
    <glyph glyph-name="ecaron" unicode="&#x11b;" 
d="M1091 471h-783q4 -171 100.5 -264t264.5 -93q189 0 347 114v-154q-145 -98 -383 -98q-233 0 -366 139.5t-133 392.5q0 239 144.5 389.5t359.5 150.5q214 0 331.5 -130t117.5 -361v-86zM923 610q-1 142 -76 221t-208 79q-128 0 -218 -83t-111 -217h613zM915 1548
l-234 -330h-132l-236 330h135l164 -209l164 209h139z" />
    <glyph glyph-name="Gcircumflex" unicode="&#x11c;" 
d="M1113 98q-184 -122 -408 -122q-262 0 -423 198t-161 524q0 333 178.5 546.5t451.5 213.5q198 0 333 -76v-186q-142 110 -337 110q-198 0 -324 -166t-126 -430q0 -272 112.5 -427.5t305.5 -155.5q133 0 230 57v412h-314v152h482v-650zM1016 1568h-142l-164 210l-165 -210
h-133l215 332h173z" />
    <glyph glyph-name="gcircumflex" unicode="&#x11d;" 
d="M1066 82q0 -564 -540 -564q-190 0 -332 72v164q173 -96 330 -96q378 0 378 402v112h-4q-117 -196 -352 -196q-191 0 -307.5 136.5t-116.5 366.5q0 261 125.5 415t343.5 154q207 0 307 -166h4v142h164v-942zM902 463v151q0 122 -82.5 209t-205.5 87q-152 0 -238 -110.5
t-86 -309.5q0 -171 82.5 -273.5t218.5 -102.5q138 0 224.5 98t86.5 251zM916 1218h-142l-164 210l-165 -210h-133l215 332h173z" />
    <glyph glyph-name="Gbreve" unicode="&#x11e;" 
d="M1113 98q-184 -122 -408 -122q-262 0 -423 198t-161 524q0 333 178.5 546.5t451.5 213.5q198 0 333 -76v-186q-142 110 -337 110q-198 0 -324 -166t-126 -430q0 -272 112.5 -427.5t305.5 -155.5q133 0 230 57v412h-314v152h482v-650zM999 1817q-10 -113 -91.5 -182.5
t-197.5 -69.5q-121 0 -198 69t-82 183h120q11 -135 162 -135q64 0 110 36.5t55 98.5h122z" />
    <glyph glyph-name="gbreve" unicode="&#x11f;" 
d="M1066 82q0 -564 -540 -564q-190 0 -332 72v164q173 -96 330 -96q378 0 378 402v112h-4q-117 -196 -352 -196q-191 0 -307.5 136.5t-116.5 366.5q0 261 125.5 415t343.5 154q207 0 307 -166h4v142h164v-942zM902 463v151q0 122 -82.5 209t-205.5 87q-152 0 -238 -110.5
t-86 -309.5q0 -171 82.5 -273.5t218.5 -102.5q138 0 224.5 98t86.5 251zM899 1470q-10 -113 -91.5 -182.5t-197.5 -69.5q-121 0 -198 69t-82 183h120q11 -135 162 -135q64 0 110 36.5t55 98.5h122z" />
    <glyph glyph-name="Gdotaccent" unicode="&#x120;" 
d="M1113 98q-184 -122 -408 -122q-262 0 -423 198t-161 524q0 333 178.5 546.5t451.5 213.5q198 0 333 -76v-186q-142 110 -337 110q-198 0 -324 -166t-126 -430q0 -272 112.5 -427.5t305.5 -155.5q133 0 230 57v412h-314v152h482v-650zM713 1612q-53 0 -90 36t-37 91
t37 91.5t90 36.5q54 0 91.5 -36.5t37.5 -91.5q0 -53 -37.5 -90t-91.5 -37z" />
    <glyph glyph-name="gdotaccent" unicode="&#x121;" 
d="M1066 82q0 -564 -540 -564q-190 0 -332 72v164q173 -96 330 -96q378 0 378 402v112h-4q-117 -196 -352 -196q-191 0 -307.5 136.5t-116.5 366.5q0 261 125.5 415t343.5 154q207 0 307 -166h4v142h164v-942zM902 463v151q0 122 -82.5 209t-205.5 87q-152 0 -238 -110.5
t-86 -309.5q0 -171 82.5 -273.5t218.5 -102.5q138 0 224.5 98t86.5 251zM613 1263q-53 0 -90 36t-37 91t37 91.5t90 36.5q54 0 91.5 -36.5t37.5 -91.5q0 -53 -37.5 -90t-91.5 -37z" />
    <glyph glyph-name="Gcommaaccent" unicode="&#x122;" 
d="M1113 98q-184 -122 -408 -122q-262 0 -423 198t-161 524q0 333 178.5 546.5t451.5 213.5q198 0 333 -76v-186q-142 110 -337 110q-198 0 -324 -166t-126 -430q0 -272 112.5 -427.5t305.5 -155.5q133 0 230 57v412h-314v152h482v-650zM759 -119l-166 -290h-123l87 290h202
z" />
    <glyph glyph-name="gcommaaccent" unicode="&#x123;" 
d="M1066 82q0 -564 -540 -564q-190 0 -332 72v164q173 -96 330 -96q378 0 378 402v112h-4q-117 -196 -352 -196q-191 0 -307.5 136.5t-116.5 366.5q0 261 125.5 415t343.5 154q207 0 307 -166h4v142h164v-942zM902 463v151q0 122 -82.5 209t-205.5 87q-152 0 -238 -110.5
t-86 -309.5q0 -171 82.5 -273.5t218.5 -102.5q138 0 224.5 98t86.5 251zM815 1508l-87 -290h-202l166 290h123z" />
    <glyph glyph-name="Hcircumflex" unicode="&#x124;" 
d="M1063 0h-168v654h-562v-654h-168v1434h168v-629h562v629h168v-1434zM916 1566h-142l-164 210l-165 -210h-133l215 332h173z" />
    <glyph glyph-name="hcircumflex" unicode="&#x125;" 
d="M1059 0h-164v590q0 320 -256 320q-129 0 -217.5 -92.5t-88.5 -237.5v-580h-164v1516h164v-662h4q125 194 356 194q366 0 366 -417v-631zM916 1647h-142l-164 210l-165 -210h-133l215 332h173z" />
    <glyph glyph-name="Hbar" unicode="&#x126;" 
d="M1063 0h-168v654h-562v-654h-168v1028h-160v152h160v254h168v-254h562v254h168v-254h160v-152h-160v-1028zM333 1028v-223h562v223h-562z" />
    <glyph glyph-name="hbar" unicode="&#x127;" 
d="M1075 0h-164v590q0 320 -256 320q-129 0 -217.5 -92.5t-88.5 -237.5v-580h-164v1202h-136v134h136v180h164v-180h420v-134h-420v-348h4q127 194 356 194q178 0 272 -107t94 -310v-631z" />
    <glyph glyph-name="Itilde" unicode="&#x128;" 
d="M1008 1434v-144h-310v-1146h310v-144h-788v144h310v1146h-310v144h788zM935 1804q0 -105 -48 -171.5t-130 -66.5q-71 0 -162 52q-77 43 -119 43q-88 0 -88 -113h-94q0 107 48 171.5t134 64.5q65 0 149 -52q74 -44 128 -44q84 0 84 116h98z" />
    <glyph glyph-name="itilde" unicode="&#x129;" 
d="M610 0v884h-374v140h538v-1024h-164zM935 1458q0 -105 -48 -171.5t-130 -66.5q-71 0 -162 52q-77 43 -119 43q-88 0 -88 -113h-94q0 107 48 171.5t134 64.5q65 0 149 -52q74 -44 128 -44q84 0 84 116h98z" />
    <glyph glyph-name="Imacron" unicode="&#x12a;" 
d="M1008 1434v-144h-310v-1146h310v-144h-788v144h310v1146h-310v144h788zM868 1566h-508v109h508v-109z" />
    <glyph glyph-name="imacron" unicode="&#x12b;" 
d="M610 0v884h-374v140h538v-1024h-164zM868 1218h-508v109h508v-109z" />
    <glyph glyph-name="Ibreve" unicode="&#x12c;" 
d="M1008 1434v-144h-310v-1146h310v-144h-788v144h310v1146h-310v144h788zM899 1818q-10 -113 -91.5 -182.5t-197.5 -69.5q-121 0 -198 69t-82 183h120q11 -135 162 -135q64 0 110 36.5t55 98.5h122z" />
    <glyph glyph-name="ibreve" unicode="&#x12d;" 
d="M610 0v884h-374v140h538v-1024h-164zM899 1470q-10 -113 -91.5 -182.5t-197.5 -69.5q-121 0 -198 69t-82 183h120q11 -135 162 -135q64 0 110 36.5t55 98.5h122z" />
    <glyph glyph-name="Iogonek" unicode="&#x12e;" 
d="M1008 1434v-144h-310v-1146h310v-144h-788v144h310v1146h-310v144h788zM716 0q-150 -141 -150 -223q0 -70 105 -70q47 0 87 13v-107q-38 -13 -104 -13q-97 0 -155.5 40t-58.5 110q0 122 157 250h119z" />
    <glyph glyph-name="iogonek" unicode="&#x12f;" 
d="M675 1263q-53 0 -90 36t-37 91t37 91.5t90 36.5q54 0 91.5 -36.5t37.5 -91.5q0 -53 -37.5 -90t-91.5 -37zM610 0v884h-374v140h538v-1024h-164zM752 0q-150 -141 -150 -223q0 -70 105 -70q47 0 87 13v-107q-38 -13 -104 -13q-97 0 -155.5 40t-58.5 110q0 122 157 250h119
z" />
    <glyph glyph-name="Idotaccent" unicode="&#x130;" 
d="M1008 1434v-144h-310v-1146h310v-144h-788v144h310v1146h-310v144h788zM613 1612q-53 0 -90 36t-37 91t37 91.5t90 36.5q54 0 91.5 -36.5t37.5 -91.5q0 -53 -37.5 -90t-91.5 -37z" />
    <glyph glyph-name="dotlessi" unicode="&#x131;" 
d="M610 0v884h-374v140h538v-1024h-164z" />
    <glyph glyph-name="IJ" unicode="&#x132;" 
d="M346 0h-168v1434h168v-1434zM1090 514q0 -265 -117 -408q-107 -131 -281 -131q-85 0 -137 25v166q54 -39 140 -39q227 0 227 385v922h168v-920z" />
    <glyph glyph-name="ij" unicode="&#x133;" 
d="M441 1391q0 -45 -31.5 -76t-76.5 -31q-44 0 -75.5 30t-31.5 77q0 45 31.5 75.5t75.5 30.5q45 0 76.5 -30.5t31.5 -75.5zM413 0h-164v1024h164v-1024zM1001 1391q0 -45 -32 -76t-77 -31q-44 0 -75 30t-31 77q0 45 31.5 75.5t74.5 30.5q46 0 77.5 -30.5t31.5 -75.5zM972 43
q0 -257 -105 -393q-101 -131 -286 -131q-76 0 -137 30v154q78 -45 141 -45q224 0 224 358v1008h163v-981z" />
    <glyph glyph-name="Jcircumflex" unicode="&#x134;" 
d="M946 514q0 -255 -156 -396.5t-418 -141.5q-121 0 -199 24v166q89 -39 231 -39q374 0 374 385v922h168v-920zM1159 1566h-142l-164 210l-165 -210h-133l215 332h173z" />
    <glyph glyph-name="jcircumflex" unicode="&#x135;" 
d="M679 16v868h-375v140h539v-981q0 -252 -133 -388.5t-380 -136.5q-92 0 -178 32v153q107 -45 203 -45q324 0 324 358zM908 1218h-142l-164 210l-165 -210h-133l215 332h173z" />
    <glyph glyph-name="Kcommaaccent" unicode="&#x136;" 
d="M1202 0h-234l-554 656q-31 37 -38 50h-4v-706h-168v1434h168v-674h4q14 22 38 49l536 625h209l-615 -688zM759 -119l-166 -290h-123l87 290h202z" />
    <glyph glyph-name="kcommaaccent" unicode="&#x137;" 
d="M1155 0h-230l-532 492h-4v-492h-164v1516h164v-961h4l510 469h215l-545 -494zM759 -119l-166 -290h-123l87 290h202z" />
    <glyph glyph-name="kgreenlandic" unicode="&#x138;" 
d="M1155 0h-230l-532 492h-4v-492h-164v1025h164v-470h4l510 469h215l-545 -494z" />
    <glyph glyph-name="Lacute" unicode="&#x139;" 
d="M1066 0h-824v1434h168v-1282h656v-152zM720 1894l-302 -328h-127l223 328h206z" />
    <glyph glyph-name="lacute" unicode="&#x13a;" 
d="M608 0v1376h-374v140h538v-1516h-164zM1033 1979l-302 -328h-127l223 328h206z" />
    <glyph glyph-name="Lcommaaccent" unicode="&#x13b;" 
d="M1066 0h-824v1434h168v-1282h656v-152zM851 -256q0 -176 -275 -176q-38 0 -65 2v90q43 -6 70 -6q141 0 141 90q0 78 -129 78q-10 0 -41 -4v182h108v-104q88 0 139.5 -40t51.5 -112z" />
    <glyph glyph-name="lcommaaccent" unicode="&#x13c;" 
d="M608 0v1376h-374v140h538v-1516h-164zM907 -256q0 -176 -275 -176q-38 0 -65 2v90q43 -6 70 -6q141 0 141 90q0 78 -129 78q-10 0 -41 -4v182h108v-104q88 0 139.5 -40t51.5 -112z" />
    <glyph glyph-name="Lcaron" unicode="&#x13d;" 
d="M1066 0h-824v1434h168v-1282h656v-152zM1045 1434l-166 -290h-123l87 290h202z" />
    <glyph glyph-name="lcaron" unicode="&#x13e;" 
d="M608 0v1376h-374v140h538v-1516h-164zM1225 1510l-166 -290h-123l87 290h202z" />
    <glyph glyph-name="Ldot" unicode="&#x13f;" 
d="M1066 0h-824v1434h168v-1282h656v-152zM773 562q-53 0 -90 36t-37 91t37 91.5t90 36.5q54 0 91.5 -36.5t37.5 -91.5q0 -53 -37.5 -90t-91.5 -37z" />
    <glyph glyph-name="ldot" unicode="&#x140;" 
d="M542 0v1376h-374v140h538v-1516h-164zM972 712q-53 0 -90 36t-37 91t37 91.5t90 36.5q54 0 91.5 -36.5t37.5 -91.5q0 -53 -37.5 -90t-91.5 -37z" />
    <glyph glyph-name="Lslash" unicode="&#x141;" 
d="M1064 0h-822v547l-155 -97v152l155 96v736h168v-631l328 203v-154l-328 -200v-500h654v-152z" />
    <glyph glyph-name="lslash" unicode="&#x142;" 
d="M608 0v575l-170 -116v157l170 116v644h-374v140h538v-670l174 122v-157l-174 -123v-688h-164z" />
    <glyph glyph-name="Nacute" unicode="&#x143;" 
d="M1092 0h-196l-548 1073l-46 120h-6q8 -46 8 -197v-996h-168v1434h208l528 -1038q45 -107 58 -143h4q-10 62 -10 211v970h168v-1434zM940 1894l-302 -328h-127l223 328h206z" />
    <glyph glyph-name="nacute" unicode="&#x144;" 
d="M1059 0h-164v584q0 326 -256 326q-133 0 -219.5 -92.5t-86.5 -233.5v-584h-164v1024h164v-170h4q123 194 356 194q178 0 272 -108.5t94 -313.5v-626zM940 1546l-302 -328h-127l223 328h206z" />
    <glyph glyph-name="Ncommaaccent" unicode="&#x145;" 
d="M1092 0h-196l-548 1073l-46 120h-6q8 -46 8 -197v-996h-168v1434h208l528 -1038q45 -107 58 -143h4q-10 62 -10 211v970h168v-1434zM759 -119l-166 -290h-123l87 290h202z" />
    <glyph glyph-name="ncommaaccent" unicode="&#x146;" 
d="M1059 0h-164v584q0 326 -256 326q-133 0 -219.5 -92.5t-86.5 -233.5v-584h-164v1024h164v-170h4q123 194 356 194q178 0 272 -108.5t94 -313.5v-626zM759 -119l-166 -290h-123l87 290h202z" />
    <glyph glyph-name="Ncaron" unicode="&#x147;" 
d="M1092 0h-196l-548 1073l-46 120h-6q8 -46 8 -197v-996h-168v1434h208l528 -1038q45 -107 58 -143h4q-10 62 -10 211v970h168v-1434zM915 1896l-234 -330h-132l-236 330h135l164 -209l164 209h139z" />
    <glyph glyph-name="ncaron" unicode="&#x148;" 
d="M1059 0h-164v584q0 326 -256 326q-133 0 -219.5 -92.5t-86.5 -233.5v-584h-164v1024h164v-170h4q123 194 356 194q178 0 272 -108.5t94 -313.5v-626zM915 1548l-234 -330h-132l-236 330h135l164 -209l164 209h139z" />
    <glyph glyph-name="napostrophe" unicode="&#x149;" 
d="M1149 0h-164v584q0 326 -256 326q-133 0 -219.5 -92.5t-86.5 -233.5v-584h-164v1024h164v-170h4q123 194 356 194q178 0 272 -108.5t94 -313.5v-626zM286 1458l-181 -492h-127l77 492h231z" />
    <glyph glyph-name="Eng" unicode="&#x14a;" 
d="M920 0l-572 1083l-46 120h-6q8 -46 8 -197v-1006h-168v1434h218l518 -982q45 -107 58 -143h4q-10 62 -10 211v914h168v-1370q0 -486 -365 -486q-76 0 -137 31v165q78 -44 141 -44q189 0 189 270z" />
    <glyph glyph-name="eng" unicode="&#x14b;" 
d="M1059 26q0 -448 -358 -448q-76 0 -138 31v165q78 -44 142 -44q190 0 190 270v584q0 326 -256 326q-132 0 -219 -92.5t-87 -233.5v-584h-164v1024h164v-170h4q123 194 360 194q362 0 362 -422v-600z" />
    <glyph glyph-name="Omacron" unicode="&#x14c;" 
d="M611 -24q-258 0 -391 201t-133 523q0 346 136 552t408 206q249 0 380.5 -200t131.5 -523q0 -351 -134.5 -555t-397.5 -204zM618 1306q-187 0 -271 -163t-84 -428t81 -426.5t266 -161.5q197 0 277 154t80 431q0 284 -78.5 439t-270.5 155zM868 1566h-508v109h508v-109z
" />
    <glyph glyph-name="omacron" unicode="&#x14d;" 
d="M608 -24q-227 0 -362.5 143.5t-135.5 380.5q0 258 141 403t381 145q229 0 357.5 -141t128.5 -391q0 -245 -138.5 -392.5t-371.5 -147.5zM620 910q-158 0 -250 -107.5t-92 -296.5q0 -182 93 -287t249 -105q159 0 244.5 103t85.5 293q0 192 -85.5 296t-244.5 104zM868 1218
h-508v109h508v-109z" />
    <glyph glyph-name="Obreve" unicode="&#x14e;" 
d="M611 -24q-258 0 -391 201t-133 523q0 346 136 552t408 206q249 0 380.5 -200t131.5 -523q0 -351 -134.5 -555t-397.5 -204zM618 1306q-187 0 -271 -163t-84 -428t81 -426.5t266 -161.5q197 0 277 154t80 431q0 284 -78.5 439t-270.5 155zM899 1820q-10 -113 -91.5 -182.5
t-197.5 -69.5q-121 0 -198 69t-82 183h120q11 -135 162 -135q64 0 110 36.5t55 98.5h122z" />
    <glyph glyph-name="obreve" unicode="&#x14f;" 
d="M608 -24q-227 0 -362.5 143.5t-135.5 380.5q0 258 141 403t381 145q229 0 357.5 -141t128.5 -391q0 -245 -138.5 -392.5t-371.5 -147.5zM620 910q-158 0 -250 -107.5t-92 -296.5q0 -182 93 -287t249 -105q159 0 244.5 103t85.5 293q0 192 -85.5 296t-244.5 104zM899 1470
q-10 -113 -91.5 -182.5t-197.5 -69.5q-121 0 -198 69t-82 183h120q11 -135 162 -135q64 0 110 36.5t55 98.5h122z" />
    <glyph glyph-name="Ohungarumlaut" unicode="&#x150;" 
d="M611 -24q-258 0 -391 201t-133 523q0 346 136 552t408 206q249 0 380.5 -200t131.5 -523q0 -351 -134.5 -555t-397.5 -204zM618 1306q-187 0 -271 -163t-84 -428t81 -426.5t266 -161.5q197 0 277 154t80 431q0 284 -78.5 439t-270.5 155zM1058 1886l-245 -318h-107
l169 318h183zM731 1886l-240 -318h-106l166 318h180z" />
    <glyph glyph-name="ohungarumlaut" unicode="&#x151;" 
d="M608 -24q-227 0 -362.5 143.5t-135.5 380.5q0 258 141 403t381 145q229 0 357.5 -141t128.5 -391q0 -245 -138.5 -392.5t-371.5 -147.5zM620 910q-158 0 -250 -107.5t-92 -296.5q0 -182 93 -287t249 -105q159 0 244.5 103t85.5 293q0 192 -85.5 296t-244.5 104z
M1058 1536l-245 -318h-107l169 318h183zM731 1536l-240 -318h-106l166 318h180z" />
    <glyph glyph-name="OE" unicode="&#x152;" 
d="M1224 0h-521q-10 0 -90 -14q-64 -10 -118 -10q-203 0 -321.5 201t-118.5 523q0 346 123.5 552t334.5 206q59 0 116 -10q73 -14 74 -14h489v-152h-361v-477h319v-151h-319v-502h393v-152zM663 160v1118q-89 28 -148 28q-127 0 -205.5 -166t-78.5 -425q0 -258 77.5 -423
t202.5 -165q64 0 152 33z" />
    <glyph glyph-name="oe" unicode="&#x153;" 
d="M1199 471h-465q2 -171 62 -264t165 -93q119 0 217 114v-154q-98 -98 -257 -98q-194 0 -274 237h-3q-88 -237 -279 -237q-154 0 -244.5 143t-90.5 379q0 258 96 404t259 146q199 0 272 -235h3q80 235 260 235q132 0 205.5 -131.5t73.5 -357.5v-88zM1031 610
q-1 142 -36.5 221t-97.5 79q-64 0 -108 -85.5t-53 -214.5h295zM387 910q-87 0 -138 -108.5t-51 -299.5q0 -180 51 -284t137 -104q88 0 136 102.5t48 291.5q0 194 -48 298t-135 104z" />
    <glyph glyph-name="Racute" unicode="&#x154;" 
d="M1228 0h-200l-240 402q-33 56 -64 95.5t-63.5 64.5t-70 36.5t-84.5 11.5h-138v-610h-168v1434h428q94 0 173.5 -23.5t138 -71.5t91.5 -119.5t33 -167.5q0 -75 -22.5 -137.5t-64 -111.5t-100 -83.5t-131.5 -53.5v-4q36 -16 62.5 -36.5t50.5 -48.5t47.5 -63.5l52.5 -82.5z
M368 1282v-520h228q63 0 116.5 19t92.5 54.5t61 87t22 115.5q0 115 -74.5 179.5t-215.5 64.5h-230zM940 1894l-302 -328h-127l223 328h206z" />
    <glyph glyph-name="racute" unicode="&#x155;" 
d="M1045 858q-70 33 -202 33q-172 0 -287 -99t-115 -270v-522h-164v1024h164v-211h4q57 108 175 168.5t264 60.5q105 0 161 -14v-170zM940 1546l-302 -328h-127l223 328h206z" />
    <glyph glyph-name="Rcommaaccent" unicode="&#x156;" 
d="M1228 0h-200l-240 402q-33 56 -64 95.5t-63.5 64.5t-70 36.5t-84.5 11.5h-138v-610h-168v1434h428q94 0 173.5 -23.5t138 -71.5t91.5 -119.5t33 -167.5q0 -75 -22.5 -137.5t-64 -111.5t-100 -83.5t-131.5 -53.5v-4q36 -16 62.5 -36.5t50.5 -48.5t47.5 -63.5l52.5 -82.5z
M368 1282v-520h228q63 0 116.5 19t92.5 54.5t61 87t22 115.5q0 115 -74.5 179.5t-215.5 64.5h-230zM759 -119l-166 -290h-123l87 290h202z" />
    <glyph glyph-name="rcommaaccent" unicode="&#x157;" 
d="M1045 858q-70 33 -202 33q-172 0 -287 -99t-115 -270v-522h-164v1024h164v-211h4q57 108 175 168.5t264 60.5q105 0 161 -14v-170zM452 -119l-166 -290h-123l87 290h202z" />
    <glyph glyph-name="Rcaron" unicode="&#x158;" 
d="M1228 0h-200l-240 402q-33 56 -64 95.5t-63.5 64.5t-70 36.5t-84.5 11.5h-138v-610h-168v1434h428q94 0 173.5 -23.5t138 -71.5t91.5 -119.5t33 -167.5q0 -75 -22.5 -137.5t-64 -111.5t-100 -83.5t-131.5 -53.5v-4q36 -16 62.5 -36.5t50.5 -48.5t47.5 -63.5l52.5 -82.5z
M368 1282v-520h228q63 0 116.5 19t92.5 54.5t61 87t22 115.5q0 115 -74.5 179.5t-215.5 64.5h-230zM915 1896l-234 -330h-132l-236 330h135l164 -209l164 209h139z" />
    <glyph glyph-name="rcaron" unicode="&#x159;" 
d="M1045 858q-70 33 -202 33q-172 0 -287 -99t-115 -270v-522h-164v1024h164v-211h4q57 108 175 168.5t264 60.5q105 0 161 -14v-170zM915 1548l-234 -330h-132l-236 330h135l164 -209l164 209h139z" />
    <glyph glyph-name="Sacute" unicode="&#x15a;" 
d="M151 58v198q37 -30 88.5 -54t108.5 -40.5t114.5 -25.5t106.5 -9q169 0 252 57.5t83 165.5q0 58 -27.5 101t-76.5 78.5t-116 68l-144 68.5q-82 38 -152.5 77t-122.5 86t-82 106.5t-30 139.5q0 98 46 170.5t121.5 119.5t171.5 70t196 23q206 0 332 -57v-183
q-139 88 -357 88q-60 0 -120.5 -11.5t-107.5 -37.5t-76.5 -67t-29.5 -100q0 -55 22.5 -95t66 -73t105.5 -64t144 -68q84 -38 159 -80t131.5 -93t89.5 -113t33 -142q0 -106 -44.5 -179.5t-119.5 -119.5t-173.5 -66.5t-207.5 -20.5q-37 0 -90 5.5t-109 16t-105.5 26
t-79.5 34.5zM940 1893l-302 -328h-127l223 328h206z" />
    <glyph glyph-name="sacute" unicode="&#x15b;" 
d="M225 37v176q160 -99 353 -99q258 0 258 144q0 41 -22 69.5t-60 50.5t-88.5 39.5l-109.5 36.5q-81 27 -143 54.5t-103 62t-62 78.5t-21 103q0 72 34.5 127.5t93 93t132.5 56.5t153 19q179 0 321 -48v-166q-137 74 -316 74q-56 0 -101 -10.5t-77.5 -29.5t-50 -45t-17.5 -58
q0 -40 17.5 -67t51 -48t81 -38l108.5 -37q82 -26 146.5 -53.5t110 -61.5t68 -79t22.5 -107q0 -76 -34.5 -132t-91.5 -93t-132.5 -55t-158.5 -18q-209 0 -362 61zM940 1546l-302 -328h-127l223 328h206z" />
    <glyph glyph-name="Scircumflex" unicode="&#x15c;" 
d="M151 58v198q37 -30 88.5 -54t108.5 -40.5t114.5 -25.5t106.5 -9q169 0 252 57.5t83 165.5q0 58 -27.5 101t-76.5 78.5t-116 68l-144 68.5q-82 38 -152.5 77t-122.5 86t-82 106.5t-30 139.5q0 98 46 170.5t121.5 119.5t171.5 70t196 23q206 0 332 -57v-183
q-139 88 -357 88q-60 0 -120.5 -11.5t-107.5 -37.5t-76.5 -67t-29.5 -100q0 -55 22.5 -95t66 -73t105.5 -64t144 -68q84 -38 159 -80t131.5 -93t89.5 -113t33 -142q0 -106 -44.5 -179.5t-119.5 -119.5t-173.5 -66.5t-207.5 -20.5q-37 0 -90 5.5t-109 16t-105.5 26
t-79.5 34.5zM916 1566h-142l-164 210l-165 -210h-133l215 332h173z" />
    <glyph glyph-name="scircumflex" unicode="&#x15d;" 
d="M225 37v176q160 -99 353 -99q258 0 258 144q0 41 -22 69.5t-60 50.5t-88.5 39.5l-109.5 36.5q-81 27 -143 54.5t-103 62t-62 78.5t-21 103q0 72 34.5 127.5t93 93t132.5 56.5t153 19q179 0 321 -48v-166q-137 74 -316 74q-56 0 -101 -10.5t-77.5 -29.5t-50 -45t-17.5 -58
q0 -40 17.5 -67t51 -48t81 -38l108.5 -37q82 -26 146.5 -53.5t110 -61.5t68 -79t22.5 -107q0 -76 -34.5 -132t-91.5 -93t-132.5 -55t-158.5 -18q-209 0 -362 61zM916 1218h-142l-164 210l-165 -210h-133l215 332h173z" />
    <glyph glyph-name="Scedilla" unicode="&#x15e;" 
d="M151 58v198q37 -30 88.5 -54t108.5 -40.5t114.5 -25.5t106.5 -9q169 0 252 57.5t83 165.5q0 58 -27.5 101t-76.5 78.5t-116 68l-144 68.5q-82 38 -152.5 77t-122.5 86t-82 106.5t-30 139.5q0 98 46 170.5t121.5 119.5t171.5 70t196 23q206 0 332 -57v-183
q-139 88 -357 88q-60 0 -120.5 -11.5t-107.5 -37.5t-76.5 -67t-29.5 -100q0 -55 22.5 -95t66 -73t105.5 -64t144 -68q84 -38 159 -80t131.5 -93t89.5 -113t33 -142q0 -106 -44.5 -179.5t-119.5 -119.5t-173.5 -66.5t-207.5 -20.5q-37 0 -90 5.5t-109 16t-105.5 26
t-79.5 34.5zM825 -256q0 -176 -275 -176q-38 0 -65 2v90q43 -6 70 -6q141 0 141 90q0 78 -129 78q-10 0 -41 -4v182h108v-104q88 0 139.5 -40t51.5 -112z" />
    <glyph glyph-name="scedilla" unicode="&#x15f;" 
d="M225 37v176q160 -99 353 -99q258 0 258 144q0 41 -22 69.5t-60 50.5t-88.5 39.5l-109.5 36.5q-81 27 -143 54.5t-103 62t-62 78.5t-21 103q0 72 34.5 127.5t93 93t132.5 56.5t153 19q179 0 321 -48v-166q-137 74 -316 74q-56 0 -101 -10.5t-77.5 -29.5t-50 -45t-17.5 -58
q0 -40 17.5 -67t51 -48t81 -38l108.5 -37q82 -26 146.5 -53.5t110 -61.5t68 -79t22.5 -107q0 -76 -34.5 -132t-91.5 -93t-132.5 -55t-158.5 -18q-209 0 -362 61zM834 -256q0 -176 -275 -176q-38 0 -65 2v90q43 -6 70 -6q141 0 141 90q0 78 -129 78q-10 0 -41 -4v182h108
v-104q88 0 139.5 -40t51.5 -112z" />
    <glyph glyph-name="Scaron" unicode="&#x160;" 
d="M151 58v198q37 -30 88.5 -54t108.5 -40.5t114.5 -25.5t106.5 -9q169 0 252 57.5t83 165.5q0 58 -27.5 101t-76.5 78.5t-116 68l-144 68.5q-82 38 -152.5 77t-122.5 86t-82 106.5t-30 139.5q0 98 46 170.5t121.5 119.5t171.5 70t196 23q206 0 332 -57v-183
q-139 88 -357 88q-60 0 -120.5 -11.5t-107.5 -37.5t-76.5 -67t-29.5 -100q0 -55 22.5 -95t66 -73t105.5 -64t144 -68q84 -38 159 -80t131.5 -93t89.5 -113t33 -142q0 -106 -44.5 -179.5t-119.5 -119.5t-173.5 -66.5t-207.5 -20.5q-37 0 -90 5.5t-109 16t-105.5 26
t-79.5 34.5zM915 1898l-234 -330h-132l-236 330h135l164 -209l164 209h139z" />
    <glyph glyph-name="scaron" unicode="&#x161;" 
d="M225 37v176q160 -99 353 -99q258 0 258 144q0 41 -22 69.5t-60 50.5t-88.5 39.5l-109.5 36.5q-81 27 -143 54.5t-103 62t-62 78.5t-21 103q0 72 34.5 127.5t93 93t132.5 56.5t153 19q179 0 321 -48v-166q-137 74 -316 74q-56 0 -101 -10.5t-77.5 -29.5t-50 -45t-17.5 -58
q0 -40 17.5 -67t51 -48t81 -38l108.5 -37q82 -26 146.5 -53.5t110 -61.5t68 -79t22.5 -107q0 -76 -34.5 -132t-91.5 -93t-132.5 -55t-158.5 -18q-209 0 -362 61zM915 1548l-234 -330h-132l-236 330h135l164 -209l164 209h139z" />
    <glyph glyph-name="Tcommaaccent" unicode="&#x162;" 
d="M1142 1282h-444v-1282h-168v1282h-443v152h1055v-152zM828 -256q0 -176 -275 -176q-38 0 -65 2v90q43 -6 70 -6q141 0 141 90q0 78 -129 78q-10 0 -41 -4v182h108v-104q88 0 139.5 -40t51.5 -112z" />
    <glyph glyph-name="tcommaaccent" unicode="&#x163;" 
d="M1009 10q-85 -32 -223 -32q-393 0 -393 388v518h-203v140h203v250l164 53v-303h449v-140h-449v-538q0 -124 61.5 -177t203.5 -53q108 0 187 34v-140zM925 -256q0 -176 -275 -176q-38 0 -65 2v90q43 -6 70 -6q141 0 141 90q0 78 -129 78q-10 0 -41 -4v182h108v-104
q88 0 139.5 -40t51.5 -112z" />
    <glyph glyph-name="Tcaron" unicode="&#x164;" 
d="M1142 1282h-444v-1282h-168v1282h-443v152h1055v-152zM915 1896l-234 -330h-132l-236 330h135l164 -209l164 209h139z" />
    <glyph glyph-name="tcaron" unicode="&#x165;" 
d="M1009 10q-85 -32 -223 -32q-393 0 -393 388v518h-203v140h203v250l164 53v-303h449v-140h-449v-538q0 -124 61.5 -177t203.5 -53q108 0 187 34v-140zM1134 1491l-166 -290h-123l87 290h202z" />
    <glyph glyph-name="Tbar" unicode="&#x166;" 
d="M1142 1282h-444v-486h246v-155h-246v-641h-168v641h-249v155h249v486h-443v152h1055v-152z" />
    <glyph glyph-name="tbar" unicode="&#x167;" 
d="M959 547h-402v-201q0 -124 60.5 -177t204.5 -53q105 0 187 34v-140q-85 -32 -223 -32q-393 0 -393 388v181h-202v133h202v204h-203v140h203v250q4 2 82 27l82 26v-303h449v-140h-449v-204h402v-133z" />
    <glyph glyph-name="Utilde" unicode="&#x168;" 
d="M1093 580q0 -604 -489 -604q-468 0 -468 581v877h168v-866q0 -441 316 -441q305 0 305 426v881h168v-854zM935 1806q0 -105 -48 -171.5t-130 -66.5q-71 0 -162 52q-77 43 -119 43q-88 0 -88 -113h-94q0 107 48 171.5t134 64.5q65 0 149 -52q74 -44 128 -44q84 0 84 116
h98z" />
    <glyph glyph-name="utilde" unicode="&#x169;" 
d="M1059 0h-164v162h-4q-108 -186 -335 -186q-387 0 -387 436v612h164v-586q0 -324 266 -324q129 0 212.5 88.5t83.5 231.5v590h164v-1024zM935 1458q0 -105 -48 -171.5t-130 -66.5q-71 0 -162 52q-77 43 -119 43q-88 0 -88 -113h-94q0 107 48 171.5t134 64.5q65 0 149 -52
q74 -44 128 -44q84 0 84 116h98z" />
    <glyph glyph-name="Umacron" unicode="&#x16a;" 
d="M1093 580q0 -604 -489 -604q-468 0 -468 581v877h168v-866q0 -441 316 -441q305 0 305 426v881h168v-854zM868 1566h-508v109h508v-109z" />
    <glyph glyph-name="umacron" unicode="&#x16b;" 
d="M1059 0h-164v162h-4q-108 -186 -335 -186q-387 0 -387 436v612h164v-586q0 -324 266 -324q129 0 212.5 88.5t83.5 231.5v590h164v-1024zM868 1218h-508v109h508v-109z" />
    <glyph glyph-name="Ubreve" unicode="&#x16c;" 
d="M1093 580q0 -604 -489 -604q-468 0 -468 581v877h168v-866q0 -441 316 -441q305 0 305 426v881h168v-854zM899 1818q-10 -113 -91.5 -182.5t-197.5 -69.5q-121 0 -198 69t-82 183h120q11 -135 162 -135q64 0 110 36.5t55 98.5h122z" />
    <glyph glyph-name="ubreve" unicode="&#x16d;" 
d="M1059 0h-164v162h-4q-108 -186 -335 -186q-387 0 -387 436v612h164v-586q0 -324 266 -324q129 0 212.5 88.5t83.5 231.5v590h164v-1024zM899 1470q-10 -113 -91.5 -182.5t-197.5 -69.5q-121 0 -198 69t-82 183h120q11 -135 162 -135q64 0 110 36.5t55 98.5h122z" />
    <glyph glyph-name="Uring" unicode="&#x16e;" 
d="M1093 580q0 -604 -489 -604q-468 0 -468 581v877h168v-866q0 -441 316 -441q305 0 305 426v881h168v-854zM610 1567q-87 0 -144.5 52.5t-57.5 137.5q0 90 59 144t150 54q89 0 146 -54t57 -138t-61 -140t-149 -56zM610 1874q-48 0 -80 -32.5t-32 -80.5q0 -112 112 -112
q50 0 83 32t33 80q0 49 -33 81t-83 32z" />
    <glyph glyph-name="uring" unicode="&#x16f;" 
d="M1059 0h-164v162h-4q-108 -186 -335 -186q-387 0 -387 436v612h164v-586q0 -324 266 -324q129 0 212.5 88.5t83.5 231.5v590h164v-1024zM610 1176q-87 0 -144.5 52.5t-57.5 137.5q0 90 59 144t150 54q89 0 146 -54t57 -138t-61 -140t-149 -56zM610 1483q-48 0 -80 -32.5
t-32 -80.5q0 -112 112 -112q50 0 83 32t33 80q0 49 -33 81t-83 32z" />
    <glyph glyph-name="Uhungarumlaut" unicode="&#x170;" 
d="M1093 580q0 -604 -489 -604q-468 0 -468 581v877h168v-866q0 -441 316 -441q305 0 305 426v881h168v-854zM1058 1884l-245 -318h-107l169 318h183zM731 1884l-240 -318h-106l166 318h180z" />
    <glyph glyph-name="uhungarumlaut" unicode="&#x171;" 
d="M1059 0h-164v162h-4q-108 -186 -335 -186q-387 0 -387 436v612h164v-586q0 -324 266 -324q129 0 212.5 88.5t83.5 231.5v590h164v-1024zM1058 1536l-245 -318h-107l169 318h183zM731 1536l-240 -318h-106l166 318h180z" />
    <glyph glyph-name="Uogonek" unicode="&#x172;" 
d="M1093 580q0 -604 -489 -604q-468 0 -468 581v877h168v-866q0 -441 316 -441q305 0 305 426v881h168v-854zM775 0q-150 -141 -150 -223q0 -70 105 -70q47 0 87 13v-107q-38 -13 -104 -13q-97 0 -155.5 40t-58.5 110q0 122 157 250h119z" />
    <glyph glyph-name="uogonek" unicode="&#x173;" 
d="M1059 0h-164v162h-4q-108 -186 -335 -186q-387 0 -387 436v612h164v-586q0 -324 266 -324q129 0 212.5 88.5t83.5 231.5v590h164v-1024zM1016 0q-150 -141 -150 -223q0 -70 105 -70q47 0 87 13v-107q-38 -13 -104 -13q-97 0 -155.5 40t-58.5 110q0 122 157 250h119z" />
    <glyph glyph-name="Wcircumflex" unicode="&#x174;" 
d="M1246 1434l-225 -1434h-187l-180 997q-19 127 -23 206h-4q-6 -74 -26 -204l-192 -999h-185l-240 1434h155l155 -1040q19 -129 24 -204h5q8 78 31 204l197 1040h161l184 -1048q16 -117 24 -194h4q8 76 27 198l143 1044h152zM916 1566h-142l-164 210l-165 -210h-133
l215 332h173z" />
    <glyph glyph-name="wcircumflex" unicode="&#x175;" 
d="M1231 1024l-247 -1024h-170l-171 733q-13 61 -16 95h-4q-7 -35 -21 -93l-189 -735h-164l-250 1024h162l162 -740q10 -65 14 -122h8q3 44 18 124l196 738h150l172 -752q10 -57 15 -112h8q2 39 17 112l158 752h152zM916 1218h-142l-164 210l-165 -210h-133l215 332h173z
" />
    <glyph glyph-name="Ycircumflex" unicode="&#x176;" 
d="M1205 1434l-513 -904v-530h-168v526l-501 908h191l361 -668q20 -36 35 -88h3q10 41 38 88l376 668h178zM916 1565h-142l-164 210l-165 -210h-133l215 332h173z" />
    <glyph glyph-name="ycircumflex" unicode="&#x177;" 
d="M1128 1024l-483 -1147q-41 -97 -88 -165t-99 -111t-109 -63t-117 -20q-74 0 -120 13v147q63 -18 116 -18q33 0 64 9.5t61 32.5t59.5 62t57.5 98l65 134l-434 1028h182l307 -788q11 -31 21 -78h6q9 42 24 81l317 785h170zM916 1218h-142l-164 210l-165 -210h-133l215 332
h173z" />
    <glyph glyph-name="Ydieresis" unicode="&#x178;" 
d="M1205 1434l-513 -904v-530h-168v526l-501 908h191l361 -668q20 -36 35 -88h3q10 41 38 88l376 668h178zM847 1545q-48 0 -83 33.5t-35 85.5q0 50 33.5 84t81.5 34q51 0 85.5 -34.5t34.5 -83.5t-33.5 -84t-83.5 -35zM386 1545q-51 0 -86 35.5t-35 83.5q0 50 34 84t83 34
t85 -34.5t36 -83.5t-34.5 -84t-82.5 -35z" />
    <glyph glyph-name="Zacute" unicode="&#x179;" 
d="M1160 1394l-840 -1242h820v-152h-1071v47l833 1235h-766v152h1024v-40zM940 1895l-302 -328h-127l223 328h206z" />
    <glyph glyph-name="zacute" unicode="&#x17a;" 
d="M1053 977l-646 -837h640v-140h-881v51l646 833h-589v140h830v-47zM940 1546l-302 -328h-127l223 328h206z" />
    <glyph glyph-name="Zdotaccent" unicode="&#x17b;" 
d="M1160 1394l-840 -1242h820v-152h-1071v47l833 1235h-766v152h1024v-40zM613 1611q-53 0 -90 36t-37 91t37 91.5t90 36.5q54 0 91.5 -36.5t37.5 -91.5q0 -53 -37.5 -90t-91.5 -37z" />
    <glyph glyph-name="zdotaccent" unicode="&#x17c;" 
d="M1053 977l-646 -837h640v-140h-881v51l646 833h-589v140h830v-47zM613 1263q-53 0 -90 36t-37 91t37 91.5t90 36.5q54 0 91.5 -36.5t37.5 -91.5q0 -53 -37.5 -90t-91.5 -37z" />
    <glyph glyph-name="Zcaron" unicode="&#x17d;" 
d="M1160 1394l-840 -1242h820v-152h-1071v47l833 1235h-766v152h1024v-40zM915 1895l-234 -330h-132l-236 330h135l164 -209l164 209h139z" />
    <glyph glyph-name="zcaron" unicode="&#x17e;" 
d="M1053 977l-646 -837h640v-140h-881v51l646 833h-589v140h830v-47zM915 1548l-234 -330h-132l-236 330h135l164 -209l164 209h139z" />
    <glyph glyph-name="longs" unicode="&#x17f;" 
d="M988 1372q-71 27 -183 27q-249 0 -249 -262v-1137h-164v1145q0 178 114 285.5t323 107.5q99 0 158 -18z" />
    <glyph glyph-name="florin" unicode="&#x192;" 
d="M1104 1266q-59 28 -132 28q-178 0 -207 -160l-31 -208h206v-138h-227l-90 -648q-67 -418 -403 -418q-36 0 -104 16v143q45 -21 108 -21q187 0 237 292l91 636h-183v138h204l28 219q19 131 118.5 210t252.5 79q73 0 132 -19v-149z" />
    <glyph glyph-name="Aringacute" unicode="&#x1fa;" 
d="M1213 0h-186l-134 402h-558l-131 -402h-187l510 1434h174zM842 553l-207 615q-11 30 -22 96h-4q-10 -61 -23 -96l-202 -615h458zM610 1352q-87 0 -144.5 52.5t-57.5 137.5q0 90 59 144t150 54q89 0 146 -54t57 -138t-61 -140t-149 -56zM610 1659q-48 0 -80 -32.5
t-32 -80.5q0 -112 112 -112q50 0 83 32t33 80q0 49 -33 81t-83 32zM940 2130l-302 -328h-127l223 328h206z" />
    <glyph glyph-name="aringacute" unicode="&#x1fb;" 
d="M1025 0h-164v160h-4q-121 -184 -355 -184q-172 0 -269 81t-97 215q0 287 380 334l345 43q0 261 -242 261q-212 0 -383 -126v168q168 96 387 96q402 0 402 -382v-666zM861 518l-288 -34q-134 -16 -201.5 -56.5t-67.5 -143.5q0 -75 62.5 -122.5t166.5 -47.5q142 0 235 85.5
t93 216.5v102zM618 1115q-87 0 -144.5 52.5t-57.5 137.5q0 90 59 144t150 54q89 0 146 -54t57 -138t-61 -140t-149 -56zM618 1422q-48 0 -80 -32.5t-32 -80.5q0 -112 112 -112q50 0 83 32t33 80q0 49 -33 81t-83 32zM964 1894l-302 -328h-127l223 328h206z" />
    <glyph glyph-name="AEacute" unicode="&#x1fc;" 
d="M1224 0h-605v402h-324l-109 -402h-186l421 1434h770v-152h-405v-477h365v-151h-365v-502h438v-152zM619 553v729h-91l-191 -729h282zM1069 1894l-302 -328h-127l223 328h206z" />
    <glyph glyph-name="aeacute" unicode="&#x1fd;" 
d="M1199 471h-497q2 -171 66 -264t176 -93q129 0 234 114v-154q-101 -98 -274 -98q-207 0 -294 226h-3q-118 -229 -315 -229q-117 0 -188 80.5t-71 218.5q0 300 306 324l201 16q0 298 -172 298q-140 0 -263 -122v164q123 96 289 96q193 0 250 -200h3q82 200 252 200
q143 0 221.5 -130.5t78.5 -362.5v-84zM1031 610q-1 144 -40.5 222t-109.5 78q-68 0 -117 -82t-60 -218h327zM540 410v63l-145 -12q-99 -8 -148 -49t-49 -136q0 -73 38 -117.5t102 -44.5q85 0 143.5 84.5t58.5 211.5zM940 1546l-302 -328h-127l223 328h206z" />
    <glyph glyph-name="Oslashacute" unicode="&#x1fe;" 
d="M611 -24q-238 0 -369 170l-152 -197l-93 70l180 233q-90 183 -90 448q0 346 136 552t408 206q224 0 353 -162l151 195l93 -68l-179 -231q94 -185 94 -457q0 -351 -134.5 -555t-397.5 -204zM610 127q197 0 277 154t80 431q0 193 -37 326l-583 -756q81 -155 263 -155z
M618 1306q-187 0 -271 -163t-84 -428q0 -176 35 -306l584 754q-80 143 -264 143zM940 1894l-302 -328h-127l223 328h206z" />
    <glyph glyph-name="oslashacute" unicode="&#x1ff;" 
d="M608 -24q-195 0 -323 106l-151 -164l-82 78l155 169q-97 134 -97 335q0 258 141 403t381 145q185 0 304 -92l157 170l84 -78l-161 -174q102 -136 102 -358q0 -245 -138.5 -392.5t-371.5 -147.5zM620 114q159 0 244.5 103t85.5 293q0 145 -49 239l-509 -552
q89 -83 228 -83zM620 910q-158 0 -250 -107.5t-92 -296.5q0 -127 45 -216l507 551q-81 69 -210 69zM940 1546l-302 -328h-127l223 328h206z" />
    <glyph glyph-name="afii57929" unicode="&#x2bc;" 
d="M773 1458l-181 -492h-127l77 492h231z" />
    <glyph glyph-name="circumflex" unicode="&#x2c6;" 
d="M916 1218h-142l-164 210l-165 -210h-133l215 332h173z" />
    <glyph glyph-name="caron" unicode="&#x2c7;" 
d="M915 1548l-234 -330h-132l-236 330h135l164 -209l164 209h139z" />
    <glyph glyph-name="uni02C9" unicode="&#x2c9;" 
d="M868 1218h-508v109h508v-109z" />
    <glyph glyph-name="breve" unicode="&#x2d8;" 
d="M899 1470q-10 -113 -91.5 -182.5t-197.5 -69.5q-121 0 -198 69t-82 183h120q11 -135 162 -135q64 0 110 36.5t55 98.5h122z" />
    <glyph glyph-name="dotaccent" unicode="&#x2d9;" 
d="M613 1263q-53 0 -90 36t-37 91t37 91.5t90 36.5q54 0 91.5 -36.5t37.5 -91.5q0 -53 -37.5 -90t-91.5 -37z" />
    <glyph glyph-name="ring" unicode="&#x2da;" 
d="M610 1176q-87 0 -144.5 52.5t-57.5 137.5q0 90 59 144t150 54q89 0 146 -54t57 -138t-61 -140t-149 -56zM610 1483q-48 0 -80 -32.5t-32 -80.5q0 -112 112 -112q50 0 83 32t33 80q0 49 -33 81t-83 32z" />
    <glyph glyph-name="ogonek" unicode="&#x2db;" 
d="M752 0q-150 -141 -150 -223q0 -70 105 -70q47 0 87 13v-107q-38 -13 -104 -13q-97 0 -155.5 40t-58.5 110q0 122 157 250h119z" />
    <glyph glyph-name="tilde" unicode="&#x2dc;" 
d="M935 1458q0 -105 -48 -171.5t-130 -66.5q-71 0 -162 52q-77 43 -119 43q-88 0 -88 -113h-94q0 107 48 171.5t134 64.5q65 0 149 -52q74 -44 128 -44q84 0 84 116h98z" />
    <glyph glyph-name="hungarumlaut" unicode="&#x2dd;" 
d="M1058 1536l-245 -318h-107l169 318h183zM731 1536l-240 -318h-106l166 318h180z" />
    <glyph glyph-name="tonos" unicode="&#x384;" 
d="M829 1537l-175 -363h-114l82 363h207z" />
    <glyph glyph-name="dieresistonos" unicode="&#x385;" 
d="M781 1551l-175 -363h-93l101 363h167zM856 1224q-40 0 -68.5 28t-28.5 70t28.5 70t67.5 28q42 0 71 -28.5t29 -69.5q0 -42 -29 -70t-70 -28zM371 1224q-40 0 -69 28t-29 70t29 70t69 28q41 0 70.5 -28.5t29.5 -69.5q0 -42 -29 -70t-71 -28z" />
    <glyph glyph-name="Alphatonos" unicode="&#x386;" 
d="M1213 0h-186l-134 402h-558l-131 -402h-187l510 1434h174zM842 553l-207 615q-11 30 -22 96h-4q-10 -61 -23 -96l-202 -615h458zM290 1435l-175 -363h-114l82 363h207z" />
    <glyph glyph-name="Epsilontonos" unicode="&#x388;" 
d="M1054 0h-840v1434h808v-152h-640v-477h598v-151h-598v-502h672v-152zM196 1435l-175 -363h-114l82 363h207z" />
    <glyph glyph-name="Etatonos" unicode="&#x389;" 
d="M1063 0h-168v654h-562v-654h-168v1434h168v-629h562v629h168v-1434zM146 1435l-175 -363h-114l82 363h207z" />
    <glyph glyph-name="Iotatonos" unicode="&#x38a;" 
d="M1008 1434v-144h-310v-1146h310v-144h-788v144h310v1146h-310v144h788zM201 1435l-175 -363h-114l82 363h207z" />
    <glyph glyph-name="Omicrontonos" unicode="&#x38c;" 
d="M611 -24q-258 0 -391 201t-133 523q0 346 136 552t408 206q249 0 380.5 -200t131.5 -523q0 -351 -134.5 -555t-397.5 -204zM618 1306q-187 0 -271 -163t-84 -428t81 -426.5t266 -161.5q197 0 277 154t80 431q0 284 -78.5 439t-270.5 155zM145 1435l-175 -363h-114l82 363
h207z" />
    <glyph glyph-name="Upsilontonos" unicode="&#x38e;" 
d="M1205 1434l-513 -904v-530h-168v526l-501 908h191l361 -668q20 -36 35 -88h3q10 41 38 88l376 668h178zM24 1435l-175 -363h-114l82 363h207z" />
    <glyph glyph-name="Omegatonos" unicode="&#x38f;" 
d="M1142 0h-439v147q264 255 264 633q0 245 -98 387.5t-252 142.5q-156 0 -255 -142t-99 -387q0 -378 261 -634v-147h-437v148l292 -1q-292 235 -292 638q0 313 144.5 493t381.5 180q241 0 385 -178.5t144 -493.5q0 -402 -294 -639l294 1v-148zM145 1435l-175 -363h-114
l82 363h207z" />
    <glyph glyph-name="iotadieresistonos" unicode="&#x390;" 
d="M1049 0q-101 -22 -196 -22q-380 2 -380 375v671h165v-663q0 -244 217 -244q91 0 194 18v-135zM792 1551l-175 -363h-93l101 363h167zM867 1224q-40 0 -68.5 28t-28.5 70t28.5 70t67.5 28q42 0 71 -28.5t29 -69.5q0 -42 -29 -70t-70 -28zM382 1224q-40 0 -69 28t-29 70
t29 70t69 28q41 0 70.5 -28.5t29.5 -69.5q0 -42 -29 -70t-71 -28z" />
    <glyph glyph-name="Alpha" unicode="&#x391;" 
d="M1213 0h-186l-134 402h-558l-131 -402h-187l510 1434h174zM842 553l-207 615q-11 30 -22 96h-4q-10 -61 -23 -96l-202 -615h458z" />
    <glyph glyph-name="Beta" unicode="&#x392;" 
d="M193 0v1434h448q186 0 295 -91t109 -237q0 -122 -66 -212t-182 -128v-4q145 -17 232 -109.5t87 -240.5q0 -184 -132 -298t-333 -114h-458zM361 1282v-463h212q138 0 217 66.5t79 187.5q0 209 -275 209h-233zM361 668v-516h268q148 0 229.5 70t81.5 192q0 254 -346 254
h-233z" />
    <glyph glyph-name="Gamma" unicode="&#x393;" 
d="M1115 1278h-704v-1278h-169v1434h873v-156z" />
    <glyph glyph-name="Delta" unicode="&#x394;" 
d="M1175 0h-1121v76l471 1358h174l476 -1358v-76zM976 152l-327 968q-29 91 -38 142h-4q-12 -52 -40 -142l-318 -968h727z" />
    <glyph glyph-name="Epsilon" unicode="&#x395;" 
d="M1054 0h-840v1434h808v-152h-640v-477h598v-151h-598v-502h672v-152z" />
    <glyph glyph-name="Zeta" unicode="&#x396;" 
d="M1160 1394l-840 -1242h820v-152h-1071v47l833 1235h-766v152h1024v-40z" />
    <glyph glyph-name="Eta" unicode="&#x397;" 
d="M1063 0h-168v654h-562v-654h-168v1434h168v-629h562v629h168v-1434z" />
    <glyph glyph-name="Theta" unicode="&#x398;" 
d="M834 638h-437v156h437v-156zM611 -24q-258 0 -391 201t-133 523q0 346 136 552t408 206q249 0 380.5 -200t131.5 -523q0 -351 -134.5 -555t-397.5 -204zM618 1306q-187 0 -271 -163t-84 -428t81 -426.5t266 -161.5q197 0 277 154t80 431q0 284 -78.5 439t-270.5 155z" />
    <glyph glyph-name="Iota" unicode="&#x399;" 
d="M1008 1434v-144h-310v-1146h310v-144h-788v144h310v1146h-310v144h788z" />
    <glyph glyph-name="Kappa" unicode="&#x39a;" 
d="M1202 0h-234l-554 656q-31 37 -38 50h-4v-706h-168v1434h168v-674h4q14 22 38 49l536 625h209l-615 -688z" />
    <glyph glyph-name="Lambda" unicode="&#x39b;" 
d="M1194 0h-187l-364 1133q-15 51 -28 135h-4q-12 -83 -30 -136l-366 -1132h-180l486 1434h190z" />
    <glyph glyph-name="Mu" unicode="&#x39c;" 
d="M1136 0h-157v912q0 164 14 329h-4q-24 -97 -43 -189l-260 -1052h-142l-259 1044l-43 197h-4q8 -151 8 -331v-910h-152v1434h242l210 -841q42 -184 66 -331h6q26 147 69 335l219 837h230v-1434z" />
    <glyph glyph-name="Nu" unicode="&#x39d;" 
d="M1092 0h-196l-548 1073l-46 120h-6q8 -46 8 -197v-996h-168v1434h208l528 -1038q45 -107 58 -143h4q-10 62 -10 211v970h168v-1434z" />
    <glyph glyph-name="Xi" unicode="&#x39e;" 
d="M1072 1274h-916v160h916v-160zM934 648h-639v153h639v-153zM1099 0h-969v162h969v-162z" />
    <glyph glyph-name="Omicron" unicode="&#x39f;" 
d="M611 -24q-258 0 -391 201t-133 523q0 346 136 552t408 206q249 0 380.5 -200t131.5 -523q0 -351 -134.5 -555t-397.5 -204zM618 1306q-187 0 -271 -163t-84 -428t81 -426.5t266 -161.5q197 0 277 154t80 431q0 284 -78.5 439t-270.5 155z" />
    <glyph glyph-name="Pi" unicode="&#x3a0;" 
d="M1063 0h-170v1278h-560v-1278h-169v1434h899v-1434z" />
    <glyph glyph-name="Rho" unicode="&#x3a1;" 
d="M385 542v-542h-168v1434h394q230 0 356.5 -112t126.5 -316t-140.5 -334t-379.5 -130h-189zM385 1282v-588h176q174 0 265.5 79.5t91.5 224.5q0 284 -336 284h-197z" />
    <glyph glyph-name="Sigma" unicode="&#x3a3;" 
d="M1095 0h-962v78l465 660l-423 606v90h858v-155h-613l379 -535l-420 -596h716v-148z" />
    <glyph glyph-name="Tau" unicode="&#x3a4;" 
d="M1142 1282h-444v-1282h-168v1282h-443v152h1055v-152z" />
    <glyph glyph-name="Upsilon" unicode="&#x3a5;" 
d="M1205 1434l-513 -904v-530h-168v526l-501 908h191l361 -668q20 -36 35 -88h3q10 41 38 88l376 668h178z" />
    <glyph glyph-name="Phi" unicode="&#x3a6;" 
d="M693 186v-201h-156v201h-37q-211 0 -341 158t-130 410q0 246 129.5 395t343.5 149h35v149h156v-149h36q214 0 342.5 -149.5t128.5 -394.5q0 -253 -131 -410.5t-339 -157.5h-37zM693 1156v-820h35q144 0 226 110t82 306q0 185 -83.5 294.5t-226.5 109.5h-33zM537 336v820
h-32q-142 0 -227 -109t-85 -296q0 -196 82 -305.5t228 -109.5h34z" />
    <glyph glyph-name="Chi" unicode="&#x3a7;" 
d="M1190 0h-205l-330 549q-15 25 -33 71h-4q-10 -23 -34 -71l-340 -549h-206l480 721l-442 713h206l293 -504q29 -50 51 -100h4q32 66 56 104l305 500h193l-451 -711z" />
    <glyph glyph-name="Psi" unicode="&#x3a8;" 
d="M692 1434v-896h38q241 0 241 366v530h163v-530q0 -267 -108.5 -390.5t-290.5 -123.5h-43v-390h-155v390h-43q-183 0 -290.5 123.5t-107.5 390.5v530h162v-530q0 -366 241 -366h38v896h155z" />
    <glyph glyph-name="Omega" unicode="&#x3a9;" 
d="M1142 0h-439v147q264 255 264 633q0 245 -98 387.5t-252 142.5q-156 0 -255 -142t-99 -387q0 -378 261 -634v-147h-437v148l292 -1q-292 235 -292 638q0 313 144.5 493t381.5 180q241 0 385 -178.5t144 -493.5q0 -402 -294 -639l294 1v-148z" />
    <glyph glyph-name="Iotadieresis" unicode="&#x3aa;" 
d="M1008 1434v-144h-310v-1146h310v-144h-788v144h310v1146h-310v144h788zM847 1546q-48 0 -83 33.5t-35 85.5q0 50 33.5 84t81.5 34q51 0 85.5 -34.5t34.5 -83.5t-33.5 -84t-83.5 -35zM386 1546q-51 0 -86 35.5t-35 83.5q0 50 34 84t83 34t85 -34.5t36 -83.5t-34.5 -84
t-82.5 -35z" />
    <glyph glyph-name="Upsilondieresis" unicode="&#x3ab;" 
d="M1205 1434l-513 -904v-530h-168v526l-501 908h191l361 -668q20 -36 35 -88h3q10 41 38 88l376 668h178zM847 1545q-48 0 -83 33.5t-35 85.5q0 50 33.5 84t81.5 34q51 0 85.5 -34.5t34.5 -83.5t-33.5 -84t-83.5 -35zM386 1545q-51 0 -86 35.5t-35 83.5q0 50 34 84t83 34
t85 -34.5t36 -83.5t-34.5 -84t-82.5 -35z" />
    <glyph glyph-name="alphatonos" unicode="&#x3ac;" 
d="M1180 5q-53 -13 -95 -13q-154 0 -208 293h-4q-148 -309 -414 -309q-186 0 -298 143.5t-112 362.5q0 250 129 408t349 158q126 0 225 -75t150 -211h4l85 262h172l-193 -502q34 -219 72 -297.5t98 -78.5q23 0 40 5v-146zM832 520q-38 190 -116 291t-188 101
q-142 0 -226.5 -121t-84.5 -299q0 -158 71.5 -265t192.5 -107q106 0 192.5 90.5t144.5 266.5zM785 1537l-175 -363h-114l82 363h207z" />
    <glyph glyph-name="epsilontonos" unicode="&#x3ad;" 
d="M1027 22q-147 -47 -369 -47q-221 0 -348.5 82.5t-127.5 219.5q0 93 69.5 161t183.5 89v4q-86 18 -150 82.5t-64 147.5q0 136 122.5 212t327.5 76q165 0 311 -45v-165q-160 71 -337 71q-258 0 -258 -147q0 -75 101 -121t257 -46q91 0 147 4v-146q-89 4 -172 4
q-372 0 -372 -178q0 -75 82.5 -120.5t232.5 -45.5q196 0 364 64v-156zM829 1537l-175 -363h-114l82 363h207z" />
    <glyph glyph-name="etatonos" unicode="&#x3ae;" 
d="M1047 -404h-166v976q0 327 -236 327q-124 0 -204.5 -88.5t-80.5 -223.5v-587h-163v694q0 234 -36 330h168q28 -74 28 -173h4q111 197 340 197q346 0 346 -418v-1034zM829 1537l-175 -363h-114l82 363h207z" />
    <glyph glyph-name="iotatonos" unicode="&#x3af;" 
d="M1049 0q-101 -22 -196 -22q-380 2 -380 375v671h165v-663q0 -244 217 -244q91 0 194 18v-135zM805 1537l-175 -363h-114l82 363h207z" />
    <glyph glyph-name="upsilondieresistonos" unicode="&#x3b0;" 
d="M218 711q0 91 -20.5 133.5t-76.5 42.5q-26 0 -57 -7v138q48 13 95 13q124 0 172.5 -74t48.5 -239v-257q0 -341 269 -341q127 0 197.5 88.5t70.5 278.5q0 270 -93 537h175q83 -250 83 -537q0 -249 -116 -381t-317 -132q-208 0 -319.5 118t-111.5 340v279zM801 1551
l-175 -363h-93l101 363h167zM876 1224q-40 0 -68.5 28t-28.5 70t28.5 70t67.5 28q42 0 71 -28.5t29 -69.5q0 -42 -29 -70t-70 -28zM391 1224q-40 0 -69 28t-29 70t29 70t69 28q41 0 70.5 -28.5t29.5 -69.5q0 -42 -29 -70t-71 -28z" />
    <glyph glyph-name="alpha" unicode="&#x3b1;" 
d="M1180 5q-53 -13 -95 -13q-154 0 -208 293h-4q-148 -309 -414 -309q-186 0 -298 143.5t-112 362.5q0 250 129 408t349 158q126 0 225 -75t150 -211h4l85 262h172l-193 -502q34 -219 72 -297.5t98 -78.5q23 0 40 5v-146zM832 520q-38 190 -116 291t-188 101
q-142 0 -226.5 -121t-84.5 -299q0 -158 71.5 -265t192.5 -107q106 0 192.5 90.5t144.5 266.5z" />
    <glyph glyph-name="beta" unicode="&#x3b2;" 
d="M342 46v-527h-162v1596q0 191 115.5 304t310.5 113q182 0 286.5 -90.5t104.5 -250.5q0 -120 -76.5 -224.5t-198.5 -143.5v-4q181 -29 278.5 -136.5t97.5 -273.5q0 -193 -128 -313.5t-336 -120.5q-160 0 -292 71zM510 741v131q140 17 231 103.5t91 195.5q0 221 -229 221
q-126 0 -193.5 -77t-67.5 -217v-896q150 -87 294 -87q138 0 216 74.5t78 208.5q0 303 -420 343z" />
    <glyph glyph-name="gamma" unicode="&#x3b3;" 
d="M645 -69q0 -320 -4 -412h-175q15 169 15 495q-40 215 -158 515.5t-240 494.5h188q249 -444 343 -881h4q166 244 228.5 415.5t62.5 335.5q0 62 -10 130h171q6 -53 6 -85q0 -134 -30 -263t-93.5 -255.5t-112.5 -197.5z" />
    <glyph glyph-name="delta" unicode="&#x3b4;" 
d="M1014 1470v-183q-168 101 -340 101q-100 0 -160.5 -34.5t-60.5 -92.5q0 -47 52 -99.5t172 -125.5q162 -99 255 -176t141.5 -172.5t48.5 -206.5q0 -233 -141 -369.5t-380 -136.5q-219 0 -356.5 133.5t-137.5 348.5q0 155 106 284t309 217q-238 147 -238 310q0 128 104 197
t286 69q164 0 340 -64zM649 883q-366 -148 -366 -425q0 -157 90.5 -249.5t240.5 -92.5q157 0 250 96t93 257q0 117 -71.5 212.5t-236.5 201.5z" />
    <glyph glyph-name="epsilon" unicode="&#x3b5;" 
d="M1027 22q-147 -47 -369 -47q-221 0 -348.5 82.5t-127.5 219.5q0 93 69.5 161t183.5 89v4q-86 18 -150 82.5t-64 147.5q0 136 122.5 212t327.5 76q165 0 311 -45v-165q-160 71 -337 71q-258 0 -258 -147q0 -75 101 -121t257 -46q91 0 147 4v-146q-89 4 -172 4
q-372 0 -372 -178q0 -75 82.5 -120.5t232.5 -45.5q196 0 364 64v-156z" />
    <glyph glyph-name="zeta" unicode="&#x3b6;" 
d="M1034 -309h-179q98 79 98 156q0 68 -70 99.5t-224 49.5q-454 50 -454 455q0 434 676 928v4h-516v133h683v-135q-673 -517 -673 -927q0 -250 324 -297q237 -35 321 -104.5t84 -180.5q0 -100 -70 -181z" />
    <glyph glyph-name="eta" unicode="&#x3b7;" 
d="M1047 -404h-166v976q0 327 -236 327q-124 0 -204.5 -88.5t-80.5 -223.5v-587h-163v694q0 234 -36 330h168q28 -74 28 -173h4q111 197 340 197q346 0 346 -418v-1034z" />
    <glyph glyph-name="theta" unicode="&#x3b8;" 
d="M604 -24q-233 0 -363 201t-130 565q0 383 135.5 587.5t389.5 204.5q482 0 482 -767q0 -378 -134.5 -584.5t-379.5 -206.5zM948 836q-18 558 -329 558q-150 0 -240 -151.5t-100 -406.5h669zM949 704h-671q5 -287 94 -437.5t246 -150.5q153 0 239.5 152.5t91.5 435.5z" />
    <glyph glyph-name="iota" unicode="&#x3b9;" 
d="M1004 0q-101 -22 -196 -22q-380 2 -380 375v671h165v-663q0 -244 217 -244q91 0 194 18v-135z" />
    <glyph glyph-name="kappa" unicode="&#x3ba;" 
d="M1155 0h-210l-438 481l-138 -115v-366h-164v1024h164v-498l305 312q130 133 192.5 166.5t113.5 33.5q64 0 102 -7v-145q-33 8 -73 8q-73 0 -233 -156l-156 -155z" />
    <glyph glyph-name="lambda" unicode="&#x3bb;" 
d="M1145 0h-177l-279 827l-406 -827h-181l513 1016l-73 191q-67 161 -189 161q-64 0 -144 -19v157q73 12 148 12q127 0 209 -63.5t147 -241.5z" />
    <glyph glyph-name="mu" unicode="&#x3bc;" 
d="M862 174q-88 -198 -287 -198q-155 0 -219 124h-4v-581h-163v1505h163v-624q0 -122 65.5 -199t173.5 -77q116 0 183 88t67 228v584h163v-721q0 -166 122 -166q23 0 40 5v-137q-53 -13 -95 -13q-85 0 -133 44t-70 138h-6z" />
    <glyph glyph-name="nu" unicode="&#x3bd;" 
d="M670 0h-164l-408 1024h181l335 -868q272 343 272 658q0 122 -34 210h177q23 -70 23 -186q0 -378 -382 -838z" />
    <glyph glyph-name="xi" unicode="&#x3be;" 
d="M1009 -316h-179q97 78 97 161q0 59 -52 95.5t-234 56.5q-217 25 -334 132.5t-117 280.5q0 132 81.5 235t231.5 158q-107 29 -164.5 94.5t-57.5 154.5q0 112 96 201t260 128v7q-320 -5 -358 -5v134h686v-137q-235 -31 -376 -113.5t-141 -197.5q0 -71 52.5 -120t134 -69
t134.5 -20q28 0 87 3q58 3 93 3v-150q-56 3 -131 3q-196 0 -327.5 -80.5t-131.5 -215.5q0 -219 320 -264q226 -32 313 -101.5t87 -187.5q0 -105 -70 -186z" />
    <glyph glyph-name="omicron" unicode="&#x3bf;" 
d="M608 -24q-227 0 -362.5 143.5t-135.5 380.5q0 258 141 403t381 145q229 0 357.5 -141t128.5 -391q0 -245 -138.5 -392.5t-371.5 -147.5zM620 910q-158 0 -250 -107.5t-92 -296.5q0 -182 93 -287t249 -105q159 0 244.5 103t85.5 293q0 192 -85.5 296t-244.5 104z" />
    <glyph glyph-name="pi" unicode="&#x3c0;" 
d="M1185 891h-222v-619q0 -140 101 -140q34 0 88 19v-140q-61 -23 -122 -23q-232 0 -232 277v626h-349v-611q0 -192 -32 -280h-167q36 87 36 280v611q-123 -3 -243 -89v150q75 72 245 72h897v-133z" />
    <glyph glyph-name="rho" unicode="&#x3c1;" 
d="M329 99h-4v-495h-163v922q0 247 115 384.5t337 137.5q223 0 357 -147t134 -372q0 -261 -123.5 -407t-344.5 -146q-193 0 -308 123zM325 259q39 -62 121 -102.5t171 -40.5q318 0 318 404q0 170 -89 279t-229 109q-143 0 -217.5 -99t-74.5 -285v-265z" />
    <glyph glyph-name="sigma1" unicode="&#x3c2;" 
d="M989 -316h-181q98 77 98 164q0 39 -21 64t-58.5 41t-89.5 26t-113 19q-101 15 -183.5 46t-140.5 83.5t-89.5 127t-31.5 176.5q0 279 165 449q166 169 423 169q141 0 249 -52v-167q-127 79 -271 79q-171 0 -284 -131q-112 -130 -112 -328q0 -69 19 -118t55.5 -82t90 -53.5
t121.5 -33.5l174 -34t133.5 -44.5t86 -75.5t30.5 -126q0 -53 -17.5 -105.5t-52.5 -93.5z" />
    <glyph glyph-name="sigma" unicode="&#x3c3;" 
d="M1203 892h-252q138 -182 138 -403q0 -227 -130 -370t-349 -143q-225 0 -359.5 143.5t-134.5 382.5q0 522 543 522h544v-132zM804 892h-127q-392 0 -392 -397q0 -172 89 -275.5t237 -103.5q143 0 226.5 104.5t83.5 279.5q0 220 -117 392z" />
    <glyph glyph-name="tau" unicode="&#x3c4;" 
d="M1080 892h-431v-618q0 -142 148 -142q68 0 137 20v-142q-76 -22 -160 -22q-288 0 -288 288v616h-141q-114 0 -236 -88v148q76 72 240 72h731v-132z" />
    <glyph glyph-name="upsilon" unicode="&#x3c5;" 
d="M218 711q0 91 -20.5 133.5t-76.5 42.5q-26 0 -57 -7v138q48 13 95 13q124 0 172.5 -74t48.5 -239v-257q0 -341 269 -341q127 0 197.5 88.5t70.5 278.5q0 270 -93 537h175q83 -250 83 -537q0 -249 -116 -381t-317 -132q-208 0 -319.5 118t-111.5 340v279z" />
    <glyph glyph-name="phi" unicode="&#x3c6;" 
d="M717 -24q-4 -4 -30 0v-458h-148v458q-21 -4 -24 0q-206 0 -328 144t-122 390q0 315 210 514h194q-236 -216 -236 -518q0 -184 77.5 -287t204.5 -103h24v661q0 271 246 271q170 0 275 -148.5t105 -399.5q0 -233 -122.5 -378.5t-325.5 -145.5zM687 116h28q124 0 203 105.5
t79 286.5q0 180 -60 290t-144 110q-106 0 -106 -129v-663z" />
    <glyph glyph-name="chi" unicode="&#x3c7;" 
d="M1155 -470q-43 -9 -92 -9q-90 0 -155 67t-140 239l-159 363l-351 -657h-185l454 824l-174 393q-66 148 -138 148q-48 0 -88 -14v154q34 10 107 10q86 0 139.5 -46t104.5 -166l140 -330l273 518h185l-375 -680l236 -524q68 -150 140 -150q37 0 78 16v-156z" />
    <glyph glyph-name="psi" unicode="&#x3c8;" 
d="M1131 556q0 -298 -116 -438.5t-307 -140.5h-19v-459h-148v459h-19q-192 0 -307.5 140t-115.5 439v468h166v-468q0 -246 73 -340.5t185 -94.5h18v1210h148v-1210h18q110 0 184 94t74 341v468h166v-468z" />
    <glyph glyph-name="omega" unicode="&#x3c9;" 
d="M616 168h-3q-77 -191 -228 -191q-141 0 -220 127.5t-79 351.5q0 258 86 568h183q-103 -319 -103 -574q0 -159 37 -244t104 -85q140 0 140 346v283h164v-283q0 -346 139 -346q66 0 103 85t37 244q0 255 -102 574h182q87 -311 87 -568q0 -225 -79.5 -352t-221.5 -127
q-151 0 -226 191z" />
    <glyph glyph-name="iotadieresis" unicode="&#x3ca;" 
d="M1004 0q-101 -22 -196 -22q-380 2 -380 375v671h165v-663q0 -244 217 -244q91 0 194 18v-135zM763 1183q-48 0 -83 33.5t-35 85.5q0 50 33.5 84t81.5 34q51 0 85.5 -34.5t34.5 -83.5t-33.5 -84t-83.5 -35zM302 1183q-51 0 -86 35.5t-35 83.5q0 50 34 84t83 34t85 -34.5
t36 -83.5t-34.5 -84t-82.5 -35z" />
    <glyph glyph-name="upsilondieresis" unicode="&#x3cb;" 
d="M218 711q0 91 -20.5 133.5t-76.5 42.5q-26 0 -57 -7v138q48 13 95 13q124 0 172.5 -74t48.5 -239v-257q0 -341 269 -341q127 0 197.5 88.5t70.5 278.5q0 270 -93 537h175q83 -250 83 -537q0 -249 -116 -381t-317 -132q-208 0 -319.5 118t-111.5 340v279zM847 1183
q-48 0 -83 33.5t-35 85.5q0 50 33.5 84t81.5 34q51 0 85.5 -34.5t34.5 -83.5t-33.5 -84t-83.5 -35zM386 1183q-51 0 -86 35.5t-35 83.5q0 50 34 84t83 34t85 -34.5t36 -83.5t-34.5 -84t-82.5 -35z" />
    <glyph glyph-name="omicrontonos" unicode="&#x3cc;" 
d="M608 -24q-227 0 -362.5 143.5t-135.5 380.5q0 258 141 403t381 145q229 0 357.5 -141t128.5 -391q0 -245 -138.5 -392.5t-371.5 -147.5zM620 910q-158 0 -250 -107.5t-92 -296.5q0 -182 93 -287t249 -105q159 0 244.5 103t85.5 293q0 192 -85.5 296t-244.5 104zM829 1537
l-175 -363h-114l82 363h207z" />
    <glyph glyph-name="upsilontonos" unicode="&#x3cd;" 
d="M218 711q0 91 -20.5 133.5t-76.5 42.5q-26 0 -57 -7v138q48 13 95 13q124 0 172.5 -74t48.5 -239v-257q0 -341 269 -341q127 0 197.5 88.5t70.5 278.5q0 270 -93 537h175q83 -250 83 -537q0 -249 -116 -381t-317 -132q-208 0 -319.5 118t-111.5 340v279zM808 1537
l-175 -363h-114l82 363h207z" />
    <glyph glyph-name="omegatonos" unicode="&#x3ce;" 
d="M616 168h-3q-77 -191 -228 -191q-141 0 -220 127.5t-79 351.5q0 258 86 568h183q-103 -319 -103 -574q0 -159 37 -244t104 -85q140 0 140 346v283h164v-283q0 -346 139 -346q66 0 103 85t37 244q0 255 -102 574h182q87 -311 87 -568q0 -225 -79.5 -352t-221.5 -127
q-151 0 -226 191zM829 1537l-175 -363h-114l82 363h207z" />
    <glyph glyph-name="uni03DD" unicode="&#x3dd;" 
d="M1027 1236q-48 18 -91.5 32.5t-87 25t-87 16t-91.5 5.5q-77 0 -129.5 -19.5t-85.5 -57.5t-47.5 -95t-14.5 -131v-226h593v-151h-593v-635h-168v1025q0 115 36.5 197.5t96 134.5t136 76.5t157.5 24.5q56 0 105 -4.5t94.5 -13t88.5 -20.5t88 -28v-156z" />
    <glyph glyph-name="afii10023" unicode="&#x401;" 
d="M1054 0h-840v1434h808v-152h-640v-477h598v-151h-598v-502h672v-152zM847 1546q-48 0 -83 33.5t-35 85.5q0 50 33.5 84t81.5 34q51 0 85.5 -34.5t34.5 -83.5t-33.5 -84t-83.5 -35zM386 1546q-51 0 -86 35.5t-35 83.5q0 50 34 84t83 34t85 -34.5t36 -83.5t-34.5 -84
t-82.5 -35z" />
    <glyph glyph-name="afii10051" unicode="&#x402;" 
d="M645 6v154q66 -33 160 -33q97 0 154.5 69.5t57.5 188.5q0 139 -84.5 216t-236.5 77h-189v-678h-168v1282h-319v152h895v-152h-408v-456h193q226 0 357.5 -115t131.5 -324q0 -192 -99.5 -298.5t-280.5 -106.5q-92 0 -164 24z" />
    <glyph glyph-name="afii10052" unicode="&#x403;" 
d="M1115 1278h-704v-1278h-169v1434h873v-156zM940 1894l-302 -328h-127l223 328h206z" />
    <glyph glyph-name="afii10053" unicode="&#x404;" 
d="M1085 60q-140 -84 -348 -84q-269 0 -430.5 197t-161.5 517q0 344 182 556t461 212q179 0 297 -59v-179q-132 86 -291 86q-211 0 -342 -165q-109 -137 -128 -351h573v-151h-575q13 -220 121 -357q123 -155 322 -155q185 0 320 96v-163z" />
    <glyph glyph-name="afii10054" unicode="&#x405;" 
d="M151 58v198q37 -30 88.5 -54t108.5 -40.5t114.5 -25.5t106.5 -9q169 0 252 57.5t83 165.5q0 58 -27.5 101t-76.5 78.5t-116 68l-144 68.5q-82 38 -152.5 77t-122.5 86t-82 106.5t-30 139.5q0 98 46 170.5t121.5 119.5t171.5 70t196 23q206 0 332 -57v-183
q-139 88 -357 88q-60 0 -120.5 -11.5t-107.5 -37.5t-76.5 -67t-29.5 -100q0 -55 22.5 -95t66 -73t105.5 -64t144 -68q84 -38 159 -80t131.5 -93t89.5 -113t33 -142q0 -106 -44.5 -179.5t-119.5 -119.5t-173.5 -66.5t-207.5 -20.5q-37 0 -90 5.5t-109 16t-105.5 26
t-79.5 34.5z" />
    <glyph glyph-name="afii10055" unicode="&#x406;" 
d="M1008 1434v-144h-310v-1146h310v-144h-788v144h310v1146h-310v144h788z" />
    <glyph glyph-name="afii10056" unicode="&#x407;" 
d="M1008 1434v-144h-310v-1146h310v-144h-788v144h310v1146h-310v144h788zM847 1546q-48 0 -83 33.5t-35 85.5q0 50 33.5 84t81.5 34q51 0 85.5 -34.5t34.5 -83.5t-33.5 -84t-83.5 -35zM386 1546q-51 0 -86 35.5t-35 83.5q0 50 34 84t83 34t85 -34.5t36 -83.5t-34.5 -84
t-82.5 -35z" />
    <glyph glyph-name="afii10057" unicode="&#x408;" 
d="M946 514q0 -255 -156 -396.5t-418 -141.5q-121 0 -199 24v166q89 -39 231 -39q374 0 374 385v922h168v-920z" />
    <glyph glyph-name="afii10058" unicode="&#x409;" 
d="M788 825h44q184 0 284.5 -103t100.5 -294q0 -196 -110.5 -312t-303.5 -116h-183v1282h-169q-51 -542 -80 -766t-59 -330t-81.5 -157.5t-123.5 -51.5q-58 0 -100 21v158q33 -29 74 -29t76.5 74t72.5 385t82 848h476v-609zM788 674v-522h12q116 0 178.5 70.5t62.5 195.5
q0 256 -241 256h-12z" />
    <glyph glyph-name="afii10059" unicode="&#x40a;" 
d="M620 0v672h-368v-672h-168v1434h168v-610h368v610h168v-608h47q180 0 281 -103t101 -295q0 -198 -110.5 -313t-301.5 -115h-185zM788 674v-522h15q114 0 176 70.5t62 195.5q0 256 -238 256h-15z" />
    <glyph glyph-name="afii10060" unicode="&#x40b;" 
d="M1181 0h-168v389q0 295 -285 295h-220v-684h-168v1282h-320v152h893v-152h-405v-450h222q451 0 451 -443v-389z" />
    <glyph glyph-name="afii10061" unicode="&#x40c;" 
d="M1202 0h-234l-554 656q-31 37 -38 50h-4v-706h-168v1434h168v-674h4q14 22 38 49l536 625h209l-615 -688zM971 1894l-302 -328h-127l223 328h206z" />
    <glyph glyph-name="afii10062" unicode="&#x40e;" 
d="M1209 1434l-443 -1001q-118 -266 -228 -362t-240 -96q-107 0 -179 31v170q86 -51 166 -51q81 0 149 62.5t147 220.5l-486 1026h191l344 -766q9 -19 37 -93h2q3 9 41 97l319 762h180zM1024 1871q-15 -141 -113.5 -222.5t-246.5 -81.5q-152 0 -247.5 81.5t-104.5 222.5h162
q14 -188 192 -188q80 0 132 49.5t64 138.5h162z" />
    <glyph glyph-name="afii10145" unicode="&#x40f;" 
d="M1063 0h-374v-384h-154v384h-370v1434h168v-1282h562v1282h168v-1434z" />
    <glyph glyph-name="afii10017" unicode="&#x410;" 
d="M1213 0h-186l-134 402h-558l-131 -402h-187l510 1434h174zM842 553l-207 615q-11 30 -22 96h-4q-10 -61 -23 -96l-202 -615h458z" />
    <glyph glyph-name="afii10018" unicode="&#x411;" 
d="M193 0v1434h796v-152h-628v-456h302q214 0 333 -103.5t119 -294.5q0 -198 -125 -313t-341 -115h-456zM361 674v-522h266q149 0 230 70t81 196q0 256 -311 256h-266z" />
    <glyph glyph-name="afii10019" unicode="&#x412;" 
d="M193 0v1434h448q186 0 295 -91t109 -237q0 -122 -66 -212t-182 -128v-4q145 -17 232 -109.5t87 -240.5q0 -184 -132 -298t-333 -114h-458zM361 1282v-463h212q138 0 217 66.5t79 187.5q0 209 -275 209h-233zM361 668v-516h268q148 0 229.5 70t81.5 192q0 254 -346 254
h-233z" />
    <glyph glyph-name="afii10020" unicode="&#x413;" 
d="M1115 1278h-704v-1278h-169v1434h873v-156z" />
    <glyph glyph-name="afii10021" unicode="&#x414;" 
d="M1159 -385h-155v385h-837v-385h-155v537h111q144 263 244.5 614.5t113.5 667.5h535v-1282h143v-537zM848 152v1130h-224q-16 -247 -110 -578t-209 -552h543z" />
    <glyph glyph-name="afii10022" unicode="&#x415;" 
d="M1054 0h-840v1434h808v-152h-640v-477h598v-151h-598v-502h672v-152z" />
    <glyph glyph-name="afii10024" unicode="&#x416;" 
d="M694 0h-159v706h-18l-11.5 -31.5t-14.5 -32.5l-312 -642h-174l378 744l-344 690h168l237 -498q36 -76 52.5 -115t20.5 -57h18v670h159v-670h18q2 9 7 22.5t13.5 34t21.5 49l31 66.5l237 498h168l-344 -690l378 -744h-174l-312 642q-8 15 -14.5 32.5l-11.5 31.5h-18v-706z
" />
    <glyph glyph-name="afii10025" unicode="&#x417;" 
d="M135 60v182q182 -123 413 -123q168 0 267 75t99 202q0 276 -373 276h-149v139h137q159 0 246.5 69t87.5 195q0 108 -79.5 173t-218.5 65q-198 0 -384 -113v170q170 88 391 88q219 0 345 -97t126 -255q0 -279 -272 -352v-4q148 -17 235 -111t87 -233q0 -197 -149.5 -313.5
t-408.5 -116.5t-400 84z" />
    <glyph glyph-name="afii10026" unicode="&#x418;" 
d="M136 1434h168v-980q0 -149 -10 -211h4q13 36 58 143l518 1048h218v-1434h-168v1006q0 151 8 197h-6l-46 -120l-538 -1083h-206v1434z" />
    <glyph glyph-name="afii10027" unicode="&#x419;" 
d="M136 1434h168v-980q0 -149 -10 -211h4q13 36 58 143l518 1048h218v-1434h-168v1006q0 151 8 197h-6l-46 -120l-538 -1083h-206v1434zM970 1869q-15 -141 -113.5 -222.5t-246.5 -81.5q-152 0 -247.5 81.5t-104.5 222.5h162q14 -188 192 -188q80 0 132 49.5t64 138.5h162z
" />
    <glyph glyph-name="afii10028" unicode="&#x41a;" 
d="M1202 0h-234l-554 656q-31 37 -38 50h-4v-706h-168v1434h168v-674h4q14 22 38 49l536 625h209l-615 -688z" />
    <glyph glyph-name="afii10029" unicode="&#x41b;" 
d="M1063 0h-169v1282h-358q-60 -542 -95 -766t-70.5 -330t-96.5 -157.5t-147 -51.5q-68 0 -119 21v158q43 -29 95 -29q51 0 97 74t93 385t105 848h665v-1434z" />
    <glyph glyph-name="afii10030" unicode="&#x41c;" 
d="M1136 0h-157v912q0 164 14 329h-4q-24 -97 -43 -189l-260 -1052h-142l-259 1044l-43 197h-4q8 -151 8 -331v-910h-152v1434h242l210 -841q42 -184 66 -331h6q26 147 69 335l219 837h230v-1434z" />
    <glyph glyph-name="afii10031" unicode="&#x41d;" 
d="M1063 0h-168v654h-562v-654h-168v1434h168v-629h562v629h168v-1434z" />
    <glyph glyph-name="afii10032" unicode="&#x41e;" 
d="M611 -24q-258 0 -391 201t-133 523q0 346 136 552t408 206q249 0 380.5 -200t131.5 -523q0 -351 -134.5 -555t-397.5 -204zM618 1306q-187 0 -271 -163t-84 -428t81 -426.5t266 -161.5q197 0 277 154t80 431q0 284 -78.5 439t-270.5 155z" />
    <glyph glyph-name="afii10033" unicode="&#x41f;" 
d="M1063 0h-170v1278h-560v-1278h-169v1434h899v-1434z" />
    <glyph glyph-name="afii10034" unicode="&#x420;" 
d="M385 542v-542h-168v1434h394q230 0 356.5 -112t126.5 -316t-140.5 -334t-379.5 -130h-189zM385 1282v-588h176q174 0 265.5 79.5t91.5 224.5q0 284 -336 284h-197z" />
    <glyph glyph-name="afii10035" unicode="&#x421;" 
d="M1085 60q-140 -84 -348 -84q-269 0 -430.5 197t-161.5 517q0 344 182 556t461 212q179 0 297 -59v-179q-132 86 -291 86q-211 0 -342 -165t-131 -441q0 -262 122.5 -417.5t321.5 -155.5q185 0 320 96v-163z" />
    <glyph glyph-name="afii10036" unicode="&#x422;" 
d="M1142 1282h-444v-1282h-168v1282h-443v152h1055v-152z" />
    <glyph glyph-name="afii10037" unicode="&#x423;" 
d="M1209 1434l-443 -1001q-118 -266 -228 -362t-240 -96q-107 0 -179 31v170q86 -51 166 -51q81 0 149 62.5t147 220.5l-486 1026h191l344 -766q9 -19 37 -93h2q3 9 41 97l319 762h180z" />
    <glyph glyph-name="afii10038" unicode="&#x424;" 
d="M693 186v-201h-156v201h-37q-211 0 -341 158t-130 410q0 246 129.5 395t343.5 149h35v149h156v-149h36q214 0 342.5 -149.5t128.5 -394.5q0 -253 -131 -410.5t-339 -157.5h-37zM693 1156v-820h35q144 0 226 110t82 306q0 185 -83.5 294.5t-226.5 109.5h-33zM537 336v820
h-32q-142 0 -227 -109t-85 -296q0 -196 82 -305.5t228 -109.5h34z" />
    <glyph glyph-name="afii10039" unicode="&#x425;" 
d="M1190 0h-205l-330 549q-15 25 -33 71h-4q-10 -23 -34 -71l-340 -549h-206l480 721l-442 713h206l293 -504q29 -50 51 -100h4q32 66 56 104l305 500h193l-451 -711z" />
    <glyph glyph-name="afii10040" unicode="&#x426;" 
d="M1164 -385h-155v385h-844v1434h168v-1282h511v1282h168v-1282h152v-537z" />
    <glyph glyph-name="afii10041" unicode="&#x427;" 
d="M1063 0h-168v645q-216 -121 -403 -121q-177 0 -274 97.5t-97 273.5v539h168v-531q0 -231 229 -231q166 0 377 110v652h168v-1434z" />
    <glyph glyph-name="afii10042" unicode="&#x428;" 
d="M1147 0h-1065v1434h168v-1282h281v1282h167v-1282h281v1282h168v-1434z" />
    <glyph glyph-name="afii10043" unicode="&#x429;" 
d="M1200 -385h-155v385h-963v1434h168v-1282h281v1282h168v-1282h280v1282h168v-1282h53v-537z" />
    <glyph glyph-name="afii10044" unicode="&#x42a;" 
d="M385 0v1280h-343v154h511v-608h133q213 0 332 -103t119 -295q0 -198 -125 -313t-341 -115h-286zM553 674v-522h96q149 0 230.5 70.5t81.5 195.5q0 256 -312 256h-96z" />
    <glyph glyph-name="afii10045" unicode="&#x42b;" 
d="M1108 0h-168v1434h168v-1434zM121 0v1434h168v-608h72q214 0 333 -103.5t119 -294.5q0 -198 -125 -313t-341 -115h-226zM289 674v-522h36q149 0 230 70t81 196q0 256 -311 256h-36z" />
    <glyph glyph-name="afii10046" unicode="&#x42c;" 
d="M215 0v1434h168v-608h272q214 0 333 -103.5t119 -294.5q0 -198 -125 -313t-341 -115h-426zM383 674v-522h236q149 0 230 70t81 196q0 256 -311 256h-236z" />
    <glyph glyph-name="afii10047" unicode="&#x42d;" 
d="M145 60v163q135 -96 329 -96q184 0 301.5 135.5t131.5 376.5h-565v151h563q-22 245 -139 380.5t-303 135.5q-175 0 -318 -86v176q136 62 326 62q273 0 443.5 -207.5t170.5 -554.5q0 -319 -164 -519.5t-431 -200.5q-205 0 -345 84z" />
    <glyph glyph-name="afii10048" unicode="&#x42e;" 
d="M352 670h-114v-670h-168v1434h168v-613h117q18 300 118 468.5t310 168.5q219 0 317 -197.5t98 -525.5q0 -355 -101 -557t-329 -202q-213 0 -312 190t-104 504zM779 1306q-148 0 -201.5 -156t-53.5 -429q0 -283 50.5 -438.5t193.5 -155.5q152 0 204 153t52 432
q0 288 -50 441t-195 153z" />
    <glyph glyph-name="afii10049" unicode="&#x42f;" 
d="M1029 0h-168v610h-209q-60 0 -105.5 -32.5t-97.5 -145.5l-180 -432h-200l218 479q21 47 64.5 99.5t101.5 74.5v4q-143 31 -222.5 131t-79.5 242q0 183 127.5 293.5t334.5 110.5h416v-1434zM861 762v520h-233q-142 0 -220.5 -67t-78.5 -189t80 -193t215 -71h237z" />
    <glyph glyph-name="afii10065" unicode="&#x430;" 
d="M1025 0h-164v160h-4q-121 -184 -355 -184q-172 0 -269 81t-97 215q0 287 380 334l345 43q0 261 -242 261q-212 0 -383 -126v168q168 96 387 96q402 0 402 -382v-666zM861 518l-288 -34q-134 -16 -201.5 -56.5t-67.5 -143.5q0 -75 62.5 -122.5t166.5 -47.5q142 0 235 85.5
t93 216.5v102z" />
    <glyph glyph-name="afii10066" unicode="&#x431;" 
d="M1042 1528v-154q-47 -30 -150 -45q-253 -34 -354.5 -65.5t-166 -134.5t-82.5 -301h4q125 174 356 174q211 0 340 -139t129 -367q0 -235 -134.5 -377.5t-362.5 -142.5q-246 0 -378.5 167.5t-132.5 478.5q0 242 51 410.5t141.5 253.5t201 117t379.5 75q107 22 159 50z
M278 666v-142q1 -80 25.5 -157t70 -136t108 -88t142.5 -29q145 0 235 102.5t90 262.5q0 176 -92 279.5t-248 103.5q-219 0 -331 -196z" />
    <glyph glyph-name="afii10067" unicode="&#x432;" 
d="M194 0v1024h526q151 0 238.5 -67t87.5 -183q0 -199 -196 -242q235 -30 235 -237q0 -125 -96.5 -210t-239.5 -85h-555zM358 884v-288h326q198 0 198 154q0 134 -178 134h-346zM358 456v-316h364q199 0 199 161q0 155 -223 155h-340z" />
    <glyph glyph-name="afii10068" unicode="&#x433;" 
d="M990 884h-505v-884h-164v1024h669v-140z" />
    <glyph glyph-name="afii10069" unicode="&#x434;" 
d="M1125 -373h-139v373h-802v-373h-140v512h91q262 378 266 885h572v-885h152v-512zM809 139v746h-267q-27 -414 -233 -746h500z" />
    <glyph glyph-name="afii10070" unicode="&#x435;" 
d="M1091 471h-783q4 -171 100.5 -264t264.5 -93q189 0 347 114v-154q-145 -98 -383 -98q-233 0 -366 139.5t-133 392.5q0 239 144.5 389.5t359.5 150.5q214 0 331.5 -130t117.5 -361v-86zM923 610q-1 142 -76 221t-208 79q-128 0 -218 -83t-111 -217h613z" />
    <glyph glyph-name="afii10072" unicode="&#x436;" 
d="M692 526v-526h-156v526h-4l-349 -526h-179l368 528l-337 496h169l328 -489h4v489h156v-489h4l328 489h169l-337 -496l368 -528h-179l-349 526h-4z" />
    <glyph glyph-name="afii10073" unicode="&#x437;" 
d="M181 29v161q162 -75 377 -75q327 0 327 172q0 170 -342 170h-116v139h112q305 0 305 162q0 69 -74 110t-201 41q-184 0 -368 -75v153q200 62 367 62q439 0 439 -275q0 -89 -55.5 -153.5t-185.5 -85.5v-5q144 -9 213 -77t69 -172q0 -140 -131 -223t-361 -83
q-245 0 -375 54z" />
    <glyph glyph-name="afii10074" unicode="&#x438;" 
d="M1063 0h-148v847q-22 -43 -67 -121l-513 -726h-170v1024h150v-837q12 29 52 99l526 738h170v-1024z" />
    <glyph glyph-name="afii10075" unicode="&#x439;" 
d="M1063 0h-148v847q-22 -43 -67 -121l-513 -726h-170v1024h150v-837q12 29 52 99l526 738h170v-1024zM970 1522q-15 -141 -113.5 -222.5t-246.5 -81.5q-152 0 -247.5 81.5t-104.5 222.5h162q14 -188 192 -188q80 0 132 49.5t64 138.5h162z" />
    <glyph glyph-name="afii10076" unicode="&#x43a;" 
d="M1155 0h-230l-532 492h-4v-492h-164v1025h164v-470h4l510 469h215l-545 -494z" />
    <glyph glyph-name="afii10077" unicode="&#x43b;" 
d="M1053 0h-163v885h-368q-41 -497 -140.5 -698t-267.5 -201q-51 0 -88 14v141q35 -18 76 -18q220 0 283 901h668v-1024z" />
    <glyph glyph-name="afii10078" unicode="&#x43c;" 
d="M1107 0h-152v844q-22 -81 -68 -228l-196 -616h-147l-204 616q-21 65 -68 228v-844h-151v1024h216l210 -638l74 -232l73 241l202 629h211v-1024z" />
    <glyph glyph-name="afii10079" unicode="&#x43d;" 
d="M1059 0h-164v465h-562v-465h-164v1024h164v-420h562v420h164v-1024z" />
    <glyph glyph-name="afii10080" unicode="&#x43e;" 
d="M608 -24q-227 0 -362.5 143.5t-135.5 380.5q0 258 141 403t381 145q229 0 357.5 -141t128.5 -391q0 -245 -138.5 -392.5t-371.5 -147.5zM620 910q-158 0 -250 -107.5t-92 -296.5q0 -182 93 -287t249 -105q159 0 244.5 103t85.5 293q0 192 -85.5 296t-244.5 104z" />
    <glyph glyph-name="afii10081" unicode="&#x43f;" 
d="M1059 0h-164v884h-562v-884h-164v1024h890v-1024z" />
    <glyph glyph-name="afii10082" unicode="&#x440;" 
d="M331 148h-4v-619h-164v1495h164v-180h4q121 204 354 204q198 0 309 -137.5t111 -368.5q0 -257 -125 -411.5t-342 -154.5q-199 0 -307 172zM327 561v-143q0 -127 82.5 -215.5t209.5 -88.5q149 0 233.5 114t84.5 317q0 171 -79 268t-214 97q-143 0 -230 -99.5t-87 -249.5z
" />
    <glyph glyph-name="afii10083" unicode="&#x441;" 
d="M1030 47q-130 -71 -309 -71q-242 0 -390.5 142.5t-148.5 369.5q0 253 160 406.5t427 153.5q149 0 263 -50v-168q-129 80 -276 80q-178 0 -292 -112.5t-114 -295.5q0 -180 107 -284t287 -104q152 0 286 89v-156z" />
    <glyph glyph-name="afii10084" unicode="&#x442;" 
d="M1074 884h-377v-884h-164v884h-378v140h919v-140z" />
    <glyph glyph-name="afii10085" unicode="&#x443;" 
d="M1128 1024l-483 -1147q-41 -97 -88 -165t-99 -111t-109 -63t-117 -20q-74 0 -120 13v147q63 -18 116 -18q33 0 64 9.5t61 32.5t59.5 62t57.5 98l65 134l-434 1028h182l307 -788q11 -31 21 -78h6q9 42 24 81l317 785h170z" />
    <glyph glyph-name="afii10086" unicode="&#x444;" 
d="M688 -24v-458h-148v458h-29q-203 0 -328 145t-125 379q0 249 126.5 398.5t333.5 149.5h22v410h148v-410h20q209 0 335.5 -148.5t126.5 -399.5q0 -234 -124 -379t-326 -145h-32zM688 910v-796h19q135 0 215 105.5t80 286.5q0 190 -79 297t-212 107h-23zM540 114v796h-20
q-129 0 -207 -107.5t-78 -296.5q0 -179 78.5 -285.5t209.5 -106.5h17z" />
    <glyph glyph-name="afii10087" unicode="&#x445;" 
d="M1088 1024l-374 -518l368 -506h-191l-231 332q-21 33 -45 78h-4q-7 -15 -47 -78l-235 -332h-189l379 502l-364 522h191l228 -350l43 -80h4l286 430h181z" />
    <glyph glyph-name="afii10088" unicode="&#x446;" 
d="M1153 -373h-141v373h-840v1024h164v-885h522v885h164v-885h131v-512z" />
    <glyph glyph-name="afii10089" unicode="&#x447;" 
d="M1034 0h-163v412q-180 -98 -332 -98q-344 0 -344 364v346h164v-338q0 -225 194 -225q148 0 318 86v477h163v-1024z" />
    <glyph glyph-name="afii10090" unicode="&#x448;" 
d="M1138 0h-1046v1024h164v-884h278v884h163v-884h277v884h164v-1024z" />
    <glyph glyph-name="afii10091" unicode="&#x449;" 
d="M1208 -373h-143v373h-992v1024h164v-885h277v885h164v-885h278v885h164v-885h88v-512z" />
    <glyph glyph-name="afii10092" unicode="&#x44a;" 
d="M379 0v884h-312v140h476v-393h276q157 0 249.5 -81.5t92.5 -229.5t-93 -234t-235 -86h-454zM543 490v-350h246q204 0 204 180q0 170 -206 170h-244z" />
    <glyph glyph-name="afii10093" unicode="&#x44b;" 
d="M1104 0h-162v1024h162v-1024zM124 0v1024h164v-393h176q157 0 249.5 -82t92.5 -229q0 -148 -93 -234t-235 -86h-354zM288 490v-350h146q204 0 204 180q0 170 -206 170h-144z" />
    <glyph glyph-name="afii10094" unicode="&#x44c;" 
d="M223 0v1024h164v-393h346q157 0 249.5 -82t92.5 -229q0 -148 -93 -234t-235 -86h-524zM387 490v-350h316q204 0 204 180q0 170 -206 170h-314z" />
    <glyph glyph-name="afii10095" unicode="&#x44d;" 
d="M184 41v159q131 -86 301 -86q164 0 265.5 89.5t110.5 242.5h-440v140h436q-14 152 -116.5 238t-272.5 86q-165 0 -286 -78v162q119 54 281 54q274 0 421.5 -142.5t147.5 -401.5q0 -241 -148.5 -384.5t-399.5 -143.5q-173 0 -300 65z" />
    <glyph glyph-name="afii10096" unicode="&#x44e;" 
d="M408 465h-144v-465h-164v1024h164v-420h146q21 210 127 327t271 117q181 0 280 -138t99 -394q0 -249 -106 -394.5t-293 -145.5q-175 0 -273.5 128.5t-106.5 360.5zM797 910q-223 0 -223 -400q0 -396 226 -396q220 0 220 396q0 400 -223 400z" />
    <glyph glyph-name="afii10097" unicode="&#x44f;" 
d="M1016 0h-164v424h-247q-99 0 -180 -160l-133 -264h-190l172 316q60 110 145 145q-120 16 -183 88t-63 180q0 136 98.5 215.5t276.5 79.5h468v-1024zM852 561v323h-304q-207 0 -207 -157q0 -166 201 -166h310z" />
    <glyph glyph-name="afii10071" unicode="&#x451;" 
d="M1091 471h-783q4 -171 100.5 -264t264.5 -93q189 0 347 114v-154q-145 -98 -383 -98q-233 0 -366 139.5t-133 392.5q0 239 144.5 389.5t359.5 150.5q214 0 331.5 -130t117.5 -361v-86zM923 610q-1 142 -76 221t-208 79q-128 0 -218 -83t-111 -217h613zM847 1198
q-48 0 -83 33.5t-35 85.5q0 50 33.5 84t81.5 34q51 0 85.5 -34.5t34.5 -83.5t-33.5 -84t-83.5 -35zM386 1198q-51 0 -86 35.5t-35 83.5q0 50 34 84t83 34t85 -34.5t36 -83.5t-34.5 -84t-82.5 -35z" />
    <glyph glyph-name="afii10099" unicode="&#x452;" 
d="M523 -389v157q67 -36 125 -36q146 0 215 149.5t69 505.5q0 495 -282 495q-127 0 -214 -93.5t-87 -231.5v-557h-164v1202h-133v134h133v180h164v-180h420v-134h-420v-374h4q111 194 334 194q410 0 410 -633q0 -422 -109 -612.5t-342 -190.5q-58 0 -123 25z" />
    <glyph glyph-name="afii10100" unicode="&#x453;" 
d="M990 884h-505v-884h-164v1024h669v-140zM940 1546l-302 -328h-127l223 328h206z" />
    <glyph glyph-name="afii10101" unicode="&#x454;" 
d="M1030 45q-127 -69 -303 -69q-252 0 -398.5 141.5t-146.5 380.5q0 258 154.5 404t426.5 146q153 0 269 -50v-162q-115 74 -282 74q-169 0 -273.5 -88t-119.5 -236h436v-140h-440q9 -151 109.5 -241.5t267.5 -90.5q165 0 300 86v-155z" />
    <glyph glyph-name="afii10102" unicode="&#x455;" 
d="M225 37v176q160 -99 353 -99q258 0 258 144q0 41 -22 69.5t-60 50.5t-88.5 39.5l-109.5 36.5q-81 27 -143 54.5t-103 62t-62 78.5t-21 103q0 72 34.5 127.5t93 93t132.5 56.5t153 19q179 0 321 -48v-166q-137 74 -316 74q-56 0 -101 -10.5t-77.5 -29.5t-50 -45t-17.5 -58
q0 -40 17.5 -67t51 -48t81 -38l108.5 -37q82 -26 146.5 -53.5t110 -61.5t68 -79t22.5 -107q0 -76 -34.5 -132t-91.5 -93t-132.5 -55t-158.5 -18q-209 0 -362 61z" />
    <glyph glyph-name="afii10103" unicode="&#x456;" 
d="M675 1263q-53 0 -90 36t-37 91t37 91.5t90 36.5q54 0 91.5 -36.5t37.5 -91.5q0 -53 -37.5 -90t-91.5 -37zM610 0v884h-374v140h538v-1024h-164z" />
    <glyph glyph-name="afii10104" unicode="&#x457;" 
d="M610 0v884h-374v140h538v-1024h-164zM847 1198q-48 0 -83 33.5t-35 85.5q0 50 33.5 84t81.5 34q51 0 85.5 -34.5t34.5 -83.5t-33.5 -84t-83.5 -35zM386 1198q-51 0 -86 35.5t-35 83.5q0 50 34 84t83 34t85 -34.5t36 -83.5t-34.5 -84t-82.5 -35z" />
    <glyph glyph-name="afii10105" unicode="&#x458;" 
d="M679 16v868h-375v140h539v-981q0 -252 -133 -388.5t-380 -136.5q-92 0 -178 32v153q107 -45 203 -45q324 0 324 358zM733 1263q-53 0 -90 36t-37 91t37 91.5t90 36.5q54 0 91.5 -36.5t37.5 -91.5q0 -53 -37.5 -90t-91.5 -37z" />
    <glyph glyph-name="afii10106" unicode="&#x459;" 
d="M591 0v885h-178q-34 -497 -115 -698t-219 -201q-42 0 -72 14v141q26 -18 57 -18q165 0 212 901h478v-393h102q157 0 249.5 -82t92.5 -230q0 -146 -93.5 -232.5t-234.5 -86.5h-279zM754 489v-350h71q205 0 205 180q0 170 -207 170h-69z" />
    <glyph glyph-name="afii10107" unicode="&#x45a;" 
d="M600 0v477h-334v-477h-164v1024h164v-406h334v406h164v-406h106q161 0 251.5 -79t90.5 -225q0 -147 -92 -230.5t-235 -83.5h-285zM764 477v-337h76q204 0 204 174q0 163 -206 163h-74z" />
    <glyph glyph-name="afii10108" unicode="&#x45b;" 
d="M1075 0h-164v590q0 320 -256 320q-129 0 -217.5 -92.5t-88.5 -237.5v-580h-164v1202h-136v134h136v180h164v-180h420v-134h-420v-348h4q127 194 356 194q178 0 272 -107t94 -310v-631z" />
    <glyph glyph-name="afii10109" unicode="&#x45c;" 
d="M1155 0h-230l-532 492h-4v-492h-164v1025h164v-470h4l510 469h215l-545 -494zM940 1546l-302 -328h-127l223 328h206z" />
    <glyph glyph-name="afii10110" unicode="&#x45e;" 
d="M1128 1024l-483 -1147q-41 -97 -88 -165t-99 -111t-109 -63t-117 -20q-74 0 -120 13v147q63 -18 116 -18q33 0 64 9.5t61 32.5t59.5 62t57.5 98l65 134l-434 1028h182l307 -788q11 -31 21 -78h6q9 42 24 81l317 785h170zM970 1522q-15 -141 -113.5 -222.5t-246.5 -81.5
q-152 0 -247.5 81.5t-104.5 222.5h162q14 -188 192 -188q80 0 132 49.5t64 138.5h162z" />
    <glyph glyph-name="afii10193" unicode="&#x45f;" 
d="M1059 0h-374v-373h-142v373h-374v1024h164v-885h562v885h164v-1024z" />
    <glyph glyph-name="afii10050" unicode="&#x490;" 
d="M1056 1282h-636v-1282h-168v1434h660v264h144v-416z" />
    <glyph glyph-name="afii10098" unicode="&#x491;" 
d="M972 884h-512v-884h-164v1024h532v270h144v-410z" />
    <glyph glyph-name="uni0E3F" unicode="&#xe3f;" 
d="M177 0v1434h364v182h104v-183q169 -9 273 -90q117 -91 117 -237q0 -122 -66 -212t-182 -128v-4q138 -17 221 -109.5t83 -240.5q0 -184 -137 -298q-124 -104 -309 -113v-210h-104v209h-364zM828 222q87 70 87 205q0 208 -270 240v-512q113 11 183 67zM345 668v-516h196
v516h-196zM345 1282v-463h196v463h-196zM768 879q91 69 91 194q0 181 -214 206v-453q72 16 123 53z" />
    <glyph glyph-name="Wgrave" unicode="&#x1e80;" 
d="M1246 1434l-225 -1434h-187l-180 997q-19 127 -23 206h-4q-6 -74 -26 -204l-192 -999h-185l-240 1434h155l155 -1040q19 -129 24 -204h5q8 78 31 204l197 1040h161l184 -1048q16 -117 24 -194h4q8 76 27 198l143 1044h152zM701 1566h-127l-302 328h208z" />
    <glyph glyph-name="wgrave" unicode="&#x1e81;" 
d="M1231 1024l-247 -1024h-170l-171 733q-13 61 -16 95h-4q-7 -35 -21 -93l-189 -735h-164l-250 1024h162l162 -740q10 -65 14 -122h8q3 44 18 124l196 738h150l172 -752q10 -57 15 -112h8q2 39 17 112l158 752h152zM701 1218h-127l-302 328h208z" />
    <glyph glyph-name="Wacute" unicode="&#x1e82;" 
d="M1246 1434l-225 -1434h-187l-180 997q-19 127 -23 206h-4q-6 -74 -26 -204l-192 -999h-185l-240 1434h155l155 -1040q19 -129 24 -204h5q8 78 31 204l197 1040h161l184 -1048q16 -117 24 -194h4q8 76 27 198l143 1044h152zM940 1894l-302 -328h-127l223 328h206z" />
    <glyph glyph-name="wacute" unicode="&#x1e83;" 
d="M1231 1024l-247 -1024h-170l-171 733q-13 61 -16 95h-4q-7 -35 -21 -93l-189 -735h-164l-250 1024h162l162 -740q10 -65 14 -122h8q3 44 18 124l196 738h150l172 -752q10 -57 15 -112h8q2 39 17 112l158 752h152zM940 1546l-302 -328h-127l223 328h206z" />
    <glyph glyph-name="Wdieresis" unicode="&#x1e84;" 
d="M1246 1434l-225 -1434h-187l-180 997q-19 127 -23 206h-4q-6 -74 -26 -204l-192 -999h-185l-240 1434h155l155 -1040q19 -129 24 -204h5q8 78 31 204l197 1040h161l184 -1048q16 -117 24 -194h4q8 76 27 198l143 1044h152zM847 1547q-48 0 -83 33.5t-35 85.5
q0 50 33.5 84t81.5 34q51 0 85.5 -34.5t34.5 -83.5t-33.5 -84t-83.5 -35zM386 1547q-51 0 -86 35.5t-35 83.5q0 50 34 84t83 34t85 -34.5t36 -83.5t-34.5 -84t-82.5 -35z" />
    <glyph glyph-name="wdieresis" unicode="&#x1e85;" 
d="M1231 1024l-247 -1024h-170l-171 733q-13 61 -16 95h-4q-7 -35 -21 -93l-189 -735h-164l-250 1024h162l162 -740q10 -65 14 -122h8q3 44 18 124l196 738h150l172 -752q10 -57 15 -112h8q2 39 17 112l158 752h152zM847 1198q-48 0 -83 33.5t-35 85.5q0 50 33.5 84t81.5 34
q51 0 85.5 -34.5t34.5 -83.5t-33.5 -84t-83.5 -35zM386 1198q-51 0 -86 35.5t-35 83.5q0 50 34 84t83 34t85 -34.5t36 -83.5t-34.5 -84t-82.5 -35z" />
    <glyph glyph-name="Ygrave" unicode="&#x1ef2;" 
d="M1205 1434l-513 -904v-530h-168v526l-501 908h191l361 -668q20 -36 35 -88h3q10 41 38 88l376 668h178zM701 1566h-127l-302 328h208z" />
    <glyph glyph-name="ygrave" unicode="&#x1ef3;" 
d="M1128 1024l-483 -1147q-41 -97 -88 -165t-99 -111t-109 -63t-117 -20q-74 0 -120 13v147q63 -18 116 -18q33 0 64 9.5t61 32.5t59.5 62t57.5 98l65 134l-434 1028h182l307 -788q11 -31 21 -78h6q9 42 24 81l317 785h170zM701 1218h-127l-302 328h208z" />
    <glyph glyph-name="endash" unicode="&#x2013;" 
d="M1066 506h-904v129h904v-129z" />
    <glyph glyph-name="emdash" unicode="&#x2014;" 
d="M1248 506h-1268v129h1268v-129z" />
    <glyph glyph-name="afii00208" unicode="&#x2015;" 
d="M1248 506h-1268v129h1268v-129z" />
    <glyph glyph-name="quoteleft" unicode="&#x2018;" 
d="M465 966l181 492h127l-77 -492h-231z" />
    <glyph glyph-name="quoteright" unicode="&#x2019;" 
d="M773 1458l-181 -492h-127l77 492h231z" />
    <glyph glyph-name="quotesinglbase" unicode="&#x201a;" 
d="M773 228l-181 -492h-127l77 492h231z" />
    <glyph glyph-name="quotereversed" unicode="&#x201b;" 
d="M693 1458l77 -492h-127l-181 492h231z" />
    <glyph glyph-name="quotedblleft" unicode="&#x201c;" 
d="M662 966l181 492h127l-77 -492h-231zM257 966l181 492h127l-77 -492h-231z" />
    <glyph glyph-name="quotedblright" unicode="&#x201d;" 
d="M565 1458l-181 -492h-127l77 492h231zM970 1458l-181 -492h-127l77 492h231z" />
    <glyph glyph-name="quotedblbase" unicode="&#x201e;" 
d="M565 227l-181 -492h-127l77 492h231zM970 227l-181 -492h-127l77 492h231z" />
    <glyph glyph-name="dagger" unicode="&#x2020;" 
d="M954 894l-262 30l-40 -694h-76l-40 694l-262 -30v150l302 -20l-40 410h156l-40 -410l302 20v-150z" />
    <glyph glyph-name="daggerdbl" unicode="&#x2021;" 
d="M954 520l-302 20l40 -310h-156l40 310l-302 -20v150l262 -30l58 192l-58 192l-262 -30v150l302 -20l-40 310h156l-40 -310l302 20v-150l-262 30l-58 -192l58 -192l262 30v-150z" />
    <glyph glyph-name="bullet" unicode="&#x2022;" 
d="M616 408q-104 0 -179 73t-75 177q0 103 75 178.5t179 75.5t177 -75t73 -179t-73 -177t-177 -73z" />
    <glyph glyph-name="ellipsis" unicode="&#x2026;" 
d="M1023 -18q-46 0 -77.5 32t-31.5 78t31.5 79.5t77.5 33.5q45 0 77.5 -33.5t32.5 -79.5t-32.5 -78t-77.5 -32zM613 -18q-46 0 -78.5 32t-32.5 78t32.5 79.5t78.5 33.5q45 0 77.5 -33.5t32.5 -79.5t-32.5 -78t-77.5 -32zM203 -18q-46 0 -77 32t-31 78t31 79.5t77 33.5
q45 0 77.5 -33.5t32.5 -79.5t-32 -78t-78 -32z" />
    <glyph glyph-name="perthousand" unicode="&#x2030;" 
d="M250 795q-109 0 -174.5 87t-65.5 232q0 159 69 250.5t186 91.5q113 0 175.5 -84.5t62.5 -238.5q0 -153 -70 -245.5t-183 -92.5zM260 1346q-63 0 -99.5 -59.5t-36.5 -163.5q0 -103 36 -160t98 -57t97.5 59t35.5 164q0 103 -35 160t-96 57zM726 824l-682 -290l-34 96
l676 287zM428 -22q-110 0 -175 87.5t-65 231.5q0 159 69.5 251.5t184.5 92.5q113 0 176 -85.5t63 -240.5q0 -152 -70 -244.5t-183 -92.5zM438 528q-65 0 -101 -59t-36 -164q0 -101 36 -158t98 -57q63 0 98 59.5t35 163.5q0 103 -34.5 159t-95.5 56zM966 -22
q-109 0 -174.5 87.5t-65.5 231.5q0 159 70 251.5t185 92.5q113 0 175.5 -85.5t62.5 -240.5q0 -152 -70 -244.5t-183 -92.5zM976 528q-64 0 -100 -59t-36 -164q0 -101 36 -158t98 -57t97.5 59.5t35.5 163.5q0 103 -35 159t-96 56z" />
    <glyph glyph-name="minute" unicode="&#x2032;" 
d="M724 1434l-104 -487h-136l46 487h194z" />
    <glyph glyph-name="second" unicode="&#x2033;" 
d="M533 1434l-104 -487h-136l46 487h194zM935 1434l-104 -487h-136l46 487h194z" />
    <glyph glyph-name="guilsinglleft" unicode="&#x2039;" 
d="M846 200h-166l-299 336l299 344h168l-305 -344z" />
    <glyph glyph-name="guilsinglright" unicode="&#x203a;" 
d="M848 538l-301 -338h-166l304 338l-304 342h166z" />
    <glyph glyph-name="exclamdbl" unicode="&#x203c;" 
d="M489 1434l-59 -1030h-115l-58 1030h232zM375 -19q-55 0 -94 38.5t-39 93.5t39 94t94 39q54 0 93.5 -39t39.5 -94t-39.5 -93.5t-93.5 -38.5zM969 1434l-59 -1030h-115l-58 1030h232zM855 -19q-55 0 -94 38.5t-39 93.5t39 94t94 39q54 0 93.5 -39t39.5 -94t-39.5 -93.5
t-93.5 -38.5z" />
    <glyph glyph-name="uni203E" unicode="&#x203e;" 
d="M1249 1396h-1269v120h1269v-120z" />
    <glyph glyph-name="fraction" unicode="&#x2044;" 
d="M1105 1434l-858 -1434h-124l859 1434h123z" />
    <glyph glyph-name="uni207F" unicode="&#x207f;" 
d="M419 715h-128v719h128v-115h4q75 135 233 135q133 0 207 -74t74 -206v-459h-130v451q0 176 -173 176q-85 0 -150 -60.5t-65 -145.5v-421z" />
    <glyph glyph-name="franc" unicode="&#x20a3;" 
d="M742 278h-244v-278h-168v278h-160v156h160v1000h728v-152h-560v-496h518v-151h-518v-201h244v-156z" />
    <glyph glyph-name="lira" unicode="&#x20a4;" 
d="M865 488h-342v-9q0 -243 -193 -339h791v-140h-980v135q218 71 218 313v40h-197v140h197v136h-197v141h197v125q0 188 123.5 308t319.5 120q133 0 241 -41v-155q-117 57 -249 57q-271 0 -271 -307v-107h342v-141h-342v-136h342v-140z" />
    <glyph glyph-name="peseta" unicode="&#x20a7;" 
d="M256 542v-542h-168v1434h222q462 0 462 -428q0 -210 -132 -337t-367 -127h-17zM256 1282v-588h4q336 0 336 304q0 284 -315 284h-25zM1205 10q-55 -32 -145 -32q-125 0 -180.5 71t-55.5 229v219h-117v130h117v164l156 54v-218h225v-130h-225v-190q0 -191 124 -191
q56 0 101 34v-140z" />
    <glyph glyph-name="Euro" unicode="&#x20ac;" 
d="M1070 50q-133 -74 -282 -74q-427 0 -509 506h-121v140h108q-4 31 -4 77q0 48 6 108h-110v140h131q51 240 192.5 375.5t343.5 135.5q137 0 245 -56v-162q-114 78 -256 78q-125 0 -222.5 -100.5t-136.5 -270.5h497v-140h-519q-8 -99 -1 -185h520v-140h-504
q72 -366 350 -366q131 0 272 87v-153z" />
    <glyph glyph-name="afii61289" unicode="&#x2113;" 
d="M299 422l178 236v454q0 226 61.5 302.5t172.5 76.5q100 0 159.5 -67.5t59.5 -171.5q0 -195 -285 -586v-416q0 -90 14 -110.5t44 -20.5q48 0 198 107v-162q-112 -88 -225 -88q-199 0 -199 241v225l-80 -98zM645 899q109 187 127.5 243.5t18.5 109.5q0 118 -76 118
q-29 0 -49.5 -31t-20.5 -213v-227z" />
    <glyph glyph-name="afii61352" unicode="&#x2116;" 
d="M662 0h-174l-300 966q-22 70 -33 120t-18 78h-6q4 -61 6 -109.5t2 -84.5v-970h-138v1434h189l261 -860l8 -30l11 -42.5l13 -50t13 -51.5l32 -129h4q-4 67 -6 119t-2 90v954h138v-1434zM1208 577h-452v132h452v-132zM972 778q-109 0 -174.5 87t-65.5 232q0 159 69 250.5
t186 91.5q113 0 175.5 -84.5t62.5 -238.5q0 -153 -70 -245.5t-183 -92.5zM982 1329q-63 0 -99.5 -59.5t-36.5 -163.5q0 -103 36 -160t98 -57t97.5 59t35.5 164q0 103 -35 160t-96 57z" />
    <glyph glyph-name="trademark" unicode="&#x2122;" 
d="M1145 772h-108v478h-4l-169 -478h-59l-164 478h-4v-478h-102v662h141l161 -466h4l164 466h140v-662zM468 1336h-156v-564h-111v564h-156v98h423v-98z" />
    <glyph glyph-name="uni2126" unicode="&#x2126;" 
d="M1142 0h-439v147q264 255 264 633q0 245 -98 387.5t-252 142.5q-156 0 -255 -142t-99 -387q0 -378 261 -634v-147h-437v148l292 -1q-292 235 -292 638q0 313 144.5 493t381.5 180q241 0 385 -178.5t144 -493.5q0 -402 -294 -639l294 1v-148z" />
    <glyph glyph-name="estimated" unicode="&#x212e;" 
d="M1144 530h-828v-370q121 -121 297 -121q255 0 395 245l72 -42q-104 -152 -213.5 -214.5t-252.5 -62.5q-238 0 -383.5 161.5t-145.5 403.5q0 254 148.5 410t376.5 156q216 0 368 -142t166 -424zM912 604v297q-130 123 -303 123q-175 0 -293 -123v-297h596z" />
    <glyph glyph-name="oneeighth" unicode="&#x215b;" 
d="M48 584v96h147v643l-161 -57v104l270 88v-778h145v-96h-401zM1104 1434l-858 -1434h-124l859 1434h123zM1191 218q0 -54 -16.5 -97.5t-49 -74.5t-79 -47.5t-106.5 -16.5q-47 0 -90 15t-75.5 43.5t-52 71.5t-19.5 98q0 80 39.5 137.5t100.5 95.5v4q-57 38 -86 93.5
t-29 114.5q0 42 14.5 81.5t43.5 70t71.5 48.5t99.5 18q47 0 86 -14.5t67 -41t43.5 -64t15.5 -83.5q0 -66 -30.5 -123.5t-91.5 -95.5v-3q73 -38 108.5 -97.5t35.5 -132.5zM1079 212q0 33 -6.5 59t-22 48.5t-42 41.5t-65.5 38q-25 -12 -48 -29t-41 -39.5t-28.5 -51.5
t-10.5 -65q0 -29 10 -54.5t28 -44t42.5 -29t53.5 -10.5q31 0 55.5 12t41 31t25 43.5t8.5 49.5zM1056 657q0 56 -29.5 88t-75.5 32q-45 0 -77 -33t-32 -87t31 -95t75 -66q48 29 78 68t30 93z" />
    <glyph glyph-name="threeeighths" unicode="&#x215c;" 
d="M39 612v111q81 -66 160 -66q68 0 105 45.5t37 120.5q0 69 -44.5 110.5t-128.5 41.5h-65v94h57q76 0 116 42.5t40 111.5q0 135 -117 135q-63 0 -137 -58v105q74 49 160 49q96 0 151.5 -58.5t55.5 -154.5q0 -153 -125 -207v-4q70 -20 109.5 -78t39.5 -131
q0 -111 -67 -184.5t-179 -73.5q-93 0 -168 49zM1075 1434l-858 -1434h-124l859 1434h123zM1184 218q0 -54 -16.5 -97.5t-49 -74.5t-79 -47.5t-106.5 -16.5q-47 0 -90 15t-75.5 43.5t-52 71.5t-19.5 98q0 80 39.5 137.5t100.5 95.5v4q-57 38 -86 93.5t-29 114.5
q0 42 14.5 81.5t43.5 70t71.5 48.5t99.5 18q47 0 86 -14.5t67 -41t43.5 -64t15.5 -83.5q0 -66 -30.5 -123.5t-91.5 -95.5v-3q73 -38 108.5 -97.5t35.5 -132.5zM1072 212q0 33 -6.5 59t-22 48.5t-42 41.5t-65.5 38q-25 -12 -48 -29t-41 -39.5t-28.5 -51.5t-10.5 -65
q0 -29 10 -54.5t28 -44t42.5 -29t53.5 -10.5q31 0 55.5 12t41 31t25 43.5t8.5 49.5zM1049 657q0 56 -29.5 88t-75.5 32q-45 0 -77 -33t-32 -87t31 -95t75 -66q48 29 78 68t30 93z" />
    <glyph glyph-name="fiveeighths" unicode="&#x215d;" 
d="M476 836q0 -54 -15.5 -103.5t-48.5 -87t-83.5 -60t-119.5 -22.5q-46 0 -87.5 10t-65.5 24v109q27 -19 67.5 -34t78.5 -15q39 0 69 13.5t51 37t31.5 54.5t10.5 66q0 86 -43.5 132.5t-132.5 46.5q-32 0 -62 -3.5t-50 -6.5v437h368v-100h-259v-238q8 2 23.5 3.5t30.5 1.5
q52 0 95.5 -17.5t75 -51t49 -83t17.5 -113.5zM1087 1434l-858 -1434h-124l859 1434h123zM1184 218q0 -54 -16.5 -97.5t-49 -74.5t-79 -47.5t-106.5 -16.5q-47 0 -90 15t-75.5 43.5t-52 71.5t-19.5 98q0 80 39.5 137.5t100.5 95.5v4q-57 38 -86 93.5t-29 114.5
q0 42 14.5 81.5t43.5 70t71.5 48.5t99.5 18q47 0 86 -14.5t67 -41t43.5 -64t15.5 -83.5q0 -66 -30.5 -123.5t-91.5 -95.5v-3q73 -38 108.5 -97.5t35.5 -132.5zM1072 212q0 33 -6.5 59t-22 48.5t-42 41.5t-65.5 38q-25 -12 -48 -29t-41 -39.5t-28.5 -51.5t-10.5 -65
q0 -29 10 -54.5t28 -44t42.5 -29t53.5 -10.5q31 0 55.5 12t41 31t25 43.5t8.5 49.5zM1049 657q0 56 -29.5 88t-75.5 32q-45 0 -77 -33t-32 -87t31 -95t75 -66q48 29 78 68t30 93z" />
    <glyph glyph-name="seveneighths" unicode="&#x215e;" 
d="M166 584l266 750h-344v100h478v-41l-280 -809h-120zM1051 1434l-858 -1434h-124l859 1434h123zM1202 218q0 -54 -16.5 -97.5t-49 -74.5t-79 -47.5t-106.5 -16.5q-47 0 -90 15t-75.5 43.5t-52 71.5t-19.5 98q0 80 39.5 137.5t100.5 95.5v4q-57 38 -86 93.5t-29 114.5
q0 42 14.5 81.5t43.5 70t71.5 48.5t99.5 18q47 0 86 -14.5t67 -41t43.5 -64t15.5 -83.5q0 -66 -30.5 -123.5t-91.5 -95.5v-3q73 -38 108.5 -97.5t35.5 -132.5zM1090 212q0 33 -6.5 59t-22 48.5t-42 41.5t-65.5 38q-25 -12 -48 -29t-41 -39.5t-28.5 -51.5t-10.5 -65
q0 -29 10 -54.5t28 -44t42.5 -29t53.5 -10.5q31 0 55.5 12t41 31t25 43.5t8.5 49.5zM1067 657q0 56 -29.5 88t-75.5 32q-45 0 -77 -33t-32 -87t31 -95t75 -66q48 29 78 68t30 93z" />
    <glyph glyph-name="arrowleft" unicode="&#x2190;" 
d="M1063 531h-735l121 -119v-148l-319 332v4l319 331v-146l-123 -121h737v-133z" />
    <glyph glyph-name="arrowup" unicode="&#x2191;" 
d="M548 -12v1188l-119 -121h-148l332 319h4l331 -319h-146l-121 123v-1190h-133z" />
    <glyph glyph-name="arrowright" unicode="&#x2192;" 
d="M166 664h735l-121 119v148l319 -332v-4l-319 -331v146l123 121h-737v133z" />
    <glyph glyph-name="arrowdown" unicode="&#x2193;" 
d="M681 1376v-1192l121 125h146l-331 -319h-4l-332 319h148l119 -123v1190h133z" />
    <glyph glyph-name="arrowboth" unicode="&#x2194;" 
d="M326 664h575l-121 119v148l319 -332v-4l-319 -331v146l123 121h-575l121 -119v-148l-319 332v4l319 331v-146z" />
    <glyph glyph-name="arrowupdn" unicode="&#x2195;" 
d="M681 1178v-994l121 125h146l-331 -319h-4l-332 319h148l119 -123v990l-119 -121h-148l332 319h4l331 -319h-146z" />
    <glyph glyph-name="arrowupdnbse" unicode="&#x21a8;" 
d="M281 121h332l-332 319h148l119 -123v990l-119 -121h-148l332 319h4l331 -319h-146l-121 123v-994l121 125h146l-331 -319h331v-133h-667v133z" />
    <glyph glyph-name="partialdiff" unicode="&#x2202;" 
d="M923 872h4q26 476 -266 476q-123 0 -246 -80l39 156q119 65 248 65q194 0 290.5 -132t96.5 -423q0 -221 -65 -461t-200 -368.5t-319 -128.5q-166 0 -266 106.5t-100 287.5q0 272 147.5 471t374.5 199q178 0 262 -168zM911 692q-58 209 -230 209q-160 0 -267 -157
t-107 -367q0 -122 56.5 -192.5t153.5 -70.5q151 0 259 159.5t135 418.5z" />
    <glyph glyph-name="uni2206" unicode="&#x2206;" 
d="M1175 0h-1121v76l471 1358h174l476 -1358v-76zM976 152l-327 968q-29 91 -38 142h-4q-12 -52 -40 -142l-318 -968h727z" />
    <glyph glyph-name="product" unicode="&#x220f;" 
d="M1101 -469h-168v1749h-638v-1749h-168v1903h974v-1903z" />
    <glyph glyph-name="summation" unicode="&#x2211;" 
d="M1194 -469h-1119v78l636 883l-599 852v90h1042v-154h-796l554 -784l-585 -812h867v-153z" />
    <glyph glyph-name="minus" unicode="&#x2212;" 
d="M1084 530h-940v134h940v-134z" />
    <glyph glyph-name="uni2215" unicode="&#x2215;" 
d="M1115 1434l-858 -1434h-144l859 1434h143z" />
    <glyph glyph-name="uni2219" unicode="&#x2219;" 
d="M613 487q-55 0 -94 40t-39 95q0 56 39 95.5t94 39.5q56 0 95.5 -39.5t39.5 -95.5q0 -55 -39.5 -95t-95.5 -40z" />
    <glyph glyph-name="radical" unicode="&#x221a;" 
d="M1252 1516l-517 -1516h-113l-319 750h-170v120h264l275 -661l442 1307h138z" />
    <glyph glyph-name="infinity" unicode="&#x221e;" 
d="M612 482q-125 -275 -286 -275q-123 0 -200.5 106.5t-77.5 278.5q0 162 80.5 277.5t197.5 115.5q177 0 290 -273q122 273 284 273q124 0 202 -106.5t78 -278.5q0 -161 -80.5 -277t-199.5 -116q-169 0 -288 275zM688 596q87 -260 211 -260q72 0 115.5 72.5t43.5 191.5
q0 112 -45 186t-114 74q-115 0 -211 -264zM540 598q-85 262 -206 262q-70 0 -112.5 -75t-42.5 -193q0 -110 43 -183t112 -73q113 0 206 262z" />
    <glyph glyph-name="orthogonal" unicode="&#x221f;" 
d="M165 899h132v-768h767v-131h-899v899z" />
    <glyph glyph-name="intersection" unicode="&#x2229;" 
d="M608 977q-72 0 -135.5 -24.5t-111 -75t-75.5 -127.5t-28 -182v-462h-132v463q0 138 42.5 238.5t111.5 166t157 97.5t178 32q93 0 181 -32t156 -97.5t109.5 -166t41.5 -238.5v-463h-132v462q0 102 -30 178.5t-80 128t-115.5 77t-137.5 25.5z" />
    <glyph glyph-name="integral" unicode="&#x222b;" 
d="M977 1372q-48 27 -111 27q-170 0 -170 -217v-1322q0 -158 -93.5 -252t-232.5 -94q-75 0 -119 19v147q48 -26 109 -26q172 0 172 217v1319q0 160 93.5 254t231.5 94q76 0 120 -18v-148z" />
    <glyph glyph-name="approxequal" unicode="&#x2248;" 
d="M1107 960q-7 -146 -80.5 -227t-199.5 -81q-109 0 -265 108q-97 68 -159 68q-140 0 -146 -176h-135q5 144 79.5 226t201.5 82q106 0 235 -88q132 -90 197 -90q61 0 98 49t39 129h135zM1107 549q-7 -147 -80.5 -228t-199.5 -81q-109 0 -265 108q-94 66 -159 66
q-140 0 -146 -174h-135q5 143 79.5 226t201.5 83q106 0 235 -88q132 -91 197 -91q61 0 98 50t39 129h135z" />
    <glyph glyph-name="notequal" unicode="&#x2260;" 
d="M1084 318h-550l-163 -318h-141l164 318h-250v132h319l149 294h-468v132h538l158 312h141l-159 -312h262v-132h-330l-152 -294h482v-132z" />
    <glyph glyph-name="equivalence" unicode="&#x2261;" 
d="M1084 105h-940v132h940v-132zM1084 950h-940v132h940v-132zM1084 531h-940v132h940v-132z" />
    <glyph glyph-name="lessequal" unicode="&#x2264;" 
d="M1044 254l-860 434v58l860 481v-150l-643 -355l643 -316v-152zM1084 0h-940v133h940v-133z" />
    <glyph glyph-name="greaterequal" unicode="&#x2265;" 
d="M1044 690l-860 -434v152l645 311l-645 361v149l860 -481v-58zM1084 0h-940v133h940v-133z" />
    <glyph glyph-name="house" unicode="&#x2302;" 
d="M1060 831v-561h-891v561l430 357h31zM982 798l-368 304l-367 -304v-450h735v450z" />
    <glyph glyph-name="revlogicalnot" unicode="&#x2310;" 
d="M144 817h940v-133h-809v-430h-131v563z" />
    <glyph glyph-name="integraltp" unicode="&#x2320;" 
d="M866 1399q-170 0 -170 -217v-1653h-164v1661q0 81 25.5 145.5t69.5 109.5t103.5 69t127.5 24q76 0 118 -18v-148q-43 27 -110 27z" />
    <glyph glyph-name="integralbt" unicode="&#x2321;" 
d="M696 1711v-1841q0 -79 -22 -144t-64 -112t-102.5 -73t-137.5 -26q-76 0 -119 18v148q23 -14 50.5 -20.5t58.5 -6.5q172 0 172 217v1840h164z" />
    <glyph glyph-name="glyph578" 
d="M412 584v96h147v643l-161 -57v104l270 88v-778h145v-96h-401z" />
    <glyph glyph-name="glyph579" 
d="M390 584v98l186 246q88 116 108.5 173.5t20.5 100.5q0 66 -30 108t-82 42q-89 0 -172 -92v116q86 78 192 78q95 0 153 -65t58 -172q0 -73 -35 -145t-145 -214l-131 -170v-4h317v-100h-440z" />
    <glyph glyph-name="glyph580" 
d="M403 612v111q81 -66 160 -66q68 0 105 45.5t37 120.5q0 69 -44.5 110.5t-128.5 41.5h-65v94h57q76 0 116 42.5t40 111.5q0 135 -117 135q-63 0 -137 -58v105q74 49 160 49q96 0 151.5 -58.5t55.5 -154.5q0 -153 -125 -207v-4q70 -20 109.5 -78t39.5 -131
q0 -111 -67 -184.5t-179 -73.5q-93 0 -168 49z" />
    <glyph glyph-name="glyph581" 
d="M784 802v-217h-107v217h-311v78l295 555h123v-541h88v-92h-88zM675 1304l-16.5 -39.5t-18.5 -36.5l-174 -334h211v334q0 5 0.5 15.5t0.5 21.5t0.5 22t0.5 17h-4z" />
    <glyph glyph-name="glyph582" 
d="M827 836q0 -54 -15.5 -103.5t-48.5 -87t-83.5 -60t-119.5 -22.5q-46 0 -87.5 10t-65.5 24v109q27 -19 67.5 -34t78.5 -15q39 0 69 13.5t51 37t31.5 54.5t10.5 66q0 86 -43.5 132.5t-132.5 46.5q-32 0 -62 -3.5t-50 -6.5v437h368v-100h-259v-238q8 2 23.5 3.5t30.5 1.5
q52 0 95.5 -17.5t75 -51t49 -83t17.5 -113.5z" />
    <glyph glyph-name="glyph583" 
d="M452 584l266 750h-344v100h478v-41l-280 -809h-120z" />
    <glyph glyph-name="glyph584" 
d="M863 801q0 -54 -16.5 -97.5t-49 -74.5t-79 -47.5t-106.5 -16.5q-47 0 -90 15t-75.5 43.5t-52 71.5t-19.5 98q0 80 39.5 137.5t100.5 95.5v4q-57 38 -86 93.5t-29 114.5q0 42 14.5 81.5t43.5 70t71.5 48.5t99.5 18q47 0 86 -14.5t67 -41t43.5 -64t15.5 -83.5
q0 -66 -30.5 -123.5t-91.5 -95.5v-3q73 -38 108.5 -97.5t35.5 -132.5zM751 795q0 33 -6.5 59t-22 48.5t-42 41.5t-65.5 38q-25 -12 -48 -29t-41 -39.5t-28.5 -51.5t-10.5 -65q0 -29 10 -54.5t28 -44t42.5 -29t53.5 -10.5q31 0 55.5 12t41 31t25 43.5t8.5 49.5zM728 1240
q0 56 -29.5 88t-75.5 32q-45 0 -77 -33t-32 -87t31 -95t75 -66q48 29 78 68t30 93z" />
    <glyph glyph-name="glyph585" 
d="M759 -119l-166 -290h-123l87 290h202z" />
    <glyph glyph-name="glyph586" 
d="M970 1522q-15 -141 -113.5 -222.5t-246.5 -81.5q-152 0 -247.5 81.5t-104.5 222.5h162q14 -188 192 -188q80 0 132 49.5t64 138.5h162z" />
    <glyph glyph-name="uni0492" unicode="&#x492;" 
d="M1115 1278h-704v-480h383v-134h-383v-664h-169v664h-165v134h165v636h873v-156z" />
    <glyph glyph-name="uni0493" unicode="&#x493;" 
d="M191 569h130v455h669v-140h-505v-315h274v-134h-274v-435h-164v435h-130v134z" />
    <glyph glyph-name="uni049A" unicode="&#x49a;" 
d="M1202 -385h-155v385h-79l-554 656q-31 37 -38 50h-4v-706h-168v1434h168v-674h4q14 22 38 49l536 625h209l-615 -688l525 -596h133v-535z" />
    <glyph glyph-name="uni049B" unicode="&#x49b;" 
d="M1155 -373h-140v373h-90l-532 492h-4v-492h-164v1025h164v-470h4l510 469h215l-545 -494l440 -401h142v-502z" />
    <glyph glyph-name="uni04D8" unicode="&#x4d8;" 
d="M203 1374q140 84 348 84q269 0 430.5 -197t161.5 -526q0 -351 -134.5 -555t-397.5 -204q-258 0 -391 201t-133 523q0 24 2 95h176h701q-13 220 -121 357q-123 155 -322 155q-185 0 -320 -96v163zM344 288q81 -161 266 -161q197 0 277 154q69 133 78 359l-700 3
q9 -216 79 -355z" />
    <glyph glyph-name="afii10846" unicode="&#x4d9;" 
d="M137 553h783q-4 171 -100.5 264t-264.5 93q-189 0 -347 -114v154q145 98 383 98q233 0 366 -139.5t133 -392.5q0 -239 -144.5 -389.5t-359.5 -150.5q-214 0 -331.5 130t-117.5 361v86zM305 414q1 -142 76 -221t208 -79q128 0 218 83t111 217h-613z" />
    <glyph glyph-name="uni04E8" unicode="&#x4e8;" 
d="M611 -24q-258 0 -391 201t-133 523q0 346 136 552t408 206q249 0 380.5 -200t131.5 -523q0 -351 -134.5 -555t-397.5 -204zM344 288q81 -161 266 -161q197 0 277 154q70 134 78 362h-700q9 -216 79 -355zM618 1306q-187 0 -271 -163q-71 -138 -82 -349h700
q-10 225 -77 357q-78 155 -270 155z" />
    <glyph glyph-name="uni04E9" unicode="&#x4e9;" 
d="M608 -24q-227 0 -362.5 143.5t-135.5 380.5q0 258 141 403t381 145q229 0 357.5 -141t128.5 -391q0 -245 -138.5 -392.5t-371.5 -147.5zM371 219q93 -105 249 -105q159 0 244 103q72 87 84 236h-668q12 -145 91 -234zM620 910q-158 0 -250 -108q-70 -81 -87 -210h662
q-14 133 -81 214q-85 104 -244 104z" />
  </font>
</defs>
</svg>
